STARTFONT 2.3
FONT -FontForge-Source Code Pro-Book-R-Normal--8-80-72-72-M-50-ISO10646-1
SIZE 8 72 72  4
FONTBOUNDINGBOX 9 14 -2 -4
COMMENT "Generated by fontforge, http://fontforge.sourceforge.net"
COMMENT "Copyright 2010, 2012 Adobe Systems Incorporated (http://www.adobe.com/), with Reserved Font Name `Source'."
STARTPROPERTIES 41
FOUNDRY "FontForge"
FAMILY_NAME "Source Code Pro"
WEIGHT_NAME "Book"
SLANT "R"
SETWIDTH_NAME "Normal"
ADD_STYLE_NAME ""
PIXEL_SIZE 8
POINT_SIZE 80
RESOLUTION_X 72
RESOLUTION_Y 72
SPACING "M"
AVERAGE_WIDTH 50
CHARSET_REGISTRY "ISO10646"
CHARSET_ENCODING "1"
FONTNAME_REGISTRY ""
CHARSET_COLLECTIONS "ASCII ISOLatin1Encoding ISO8859-2 ISO8859-5 ISO8859-7 ISO8859-9 ISO8859-4 ISO10646-1"
BITS_PER_PIXEL 4
FONT_NAME "SourceCodePro-Regular"
FACE_NAME "Source Code Pro"
COPYRIGHT "Copyright 2010, 2012 Adobe Systems Incorporated (http://www.adobe.com/), with Reserved Font Name `Source'."
FONT_VERSION "2.030;PS 1.000;hotconv 16.6.51;makeotf.lib2.5.65220"
FONT_ASCENT 6
FONT_DESCENT 2
UNDERLINE_POSITION -1
UNDERLINE_THICKNESS 1
X_HEIGHT 3
CAP_HEIGHT 4
RAW_ASCENT 750
RAW_DESCENT 250
NORM_SPACE 5
RELATIVE_WEIGHT 40
RELATIVE_SETWIDTH 50
SUPERSCRIPT_X 0
SUPERSCRIPT_Y 2
SUPERSCRIPT_SIZE 4
SUBSCRIPT_X 0
SUBSCRIPT_Y 0
SUBSCRIPT_SIZE 4
FIGURE_WIDTH 5
AVG_LOWERCASE_WIDTH 50
AVG_UPPERCASE_WIDTH 50
ENDPROPERTIES
CHARS 1564
STARTCHAR space
ENCODING 32
SWIDTH 600 0
DWIDTH 5 0
BBX 1 1 0 0
BITMAP
00
ENDCHAR
STARTCHAR exclam
ENCODING 33
SWIDTH 600 0
DWIDTH 5 0
BBX 2 5 1 0
BITMAP
09
08
07
00
1C
ENDCHAR
STARTCHAR quotedbl
ENCODING 34
SWIDTH 600 0
DWIDTH 5 0
BBX 3 3 1 3
BITMAP
D2B0
B1A0
8080
ENDCHAR
STARTCHAR numbersign
ENCODING 35
SWIDTH 600 0
DWIDTH 5 0
BBX 5 5 0 0
BITMAP
052600
2F4A10
062600
4C8800
065200
ENDCHAR
STARTCHAR dollar
ENCODING 36
SWIDTH 600 0
DWIDTH 5 0
BBX 4 7 0 -1
BITMAP
0070
0AF7
0B14
04A6
141B
09F9
0070
ENDCHAR
STARTCHAR percent
ENCODING 37
SWIDTH 600 0
DWIDTH 5 0
BBX 5 6 0 0
BITMAP
7E3000
946440
7E3600
005E40
069280
625E40
ENDCHAR
STARTCHAR ampersand
ENCODING 38
SWIDTH 600 0
DWIDTH 5 0
BBX 5 5 0 0
BITMAP
0BD000
099100
2C7250
937A10
4ED950
ENDCHAR
STARTCHAR quotesingle
ENCODING 39
SWIDTH 600 0
DWIDTH 5 0
BBX 2 3 1 3
BITMAP
1D
0B
08
ENDCHAR
STARTCHAR parenleft
ENCODING 40
SWIDTH 600 0
DWIDTH 5 0
BBX 3 7 1 -1
BITMAP
0270
0900
3600
5400
3600
0900
0270
ENDCHAR
STARTCHAR parenright
ENCODING 41
SWIDTH 600 0
DWIDTH 5 0
BBX 3 7 1 -1
BITMAP
8100
1800
0900
0720
0900
1800
8100
ENDCHAR
STARTCHAR asterisk
ENCODING 42
SWIDTH 600 0
DWIDTH 5 0
BBX 4 4 0 1
BITMAP
0070
2ACA
04E1
0726
ENDCHAR
STARTCHAR plus
ENCODING 43
SWIDTH 600 0
DWIDTH 5 0
BBX 5 5 0 0
BITMAP
004000
008000
5FFF20
008000
004000
ENDCHAR
STARTCHAR comma
ENCODING 44
SWIDTH 600 0
DWIDTH 5 0
BBX 3 3 1 -2
BITMAP
1D10
0910
3400
ENDCHAR
STARTCHAR hyphen
ENCODING 45
SWIDTH 600 0
DWIDTH 5 0
BBX 5 1 0 2
BITMAP
5FFF20
ENDCHAR
STARTCHAR period
ENCODING 46
SWIDTH 600 0
DWIDTH 5 0
BBX 2 1 1 0
BITMAP
2C
ENDCHAR
STARTCHAR slash
ENCODING 47
SWIDTH 600 0
DWIDTH 5 0
BBX 4 7 0 -1
BITMAP
0009
0027
0071
0090
0450
0900
1800
ENDCHAR
STARTCHAR zero
ENCODING 48
SWIDTH 600 0
DWIDTH 5 0
BBX 5 5 0 0
BITMAP
0AE800
481A10
64B630
481A10
0AE800
ENDCHAR
STARTCHAR one
ENCODING 49
SWIDTH 600 0
DWIDTH 5 0
BBX 5 5 0 0
BITMAP
07C000
00A000
00A000
00A000
3FFF40
ENDCHAR
STARTCHAR two
ENCODING 50
SWIDTH 600 0
DWIDTH 5 0
BBX 5 5 0 0
BITMAP
0BE700
341A00
005400
074000
6FFF30
ENDCHAR
STARTCHAR three
ENCODING 51
SWIDTH 600 0
DWIDTH 5 0
BBX 5 5 0 0
BITMAP
1AE800
232B00
06F600
331B10
1BEA00
ENDCHAR
STARTCHAR four
ENCODING 52
SWIDTH 600 0
DWIDTH 5 0
BBX 5 5 0 0
BITMAP
008800
068800
381800
AFFF50
001800
ENDCHAR
STARTCHAR five
ENCODING 53
SWIDTH 600 0
DWIDTH 5 0
BBX 5 5 0 0
BITMAP
0FFE00
180000
1AFA00
321B20
1CE900
ENDCHAR
STARTCHAR six
ENCODING 54
SWIDTH 600 0
DWIDTH 5 0
BBX 5 5 0 0
BITMAP
08EA00
3A1300
5BEC10
491930
09EA00
ENDCHAR
STARTCHAR seven
ENCODING 55
SWIDTH 600 0
DWIDTH 5 0
BBX 5 5 0 0
BITMAP
7FFF40
001800
008100
009000
028000
ENDCHAR
STARTCHAR eight
ENCODING 56
SWIDTH 600 0
DWIDTH 5 0
BBX 5 5 0 0
BITMAP
0BE800
082B00
2DFA00
672810
1CFC10
ENDCHAR
STARTCHAR nine
ENCODING 57
SWIDTH 600 0
DWIDTH 5 0
BBX 5 5 0 0
BITMAP
1CE700
661C10
2DEC20
121B00
1CE500
ENDCHAR
STARTCHAR colon
ENCODING 58
SWIDTH 600 0
DWIDTH 5 0
BBX 2 4 1 0
BITMAP
2C
00
00
2C
ENDCHAR
STARTCHAR semicolon
ENCODING 59
SWIDTH 600 0
DWIDTH 5 0
BBX 3 6 1 -2
BITMAP
2C00
0000
0000
1D10
0910
3400
ENDCHAR
STARTCHAR less
ENCODING 60
SWIDTH 600 0
DWIDTH 5 0
BBX 4 5 0 0
BITMAP
002A
05C4
1D10
06C4
002A
ENDCHAR
STARTCHAR equal
ENCODING 61
SWIDTH 600 0
DWIDTH 5 0
BBX 5 3 0 1
BITMAP
5FFF20
000000
5FFF20
ENDCHAR
STARTCHAR greater
ENCODING 62
SWIDTH 600 0
DWIDTH 5 0
BBX 4 5 0 0
BITMAP
2910
06C4
002C
06C4
2910
ENDCHAR
STARTCHAR question
ENCODING 63
SWIDTH 600 0
DWIDTH 5 0
BBX 3 6 1 0
BITMAP
9E60
41A0
0440
0800
0000
2A00
ENDCHAR
STARTCHAR at
ENCODING 64
SWIDTH 600 0
DWIDTH 5 0
BBX 5 6 0 -1
BITMAP
08EB00
581640
80BD60
737560
49ED60
08E900
ENDCHAR
STARTCHAR A
ENCODING 65
SWIDTH 600 0
DWIDTH 5 0
BBX 5 5 0 0
BITMAP
02D000
076500
090900
3FFE10
930660
ENDCHAR
STARTCHAR B
ENCODING 66
SWIDTH 600 0
DWIDTH 5 0
BBX 5 5 0 0
BITMAP
3FFA00
371B00
3FFA00
370850
3FFC10
ENDCHAR
STARTCHAR C
ENCODING 67
SWIDTH 600 0
DWIDTH 5 0
BBX 5 5 0 0
BITMAP
08EB10
4A1310
740000
4A1320
08EB10
ENDCHAR
STARTCHAR D
ENCODING 68
SWIDTH 600 0
DWIDTH 5 0
BBX 5 5 0 0
BITMAP
4FE800
451A40
450560
451A30
4FE800
ENDCHAR
STARTCHAR E
ENCODING 69
SWIDTH 600 0
DWIDTH 5 0
BBX 5 5 0 0
BITMAP
1FFF20
190000
1FFC00
190000
1FFF40
ENDCHAR
STARTCHAR F
ENCODING 70
SWIDTH 600 0
DWIDTH 5 0
BBX 4 5 1 0
BITMAP
EFF4
A000
EFD0
A000
A000
ENDCHAR
STARTCHAR G
ENCODING 71
SWIDTH 600 0
DWIDTH 5 0
BBX 5 5 0 0
BITMAP
09EA00
681400
836F40
681640
09EC20
ENDCHAR
STARTCHAR H
ENCODING 72
SWIDTH 600 0
DWIDTH 5 0
BBX 5 5 0 0
BITMAP
640830
640830
6FFF30
640830
640830
ENDCHAR
STARTCHAR I
ENCODING 73
SWIDTH 600 0
DWIDTH 5 0
BBX 5 5 0 0
BITMAP
4FFF10
00A000
00A000
00A000
4FFF10
ENDCHAR
STARTCHAR J
ENCODING 74
SWIDTH 600 0
DWIDTH 5 0
BBX 4 5 0 0
BITMAP
0EFE
000A
000A
251B
0AE7
ENDCHAR
STARTCHAR K
ENCODING 75
SWIDTH 600 0
DWIDTH 5 0
BBX 5 5 0 0
BITMAP
370920
379300
3DB200
381A00
370650
ENDCHAR
STARTCHAR L
ENCODING 76
SWIDTH 600 0
DWIDTH 5 0
BBX 4 5 1 0
BITMAP
A000
A000
A000
A000
EFF5
ENDCHAR
STARTCHAR M
ENCODING 77
SWIDTH 600 0
DWIDTH 5 0
BBX 5 5 0 0
BITMAP
680B30
6B2C30
67A830
637630
630630
ENDCHAR
STARTCHAR N
ENCODING 78
SWIDTH 600 0
DWIDTH 5 0
BBX 5 5 0 0
BITMAP
5A0820
5A3820
559720
546B20
540D20
ENDCHAR
STARTCHAR O
ENCODING 79
SWIDTH 600 0
DWIDTH 5 0
BBX 5 5 0 0
BITMAP
1BE900
771A40
920560
771A30
1BE900
ENDCHAR
STARTCHAR P
ENCODING 80
SWIDTH 600 0
DWIDTH 5 0
BBX 5 5 0 0
BITMAP
3FFC10
370840
3FFB10
370000
370000
ENDCHAR
STARTCHAR Q
ENCODING 81
SWIDTH 600 0
DWIDTH 5 0
BBX 5 7 0 -2
BITMAP
1BE900
671A30
820560
771A30
1BF900
00B300
003E50
ENDCHAR
STARTCHAR R
ENCODING 82
SWIDTH 600 0
DWIDTH 5 0
BBX 5 5 0 0
BITMAP
3FFB10
370930
3FFA00
374700
370920
ENDCHAR
STARTCHAR S
ENCODING 83
SWIDTH 600 0
DWIDTH 5 0
BBX 5 5 0 0
BITMAP
0BE800
2A1400
05A700
341930
1AEB10
ENDCHAR
STARTCHAR T
ENCODING 84
SWIDTH 600 0
DWIDTH 5 0
BBX 5 5 0 0
BITMAP
AFFF70
00A000
00A000
00A000
00A000
ENDCHAR
STARTCHAR U
ENCODING 85
SWIDTH 600 0
DWIDTH 5 0
BBX 5 5 0 0
BITMAP
640730
640730
650730
581B10
1BF900
ENDCHAR
STARTCHAR V
ENCODING 86
SWIDTH 600 0
DWIDTH 5 0
BBX 5 5 0 0
BITMAP
730640
280A00
0B1900
079400
02E000
ENDCHAR
STARTCHAR W
ENCODING 87
SWIDTH 600 0
DWIDTH 5 0
BBX 5 5 0 0
BITMAP
B001A0
A19370
86C650
5B5B30
3C0E10
ENDCHAR
STARTCHAR X
ENCODING 88
SWIDTH 600 0
DWIDTH 5 0
BBX 5 5 0 0
BITMAP
380910
086500
02E000
095700
460920
ENDCHAR
STARTCHAR Y
ENCODING 89
SWIDTH 600 0
DWIDTH 5 0
BBX 5 5 0 0
BITMAP
640730
0A1900
05B200
00A000
00A000
ENDCHAR
STARTCHAR Z
ENCODING 90
SWIDTH 600 0
DWIDTH 5 0
BBX 5 5 0 0
BITMAP
3FFF40
002800
018000
191000
7FFF50
ENDCHAR
STARTCHAR bracketleft
ENCODING 91
SWIDTH 600 0
DWIDTH 5 0
BBX 3 8 1 -2
BITMAP
3FF0
3500
3500
3500
3500
3500
3500
3FF0
ENDCHAR
STARTCHAR backslash
ENCODING 92
SWIDTH 600 0
DWIDTH 5 0
BBX 4 7 0 -1
BITMAP
1800
0900
0450
0090
0071
0027
0009
ENDCHAR
STARTCHAR bracketright
ENCODING 93
SWIDTH 600 0
DWIDTH 5 0
BBX 3 8 0 -2
BITMAP
3FF0
0080
0080
0080
0080
0080
0080
3FF0
ENDCHAR
STARTCHAR asciicircum
ENCODING 94
SWIDTH 600 0
DWIDTH 5 0
BBX 3 3 1 2
BITMAP
2C00
7540
8080
ENDCHAR
STARTCHAR underscore
ENCODING 95
SWIDTH 600 0
DWIDTH 5 0
BBX 5 1 0 -1
BITMAP
8FFF50
ENDCHAR
STARTCHAR grave
ENCODING 96
SWIDTH 600 0
DWIDTH 5 0
BBX 2 2 1 4
BITMAP
72
18
ENDCHAR
STARTCHAR a
ENCODING 97
SWIDTH 600 0
DWIDTH 5 0
BBX 5 4 0 0
BITMAP
09EA00
1BDF10
482A20
2DDB20
ENDCHAR
STARTCHAR b
ENCODING 98
SWIDTH 600 0
DWIDTH 5 0
BBX 5 6 0 0
BITMAP
460000
460000
4CEB00
491840
491930
4CE900
ENDCHAR
STARTCHAR c
ENCODING 99
SWIDTH 600 0
DWIDTH 5 0
BBX 5 4 0 0
BITMAP
08EB00
491310
491310
09EB00
ENDCHAR
STARTCHAR d
ENCODING 100
SWIDTH 600 0
DWIDTH 5 0
BBX 5 6 0 0
BITMAP
000910
000910
1BED10
661B10
761C10
1CEC10
ENDCHAR
STARTCHAR e
ENCODING 101
SWIDTH 600 0
DWIDTH 5 0
BBX 5 4 0 0
BITMAP
0AEB00
5FFF40
581300
0AEA00
ENDCHAR
STARTCHAR f
ENCODING 102
SWIDTH 600 0
DWIDTH 5 0
BBX 5 6 0 0
BITMAP
009E70
01B010
2FFF30
019000
019000
019000
ENDCHAR
STARTCHAR g
ENCODING 103
SWIDTH 600 0
DWIDTH 5 0
BBX 5 6 0 -2
BITMAP
0BFF80
2A3A00
0CC600
1EFE40
450670
3DEB10
ENDCHAR
STARTCHAR h
ENCODING 104
SWIDTH 600 0
DWIDTH 5 0
BBX 5 6 0 0
BITMAP
460000
460000
4AEC00
4A1A20
460730
460730
ENDCHAR
STARTCHAR i
ENCODING 105
SWIDTH 600 0
DWIDTH 5 0
BBX 4 6 0 0
BITMAP
0093
0000
4FF3
0073
0073
0073
ENDCHAR
STARTCHAR j
ENCODING 106
SWIDTH 600 0
DWIDTH 5 0
BBX 4 8 0 -2
BITMAP
0093
0000
4FF3
0073
0073
0073
1092
5EB0
ENDCHAR
STARTCHAR k
ENCODING 107
SWIDTH 600 0
DWIDTH 5 0
BBX 5 6 0 0
BITMAP
280000
280000
281910
29C100
2C4800
280740
ENDCHAR
STARTCHAR l
ENCODING 108
SWIDTH 600 0
DWIDTH 5 0
BBX 5 6 0 0
BITMAP
6F9000
009000
009000
009000
00B100
00BE20
ENDCHAR
STARTCHAR m
ENCODING 109
SWIDTH 600 0
DWIDTH 5 0
BBX 5 4 0 0
BITMAP
8CBE40
84B470
829370
829370
ENDCHAR
STARTCHAR n
ENCODING 110
SWIDTH 600 0
DWIDTH 5 0
BBX 5 4 0 0
BITMAP
4AEC00
4A1A20
460730
460730
ENDCHAR
STARTCHAR o
ENCODING 111
SWIDTH 600 0
DWIDTH 5 0
BBX 5 4 0 0
BITMAP
1BE900
661930
660930
1BE900
ENDCHAR
STARTCHAR p
ENCODING 112
SWIDTH 600 0
DWIDTH 5 0
BBX 5 6 0 -2
BITMAP
4BEB00
491840
491930
4CE900
460000
460000
ENDCHAR
STARTCHAR q
ENCODING 113
SWIDTH 600 0
DWIDTH 5 0
BBX 5 6 0 -2
BITMAP
1BEC10
661B10
761B10
1CEC10
000910
000910
ENDCHAR
STARTCHAR r
ENCODING 114
SWIDTH 600 0
DWIDTH 5 0
BBX 4 4 1 0
BITMAP
9AE3
C510
A000
A000
ENDCHAR
STARTCHAR s
ENCODING 115
SWIDTH 600 0
DWIDTH 5 0
BBX 5 4 0 0
BITMAP
1CE700
1A5400
244B20
1AFB10
ENDCHAR
STARTCHAR t
ENCODING 116
SWIDTH 600 0
DWIDTH 5 0
BBX 5 5 0 0
BITMAP
044000
6FFF30
054000
056000
02DE30
ENDCHAR
STARTCHAR u
ENCODING 117
SWIDTH 600 0
DWIDTH 5 0
BBX 5 4 0 0
BITMAP
640910
640910
672D10
2DDB10
ENDCHAR
STARTCHAR v
ENCODING 118
SWIDTH 600 0
DWIDTH 5 0
BBX 5 4 0 0
BITMAP
640630
190900
084600
02D100
ENDCHAR
STARTCHAR w
ENCODING 119
SWIDTH 600 0
DWIDTH 5 0
BBX 5 4 0 0
BITMAP
A09090
94C360
6A6930
3C1E00
ENDCHAR
STARTCHAR x
ENCODING 120
SWIDTH 600 0
DWIDTH 5 0
BBX 5 4 0 0
BITMAP
190900
05B200
06A300
280A10
ENDCHAR
STARTCHAR y
ENCODING 121
SWIDTH 600 0
DWIDTH 5 0
BBX 5 6 0 -2
BITMAP
640630
190900
093700
03D200
01A000
6D3000
ENDCHAR
STARTCHAR z
ENCODING 122
SWIDTH 600 0
DWIDTH 5 0
BBX 5 4 0 0
BITMAP
2FFF20
005500
073000
6FFF40
ENDCHAR
STARTCHAR braceleft
ENCODING 123
SWIDTH 600 0
DWIDTH 5 0
BBX 4 8 0 -2
BITMAP
00BF
0090
0180
1F60
0280
0080
00A0
00AF
ENDCHAR
STARTCHAR bar
ENCODING 124
SWIDTH 600 0
DWIDTH 5 0
BBX 1 8 2 -2
BITMAP
90
90
90
90
90
90
90
90
ENDCHAR
STARTCHAR braceright
ENCODING 125
SWIDTH 600 0
DWIDTH 5 0
BBX 4 8 0 -2
BITMAP
3F80
0090
0091
009D
0091
0080
0190
3F70
ENDCHAR
STARTCHAR asciitilde
ENCODING 126
SWIDTH 600 0
DWIDTH 5 0
BBX 5 1 0 2
BITMAP
2EFD10
ENDCHAR
STARTCHAR uni00A0
ENCODING 160
SWIDTH 600 0
DWIDTH 5 0
BBX 1 1 0 0
BITMAP
00
ENDCHAR
STARTCHAR exclamdown
ENCODING 161
SWIDTH 600 0
DWIDTH 5 0
BBX 2 6 1 -2
BITMAP
1C
00
07
08
09
09
ENDCHAR
STARTCHAR cent
ENCODING 162
SWIDTH 600 0
DWIDTH 5 0
BBX 4 7 0 -1
BITMAP
0060
05E9
0C72
1960
0C73
06E9
0060
ENDCHAR
STARTCHAR sterling
ENCODING 163
SWIDTH 600 0
DWIDTH 5 0
BBX 5 5 0 0
BITMAP
07EB00
0A1310
5FF800
071000
5FFF40
ENDCHAR
STARTCHAR currency
ENCODING 164
SWIDTH 600 0
DWIDTH 5 0
BBX 5 5 0 0
BITMAP
200110
2DEB10
2A1B00
2DEB10
200110
ENDCHAR
STARTCHAR yen
ENCODING 165
SWIDTH 600 0
DWIDTH 5 0
BBX 5 6 0 -1
BITMAP
460820
093700
3AE920
37C710
38D820
372710
ENDCHAR
STARTCHAR brokenbar
ENCODING 166
SWIDTH 600 0
DWIDTH 5 0
BBX 1 8 2 -2
BITMAP
90
90
90
50
50
90
90
90
ENDCHAR
STARTCHAR section
ENCODING 167
SWIDTH 600 0
DWIDTH 5 0
BBX 4 7 0 -1
BITMAP
07E5
0A12
1873
2709
0478
0338
0AE4
ENDCHAR
STARTCHAR dieresis
ENCODING 168
SWIDTH 600 0
DWIDTH 5 0
BBX 3 1 1 5
BITMAP
9270
ENDCHAR
STARTCHAR copyright
ENCODING 169
SWIDTH 600 0
DWIDTH 5 0
BBX 5 5 0 0
BITMAP
1BE900
742550
6CF560
743550
1BE900
ENDCHAR
STARTCHAR ordfeminine
ENCODING 170
SWIDTH 600 0
DWIDTH 5 0
BBX 3 3 1 3
BITMAP
4E50
7E80
7B30
ENDCHAR
STARTCHAR guillemotleft
ENCODING 171
SWIDTH 600 0
DWIDTH 5 0
BBX 4 3 0 1
BITMAP
0818
4673
0818
ENDCHAR
STARTCHAR logicalnot
ENCODING 172
SWIDTH 600 0
DWIDTH 5 0
BBX 5 3 0 0
BITMAP
5FFF20
000620
000310
ENDCHAR
STARTCHAR uni00AD
ENCODING 173
SWIDTH 600 0
DWIDTH 5 0
BBX 5 1 0 2
BITMAP
5FFF20
ENDCHAR
STARTCHAR registered
ENCODING 174
SWIDTH 600 0
DWIDTH 5 0
BBX 4 4 0 2
BITMAP
08A5
1887
1847
08E5
ENDCHAR
STARTCHAR macron
ENCODING 175
SWIDTH 600 0
DWIDTH 5 0
BBX 3 1 1 5
BITMAP
AF70
ENDCHAR
STARTCHAR degree
ENCODING 176
SWIDTH 600 0
DWIDTH 5 0
BBX 3 3 1 3
BITMAP
4E20
7350
4E20
ENDCHAR
STARTCHAR plusminus
ENCODING 177
SWIDTH 600 0
DWIDTH 5 0
BBX 5 5 0 0
BITMAP
008000
008000
5FFF20
000000
5FFF20
ENDCHAR
STARTCHAR two.sups
ENCODING 178
SWIDTH 600 0
DWIDTH 5 0
BBX 3 4 1 3
BITMAP
6E30
3440
2500
BF80
ENDCHAR
STARTCHAR three.sups
ENCODING 179
SWIDTH 600 0
DWIDTH 5 0
BBX 3 4 1 3
BITMAP
5E40
2F30
3370
6E40
ENDCHAR
STARTCHAR acute
ENCODING 180
SWIDTH 600 0
DWIDTH 5 0
BBX 2 2 2 4
BITMAP
54
80
ENDCHAR
STARTCHAR uni00B5
ENCODING 181
SWIDTH 600 0
DWIDTH 5 0
BBX 5 6 0 -2
BITMAP
550A00
550900
581C00
5DDA50
540000
550000
ENDCHAR
STARTCHAR paragraph
ENCODING 182
SWIDTH 600 0
DWIDTH 5 0
BBX 4 6 0 -1
BITMAP
1CCA
6FCA
3FCA
035A
000A
000A
ENDCHAR
STARTCHAR periodcentered
ENCODING 183
SWIDTH 600 0
DWIDTH 5 0
BBX 2 1 1 2
BITMAP
2C
ENDCHAR
STARTCHAR cedilla
ENCODING 184
SWIDTH 600 0
DWIDTH 5 0
BBX 2 4 1 -4
BITMAP
06
1C
0A
59
ENDCHAR
STARTCHAR one.sups
ENCODING 185
SWIDTH 600 0
DWIDTH 5 0
BBX 3 4 1 3
BITMAP
4C00
0800
0800
9FC0
ENDCHAR
STARTCHAR ordmasculine
ENCODING 186
SWIDTH 600 0
DWIDTH 5 0
BBX 3 3 1 3
BITMAP
7E40
A290
7E50
ENDCHAR
STARTCHAR guillemotright
ENCODING 187
SWIDTH 600 0
DWIDTH 5 0
BBX 5 3 0 1
BITMAP
182600
064920
172600
ENDCHAR
STARTCHAR onequarter
ENCODING 188
SWIDTH 600 0
DWIDTH 5 0
BBX 5 6 0 0
BITMAP
5A0000
080440
080600
000600
064520
628F90
ENDCHAR
STARTCHAR onehalf
ENCODING 189
SWIDTH 600 0
DWIDTH 5 0
BBX 5 6 0 0
BITMAP
5A0000
080440
080600
003E30
062410
626F80
ENDCHAR
STARTCHAR threequarters
ENCODING 190
SWIDTH 600 0
DWIDTH 5 0
BBX 5 6 0 0
BITMAP
6D0000
4E1260
6E2600
000600
065520
448F90
ENDCHAR
STARTCHAR questiondown
ENCODING 191
SWIDTH 600 0
DWIDTH 5 0
BBX 3 6 1 -2
BITMAP
0C00
0000
0900
6200
B140
9E60
ENDCHAR
STARTCHAR Agrave
ENCODING 192
SWIDTH 600 0
DWIDTH 5 0
BBX 5 7 0 0
BITMAP
036000
000000
02D000
076500
090900
3FFE10
930660
ENDCHAR
STARTCHAR Aacute
ENCODING 193
SWIDTH 600 0
DWIDTH 5 0
BBX 5 7 0 0
BITMAP
007200
000000
02D000
076500
090900
3FFE10
930660
ENDCHAR
STARTCHAR Acircumflex
ENCODING 194
SWIDTH 600 0
DWIDTH 5 0
BBX 5 7 0 0
BITMAP
057300
000000
02D000
076500
090900
3FFE10
930660
ENDCHAR
STARTCHAR Atilde
ENCODING 195
SWIDTH 600 0
DWIDTH 5 0
BBX 5 7 0 0
BITMAP
0B7700
07A800
02D000
076500
090900
3FFE10
930660
ENDCHAR
STARTCHAR Adieresis
ENCODING 196
SWIDTH 600 0
DWIDTH 5 0
BBX 5 7 0 0
BITMAP
083600
000000
02D000
076500
090900
3FFE10
930660
ENDCHAR
STARTCHAR Aring
ENCODING 197
SWIDTH 600 0
DWIDTH 5 0
BBX 5 8 0 0
BITMAP
02D000
056200
02D000
02D000
076500
090900
3FFE10
930660
ENDCHAR
STARTCHAR AE
ENCODING 198
SWIDTH 600 0
DWIDTH 5 0
BBX 5 5 0 0
BITMAP
02EFA0
089200
097F50
6FF200
B17FB0
ENDCHAR
STARTCHAR Ccedilla
ENCODING 199
SWIDTH 600 0
DWIDTH 5 0
BBX 5 9 0 -4
BITMAP
08EB10
4A1310
740000
4A1320
08EB10
006000
009400
004600
00C200
ENDCHAR
STARTCHAR Egrave
ENCODING 200
SWIDTH 600 0
DWIDTH 5 0
BBX 5 7 0 0
BITMAP
017000
000000
1FFF20
190000
1FFC00
190000
1FFF40
ENDCHAR
STARTCHAR Eacute
ENCODING 201
SWIDTH 600 0
DWIDTH 5 0
BBX 5 7 0 0
BITMAP
005400
000000
1FFF20
190000
1FFC00
190000
1FFF40
ENDCHAR
STARTCHAR Ecircumflex
ENCODING 202
SWIDTH 600 0
DWIDTH 5 0
BBX 5 7 0 0
BITMAP
037500
000000
1FFF20
190000
1FFC00
190000
1FFF40
ENDCHAR
STARTCHAR Edieresis
ENCODING 203
SWIDTH 600 0
DWIDTH 5 0
BBX 5 7 0 0
BITMAP
063900
000000
1FFF20
190000
1FFC00
190000
1FFF40
ENDCHAR
STARTCHAR Igrave
ENCODING 204
SWIDTH 600 0
DWIDTH 5 0
BBX 5 7 0 0
BITMAP
036000
000000
4FFF10
00A000
00A000
00A000
4FFF10
ENDCHAR
STARTCHAR Iacute
ENCODING 205
SWIDTH 600 0
DWIDTH 5 0
BBX 5 7 0 0
BITMAP
007200
000000
4FFF10
00A000
00A000
00A000
4FFF10
ENDCHAR
STARTCHAR Icircumflex
ENCODING 206
SWIDTH 600 0
DWIDTH 5 0
BBX 5 7 0 0
BITMAP
057300
000000
4FFF10
00A000
00A000
00A000
4FFF10
ENDCHAR
STARTCHAR Idieresis
ENCODING 207
SWIDTH 600 0
DWIDTH 5 0
BBX 5 7 0 0
BITMAP
083600
000000
4FFF10
00A000
00A000
00A000
4FFF10
ENDCHAR
STARTCHAR Eth
ENCODING 208
SWIDTH 600 0
DWIDTH 5 0
BBX 5 5 0 0
BITMAP
4FE800
451A40
DF8560
451A30
4FE800
ENDCHAR
STARTCHAR Ntilde
ENCODING 209
SWIDTH 600 0
DWIDTH 5 0
BBX 5 7 0 0
BITMAP
098700
079900
5A0820
5A3820
559720
546B20
540D20
ENDCHAR
STARTCHAR Ograve
ENCODING 210
SWIDTH 600 0
DWIDTH 5 0
BBX 5 7 0 0
BITMAP
036000
000000
1BE900
771A40
920560
771A30
1BE900
ENDCHAR
STARTCHAR Oacute
ENCODING 211
SWIDTH 600 0
DWIDTH 5 0
BBX 5 7 0 0
BITMAP
007200
000000
1BE900
771A40
920560
771A30
1BE900
ENDCHAR
STARTCHAR Ocircumflex
ENCODING 212
SWIDTH 600 0
DWIDTH 5 0
BBX 5 7 0 0
BITMAP
057300
000000
1BE900
771A40
920560
771A30
1BE900
ENDCHAR
STARTCHAR Otilde
ENCODING 213
SWIDTH 600 0
DWIDTH 5 0
BBX 5 7 0 0
BITMAP
0B7700
07A800
1BE900
771A40
920560
771A30
1BE900
ENDCHAR
STARTCHAR Odieresis
ENCODING 214
SWIDTH 600 0
DWIDTH 5 0
BBX 5 7 0 0
BITMAP
083600
000000
1BE900
771A40
920560
771A30
1BE900
ENDCHAR
STARTCHAR multiply
ENCODING 215
SWIDTH 600 0
DWIDTH 5 0
BBX 4 3 0 1
BITMAP
1928
03D1
1928
ENDCHAR
STARTCHAR Oslash
ENCODING 216
SWIDTH 600 0
DWIDTH 5 0
BBX 5 6 0 -1
BITMAP
1BEC30
773C40
938560
7B2A30
6BE900
100000
ENDCHAR
STARTCHAR Ugrave
ENCODING 217
SWIDTH 600 0
DWIDTH 5 0
BBX 5 7 0 0
BITMAP
036000
000000
640730
640730
650730
581B10
1BF900
ENDCHAR
STARTCHAR Uacute
ENCODING 218
SWIDTH 600 0
DWIDTH 5 0
BBX 5 7 0 0
BITMAP
007200
000000
640730
640730
650730
581B10
1BF900
ENDCHAR
STARTCHAR Ucircumflex
ENCODING 219
SWIDTH 600 0
DWIDTH 5 0
BBX 5 7 0 0
BITMAP
057300
000000
640730
640730
650730
581B10
1BF900
ENDCHAR
STARTCHAR Udieresis
ENCODING 220
SWIDTH 600 0
DWIDTH 5 0
BBX 5 7 0 0
BITMAP
083600
000000
640730
640730
650730
581B10
1BF900
ENDCHAR
STARTCHAR Yacute
ENCODING 221
SWIDTH 600 0
DWIDTH 5 0
BBX 5 7 0 0
BITMAP
007200
000000
640730
0A1900
05B200
00A000
00A000
ENDCHAR
STARTCHAR Thorn
ENCODING 222
SWIDTH 600 0
DWIDTH 5 0
BBX 5 5 0 0
BITMAP
3FFB00
370840
370840
3FFA00
370000
ENDCHAR
STARTCHAR germandbls
ENCODING 223
SWIDTH 600 0
DWIDTH 5 0
BBX 5 6 0 0
BITMAP
0BE500
482700
456000
459A10
452770
459E30
ENDCHAR
STARTCHAR agrave
ENCODING 224
SWIDTH 600 0
DWIDTH 5 0
BBX 5 6 0 0
BITMAP
054000
008000
09EA00
1BDF10
482A20
2DDB20
ENDCHAR
STARTCHAR aacute
ENCODING 225
SWIDTH 600 0
DWIDTH 5 0
BBX 5 6 0 0
BITMAP
003600
008000
09EA00
1BDF10
482A20
2DDB20
ENDCHAR
STARTCHAR acircumflex
ENCODING 226
SWIDTH 600 0
DWIDTH 5 0
BBX 5 6 0 0
BITMAP
047500
000000
09EA00
1BDF10
482A20
2DDB20
ENDCHAR
STARTCHAR atilde
ENCODING 227
SWIDTH 600 0
DWIDTH 5 0
BBX 5 7 0 0
BITMAP
010100
09A700
076900
09EA00
1BDF10
482A20
2DDB20
ENDCHAR
STARTCHAR adieresis
ENCODING 228
SWIDTH 600 0
DWIDTH 5 0
BBX 5 6 0 0
BITMAP
082900
000000
09EA00
1BDF10
482A20
2DDB20
ENDCHAR
STARTCHAR aring
ENCODING 229
SWIDTH 600 0
DWIDTH 5 0
BBX 5 7 0 0
BITMAP
01E300
045600
01E300
09EA00
1BDF10
482A20
2DDB20
ENDCHAR
STARTCHAR ae
ENCODING 230
SWIDTH 600 0
DWIDTH 5 0
BBX 5 4 0 0
BITMAP
6E8E60
6DFFB0
A3B110
9D8E60
ENDCHAR
STARTCHAR ccedilla
ENCODING 231
SWIDTH 600 0
DWIDTH 5 0
BBX 5 8 0 -4
BITMAP
08EB00
491310
491310
09EB00
006000
00A300
005600
00C200
ENDCHAR
STARTCHAR egrave
ENCODING 232
SWIDTH 600 0
DWIDTH 5 0
BBX 5 6 0 0
BITMAP
054000
008000
0AEB00
5FFF40
581300
0AEA00
ENDCHAR
STARTCHAR eacute
ENCODING 233
SWIDTH 600 0
DWIDTH 5 0
BBX 5 6 0 0
BITMAP
003600
008000
0AEB00
5FFF40
581300
0AEA00
ENDCHAR
STARTCHAR ecircumflex
ENCODING 234
SWIDTH 600 0
DWIDTH 5 0
BBX 5 6 0 0
BITMAP
047400
000000
0AEB00
5FFF40
581300
0AEA00
ENDCHAR
STARTCHAR edieresis
ENCODING 235
SWIDTH 600 0
DWIDTH 5 0
BBX 5 6 0 0
BITMAP
082800
000000
0AEB00
5FFF40
581300
0AEA00
ENDCHAR
STARTCHAR igrave
ENCODING 236
SWIDTH 600 0
DWIDTH 5 0
BBX 4 6 0 0
BITMAP
0270
0072
4FF3
0073
0073
0073
ENDCHAR
STARTCHAR iacute
ENCODING 237
SWIDTH 600 0
DWIDTH 5 0
BBX 4 6 0 0
BITMAP
0018
0072
4FF3
0073
0073
0073
ENDCHAR
STARTCHAR icircumflex
ENCODING 238
SWIDTH 600 0
DWIDTH 5 0
BBX 4 6 0 0
BITMAP
0277
0000
4FF3
0073
0073
0073
ENDCHAR
STARTCHAR idieresis
ENCODING 239
SWIDTH 600 0
DWIDTH 5 0
BBX 4 6 0 0
BITMAP
0459
0000
4FF3
0073
0073
0073
ENDCHAR
STARTCHAR eth
ENCODING 240
SWIDTH 600 0
DWIDTH 5 0
BBX 5 6 0 0
BITMAP
058800
067700
1BEC10
751A40
650830
1BE900
ENDCHAR
STARTCHAR ntilde
ENCODING 241
SWIDTH 600 0
DWIDTH 5 0
BBX 5 7 0 0
BITMAP
010100
09A700
077900
4AEC00
4A1A20
460730
460730
ENDCHAR
STARTCHAR ograve
ENCODING 242
SWIDTH 600 0
DWIDTH 5 0
BBX 5 6 0 0
BITMAP
072000
018000
1BE900
661930
660930
1BE900
ENDCHAR
STARTCHAR oacute
ENCODING 243
SWIDTH 600 0
DWIDTH 5 0
BBX 5 6 0 0
BITMAP
005400
008000
1BE900
661930
660930
1BE900
ENDCHAR
STARTCHAR ocircumflex
ENCODING 244
SWIDTH 600 0
DWIDTH 5 0
BBX 5 6 0 0
BITMAP
057300
000000
1BE900
661930
660930
1BE900
ENDCHAR
STARTCHAR otilde
ENCODING 245
SWIDTH 600 0
DWIDTH 5 0
BBX 5 7 0 0
BITMAP
010100
0B8700
079700
1BE900
661930
660930
1BE900
ENDCHAR
STARTCHAR odieresis
ENCODING 246
SWIDTH 600 0
DWIDTH 5 0
BBX 5 6 0 0
BITMAP
092700
000000
1BE900
661930
660930
1BE900
ENDCHAR
STARTCHAR divide
ENCODING 247
SWIDTH 600 0
DWIDTH 5 0
BBX 5 5 0 0
BITMAP
009000
000000
5FFF20
000000
009000
ENDCHAR
STARTCHAR oslash
ENCODING 248
SWIDTH 600 0
DWIDTH 5 0
BBX 5 4 0 0
BITMAP
1BEC10
677A30
695A30
4CE900
ENDCHAR
STARTCHAR ugrave
ENCODING 249
SWIDTH 600 0
DWIDTH 5 0
BBX 5 6 0 0
BITMAP
072000
018000
640910
640910
672D10
2DDB10
ENDCHAR
STARTCHAR uacute
ENCODING 250
SWIDTH 600 0
DWIDTH 5 0
BBX 5 6 0 0
BITMAP
005400
008000
640910
640910
672D10
2DDB10
ENDCHAR
STARTCHAR ucircumflex
ENCODING 251
SWIDTH 600 0
DWIDTH 5 0
BBX 5 6 0 0
BITMAP
057300
000000
640910
640910
672D10
2DDB10
ENDCHAR
STARTCHAR udieresis
ENCODING 252
SWIDTH 600 0
DWIDTH 5 0
BBX 5 6 0 0
BITMAP
093700
000000
640910
640910
672D10
2DDB10
ENDCHAR
STARTCHAR yacute
ENCODING 253
SWIDTH 600 0
DWIDTH 5 0
BBX 5 8 0 -2
BITMAP
004400
008000
640630
190900
093700
03D200
01A000
6D3000
ENDCHAR
STARTCHAR thorn
ENCODING 254
SWIDTH 600 0
DWIDTH 5 0
BBX 5 8 0 -2
BITMAP
460000
460000
4CEB00
491840
491930
4CE900
460000
460000
ENDCHAR
STARTCHAR ydieresis
ENCODING 255
SWIDTH 600 0
DWIDTH 5 0
BBX 5 8 0 -2
BITMAP
092700
000000
640630
190900
093700
03D200
01A000
6D3000
ENDCHAR
STARTCHAR Amacron
ENCODING 256
SWIDTH 600 0
DWIDTH 5 0
BBX 5 7 0 0
BITMAP
0AF700
000000
02D000
076500
090900
3FFE10
930660
ENDCHAR
STARTCHAR amacron
ENCODING 257
SWIDTH 600 0
DWIDTH 5 0
BBX 5 6 0 0
BITMAP
08F900
000000
09EA00
1BDF10
482A20
2DDB20
ENDCHAR
STARTCHAR Abreve
ENCODING 258
SWIDTH 600 0
DWIDTH 5 0
BBX 5 7 0 0
BITMAP
081700
05E300
02D000
076500
090900
3FFE10
930660
ENDCHAR
STARTCHAR abreve
ENCODING 259
SWIDTH 600 0
DWIDTH 5 0
BBX 5 6 0 0
BITMAP
081800
04E500
09EA00
1BDF10
482A20
2DDB20
ENDCHAR
STARTCHAR Aogonek
ENCODING 260
SWIDTH 600 0
DWIDTH 5 0
BBX 5 7 0 -2
BITMAP
02D000
076500
090900
3FFE10
930660
000620
0008A0
ENDCHAR
STARTCHAR aogonek
ENCODING 261
SWIDTH 600 0
DWIDTH 5 0
BBX 5 6 0 -2
BITMAP
09EA00
1BDF10
482A20
2DEC20
000600
001E30
ENDCHAR
STARTCHAR Cacute
ENCODING 262
SWIDTH 600 0
DWIDTH 5 0
BBX 5 7 0 0
BITMAP
004500
000000
08EB10
4A1310
740000
4A1320
08EB10
ENDCHAR
STARTCHAR cacute
ENCODING 263
SWIDTH 600 0
DWIDTH 5 0
BBX 5 6 0 0
BITMAP
001800
007200
08EB00
491310
491310
09EB00
ENDCHAR
STARTCHAR Ccircumflex
ENCODING 264
SWIDTH 600 0
DWIDTH 5 0
BBX 5 7 0 0
BITMAP
027600
000000
08EB10
4A1310
740000
4A1320
08EB10
ENDCHAR
STARTCHAR ccircumflex
ENCODING 265
SWIDTH 600 0
DWIDTH 5 0
BBX 5 6 0 0
BITMAP
027600
000000
08EB00
491310
491310
09EB00
ENDCHAR
STARTCHAR Cdotaccent
ENCODING 266
SWIDTH 600 0
DWIDTH 5 0
BBX 5 7 0 0
BITMAP
008200
000000
08EB10
4A1310
740000
4A1320
08EB10
ENDCHAR
STARTCHAR cdotaccent
ENCODING 267
SWIDTH 600 0
DWIDTH 5 0
BBX 5 6 0 0
BITMAP
009200
000000
08EB00
491310
491310
09EB00
ENDCHAR
STARTCHAR Ccaron
ENCODING 268
SWIDTH 600 0
DWIDTH 5 0
BBX 5 7 0 0
BITMAP
027600
000000
08EB10
4A1310
740000
4A1320
08EB10
ENDCHAR
STARTCHAR ccaron
ENCODING 269
SWIDTH 600 0
DWIDTH 5 0
BBX 5 6 0 0
BITMAP
027600
000000
08EB00
491310
491310
09EB00
ENDCHAR
STARTCHAR Dcaron
ENCODING 270
SWIDTH 600 0
DWIDTH 5 0
BBX 5 7 0 0
BITMAP
057300
000000
4FE800
451A40
450560
451A30
4FE800
ENDCHAR
STARTCHAR dcaron
ENCODING 271
SWIDTH 600 0
DWIDTH 5 0
BBX 5 6 0 0
BITMAP
000990
000980
1CDB00
752B00
742B00
2DDA00
ENDCHAR
STARTCHAR Dcroat
ENCODING 272
SWIDTH 600 0
DWIDTH 5 0
BBX 5 5 0 0
BITMAP
4FE800
451A40
DF8560
451A30
4FE800
ENDCHAR
STARTCHAR dcroat
ENCODING 273
SWIDTH 600 0
DWIDTH 5 0
BBX 5 6 0 0
BITMAP
000910
00FF90
000910
2CED10
761B10
3DEC10
ENDCHAR
STARTCHAR Emacron
ENCODING 274
SWIDTH 600 0
DWIDTH 5 0
BBX 5 7 0 0
BITMAP
06FB00
000000
1FFF20
190000
1FFC00
190000
1FFF40
ENDCHAR
STARTCHAR emacron
ENCODING 275
SWIDTH 600 0
DWIDTH 5 0
BBX 5 6 0 0
BITMAP
08F900
000000
0AEB00
5FFF40
581300
0AEA00
ENDCHAR
STARTCHAR Ebreve
ENCODING 276
SWIDTH 600 0
DWIDTH 5 0
BBX 5 7 0 0
BITMAP
062800
02E600
1FFF20
190000
1FFC00
190000
1FFF40
ENDCHAR
STARTCHAR ebreve
ENCODING 277
SWIDTH 600 0
DWIDTH 5 0
BBX 5 6 0 0
BITMAP
081800
04E500
0AEB00
5FFF40
581300
0AEA00
ENDCHAR
STARTCHAR Edotaccent
ENCODING 278
SWIDTH 600 0
DWIDTH 5 0
BBX 5 7 0 0
BITMAP
00A100
000000
1FFF20
190000
1FFC00
190000
1FFF40
ENDCHAR
STARTCHAR edotaccent
ENCODING 279
SWIDTH 600 0
DWIDTH 5 0
BBX 5 6 0 0
BITMAP
00B000
000000
0AEB00
5FFF40
581300
0AEA00
ENDCHAR
STARTCHAR Eogonek
ENCODING 280
SWIDTH 600 0
DWIDTH 5 0
BBX 5 7 0 -2
BITMAP
1FFF20
190000
1FFC00
190000
1FFF40
000600
001D40
ENDCHAR
STARTCHAR eogonek
ENCODING 281
SWIDTH 600 0
DWIDTH 5 0
BBX 5 6 0 -2
BITMAP
0AEB00
5FFF40
581300
0AF900
004200
004D00
ENDCHAR
STARTCHAR Ecaron
ENCODING 282
SWIDTH 600 0
DWIDTH 5 0
BBX 5 7 0 0
BITMAP
037500
000000
1FFF20
190000
1FFC00
190000
1FFF40
ENDCHAR
STARTCHAR ecaron
ENCODING 283
SWIDTH 600 0
DWIDTH 5 0
BBX 5 6 0 0
BITMAP
047400
000000
0AEB00
5FFF40
581300
0AEA00
ENDCHAR
STARTCHAR Gcircumflex
ENCODING 284
SWIDTH 600 0
DWIDTH 5 0
BBX 5 7 0 0
BITMAP
037500
000000
09EA00
681400
836F40
681640
09EC20
ENDCHAR
STARTCHAR gcircumflex
ENCODING 285
SWIDTH 600 0
DWIDTH 5 0
BBX 5 8 0 -2
BITMAP
057400
000000
0BFF80
2A3A00
0CC600
1EFE40
450670
3DEB10
ENDCHAR
STARTCHAR Gbreve
ENCODING 286
SWIDTH 600 0
DWIDTH 5 0
BBX 5 7 0 0
BITMAP
062800
02E500
09EA00
681400
836F40
681640
09EC20
ENDCHAR
STARTCHAR gbreve
ENCODING 287
SWIDTH 600 0
DWIDTH 5 0
BBX 5 8 0 -2
BITMAP
081800
05E400
0BFF80
2A3A00
0CC600
1EFE40
450670
3DEB10
ENDCHAR
STARTCHAR Gdotaccent
ENCODING 288
SWIDTH 600 0
DWIDTH 5 0
BBX 5 7 0 0
BITMAP
00A000
000000
09EA00
681400
836F40
681640
09EC20
ENDCHAR
STARTCHAR gdotaccent
ENCODING 289
SWIDTH 600 0
DWIDTH 5 0
BBX 5 8 0 -2
BITMAP
00B000
000000
0BFF80
2A3A00
0CC600
1EFE40
450670
3DEB10
ENDCHAR
STARTCHAR uni0122
ENCODING 290
SWIDTH 600 0
DWIDTH 5 0
BBX 5 7 0 -2
BITMAP
09EA00
681400
836F40
681640
09EC20
00A200
01D100
ENDCHAR
STARTCHAR uni0123
ENCODING 291
SWIDTH 600 0
DWIDTH 5 0
BBX 5 8 0 -2
BITMAP
01C300
01B000
0BFF80
2A3A00
0CC600
1EFE40
450670
3DEB10
ENDCHAR
STARTCHAR Hcircumflex
ENCODING 292
SWIDTH 600 0
DWIDTH 5 0
BBX 5 7 0 0
BITMAP
057300
000000
640830
640830
6FFF30
640830
640830
ENDCHAR
STARTCHAR hcircumflex
ENCODING 293
SWIDTH 600 0
DWIDTH 5 0
BBX 5 7 0 0
BITMAP
771000
460000
460000
4AEC00
4A1A20
460730
460730
ENDCHAR
STARTCHAR Hbar
ENCODING 294
SWIDTH 600 0
DWIDTH 5 0
BBX 5 5 0 0
BITMAP
DFFFB0
640830
6FFF30
640830
640830
ENDCHAR
STARTCHAR hbar
ENCODING 295
SWIDTH 600 0
DWIDTH 5 0
BBX 5 6 0 0
BITMAP
460000
CFF200
460000
4AED10
480930
460730
ENDCHAR
STARTCHAR Itilde
ENCODING 296
SWIDTH 600 0
DWIDTH 5 0
BBX 5 7 0 0
BITMAP
0B7700
07A800
4FFF10
00A000
00A000
00A000
4FFF10
ENDCHAR
STARTCHAR itilde
ENCODING 297
SWIDTH 600 0
DWIDTH 5 0
BBX 5 7 0 0
BITMAP
001100
06C620
073C00
4FF300
007300
007300
007300
ENDCHAR
STARTCHAR Imacron
ENCODING 298
SWIDTH 600 0
DWIDTH 5 0
BBX 5 7 0 0
BITMAP
0AF700
000000
4FFF10
00A000
00A000
00A000
4FFF10
ENDCHAR
STARTCHAR imacron
ENCODING 299
SWIDTH 600 0
DWIDTH 5 0
BBX 4 6 0 0
BITMAP
04FD
0000
4FF3
0073
0073
0073
ENDCHAR
STARTCHAR Ibreve
ENCODING 300
SWIDTH 600 0
DWIDTH 5 0
BBX 5 7 0 0
BITMAP
081700
05E300
4FFF10
00A000
00A000
00A000
4FFF10
ENDCHAR
STARTCHAR ibreve
ENCODING 301
SWIDTH 600 0
DWIDTH 5 0
BBX 4 6 0 0
BITMAP
0638
01D8
4FF3
0073
0073
0073
ENDCHAR
STARTCHAR Iogonek
ENCODING 302
SWIDTH 600 0
DWIDTH 5 0
BBX 5 7 0 -2
BITMAP
4FFF10
00A000
00A000
00A000
4FFF10
025000
03E100
ENDCHAR
STARTCHAR iogonek
ENCODING 303
SWIDTH 600 0
DWIDTH 5 0
BBX 4 8 0 -2
BITMAP
0093
0000
4FF3
0073
0073
0073
0061
00C6
ENDCHAR
STARTCHAR Idotaccent
ENCODING 304
SWIDTH 600 0
DWIDTH 5 0
BBX 5 7 0 0
BITMAP
00A000
000000
4FFF10
00A000
00A000
00A000
4FFF10
ENDCHAR
STARTCHAR dotlessi
ENCODING 305
SWIDTH 600 0
DWIDTH 5 0
BBX 4 4 0 0
BITMAP
4FF3
0073
0073
0073
ENDCHAR
STARTCHAR IJ
ENCODING 306
SWIDTH 600 0
DWIDTH 5 0
BBX 4 7 0 -2
BITMAP
280A
280A
280A
280A
280A
000B
00A9
ENDCHAR
STARTCHAR ij
ENCODING 307
SWIDTH 600 0
DWIDTH 5 0
BBX 5 8 0 -2
BITMAP
280910
000000
280900
280900
280900
280900
000A00
008B00
ENDCHAR
STARTCHAR Jcircumflex
ENCODING 308
SWIDTH 600 0
DWIDTH 5 0
BBX 4 7 0 0
BITMAP
0375
0000
0EFE
000A
000A
251B
0AE7
ENDCHAR
STARTCHAR jcircumflex
ENCODING 309
SWIDTH 600 0
DWIDTH 5 0
BBX 4 8 0 -2
BITMAP
0277
0000
4FF3
0073
0073
0073
1092
5EB0
ENDCHAR
STARTCHAR uni0136
ENCODING 310
SWIDTH 600 0
DWIDTH 5 0
BBX 5 7 0 -2
BITMAP
370920
379300
3DB200
381A00
370650
009200
00D200
ENDCHAR
STARTCHAR uni0137
ENCODING 311
SWIDTH 600 0
DWIDTH 5 0
BBX 5 8 0 -2
BITMAP
280000
280000
281910
29C100
2C4800
280740
00A200
01D200
ENDCHAR
STARTCHAR kgreenlandic
ENCODING 312
SWIDTH 600 0
DWIDTH 5 0
BBX 5 4 0 0
BITMAP
281910
28B100
2D5700
280740
ENDCHAR
STARTCHAR Lacute
ENCODING 313
SWIDTH 600 0
DWIDTH 5 0
BBX 4 7 1 0
BITMAP
6300
0000
A000
A000
A000
A000
EFF5
ENDCHAR
STARTCHAR lacute
ENCODING 314
SWIDTH 600 0
DWIDTH 5 0
BBX 5 7 0 0
BITMAP
017100
6F9000
009000
009000
009000
00B100
00BE20
ENDCHAR
STARTCHAR uni013B
ENCODING 315
SWIDTH 600 0
DWIDTH 5 0
BBX 4 7 1 -2
BITMAP
A000
A000
A000
A000
EFF5
0840
0D30
ENDCHAR
STARTCHAR uni013C
ENCODING 316
SWIDTH 600 0
DWIDTH 5 0
BBX 5 8 0 -2
BITMAP
6F9000
009000
009000
009000
00B100
00BE20
004800
009700
ENDCHAR
STARTCHAR Lcaron
ENCODING 317
SWIDTH 600 0
DWIDTH 5 0
BBX 4 6 1 0
BITMAP
0090
A070
A000
A000
A000
EFF5
ENDCHAR
STARTCHAR lcaron
ENCODING 318
SWIDTH 600 0
DWIDTH 5 0
BBX 5 6 0 0
BITMAP
6F9900
009700
009000
009000
00B100
00BE20
ENDCHAR
STARTCHAR Ldot
ENCODING 319
SWIDTH 600 0
DWIDTH 5 0
BBX 4 5 1 0
BITMAP
A000
A092
A000
A000
EFF5
ENDCHAR
STARTCHAR ldot
ENCODING 320
SWIDTH 600 0
DWIDTH 5 0
BBX 5 6 0 0
BITMAP
BF5000
055000
0550B0
055000
057100
02DC00
ENDCHAR
STARTCHAR Lslash
ENCODING 321
SWIDTH 600 0
DWIDTH 5 0
BBX 5 5 0 0
BITMAP
0A0000
0A3400
1C4000
5A0000
0EFF50
ENDCHAR
STARTCHAR lslash
ENCODING 322
SWIDTH 600 0
DWIDTH 5 0
BBX 5 6 0 0
BITMAP
6F9000
00A500
01C200
089000
00B100
00BE20
ENDCHAR
STARTCHAR Nacute
ENCODING 323
SWIDTH 600 0
DWIDTH 5 0
BBX 5 7 0 0
BITMAP
006200
000000
5A0820
5A3820
559720
546B20
540D20
ENDCHAR
STARTCHAR nacute
ENCODING 324
SWIDTH 600 0
DWIDTH 5 0
BBX 5 6 0 0
BITMAP
003600
008000
4AEC00
4A1A20
460730
460730
ENDCHAR
STARTCHAR uni0145
ENCODING 325
SWIDTH 600 0
DWIDTH 5 0
BBX 5 7 0 -2
BITMAP
5A0820
5A3820
559720
546B20
540D20
00C000
05B000
ENDCHAR
STARTCHAR uni0146
ENCODING 326
SWIDTH 600 0
DWIDTH 5 0
BBX 5 6 0 -2
BITMAP
4AEC00
4A1A20
460730
460730
00B100
03C100
ENDCHAR
STARTCHAR Ncaron
ENCODING 327
SWIDTH 600 0
DWIDTH 5 0
BBX 5 7 0 0
BITMAP
047400
000000
5A0820
5A3820
559720
546B20
540D20
ENDCHAR
STARTCHAR ncaron
ENCODING 328
SWIDTH 600 0
DWIDTH 5 0
BBX 5 6 0 0
BITMAP
047500
000000
4AEC00
4A1A20
460730
460730
ENDCHAR
STARTCHAR napostrophe
ENCODING 329
SWIDTH 600 0
DWIDTH 5 0
BBX 6 5 -1 0
BITMAP
0D1000
087AE7
13782B
00730A
00730A
ENDCHAR
STARTCHAR Eng
ENCODING 330
SWIDTH 600 0
DWIDTH 5 0
BBX 5 5 0 0
BITMAP
5BEB00
591940
550550
550740
557C10
ENDCHAR
STARTCHAR eng
ENCODING 331
SWIDTH 600 0
DWIDTH 5 0
BBX 5 6 0 -2
BITMAP
4AEC00
4A1A20
460730
460730
000830
006D10
ENDCHAR
STARTCHAR Omacron
ENCODING 332
SWIDTH 600 0
DWIDTH 5 0
BBX 5 7 0 0
BITMAP
0AF700
000000
1BE900
771A40
920560
771A30
1BE900
ENDCHAR
STARTCHAR omacron
ENCODING 333
SWIDTH 600 0
DWIDTH 5 0
BBX 5 6 0 0
BITMAP
0AF700
000000
1BE900
661930
660930
1BE900
ENDCHAR
STARTCHAR Obreve
ENCODING 334
SWIDTH 600 0
DWIDTH 5 0
BBX 5 7 0 0
BITMAP
081700
05E300
1BE900
771A40
920560
771A30
1BE900
ENDCHAR
STARTCHAR obreve
ENCODING 335
SWIDTH 600 0
DWIDTH 5 0
BBX 5 6 0 0
BITMAP
081700
06E300
1BE900
661930
660930
1BE900
ENDCHAR
STARTCHAR Ohungarumlaut
ENCODING 336
SWIDTH 600 0
DWIDTH 5 0
BBX 5 7 0 0
BITMAP
035600
000000
1BE900
771A40
920560
771A30
1BE900
ENDCHAR
STARTCHAR ohungarumlaut
ENCODING 337
SWIDTH 600 0
DWIDTH 5 0
BBX 5 6 0 0
BITMAP
007700
044600
1BE900
661930
660930
1BE900
ENDCHAR
STARTCHAR OE
ENCODING 338
SWIDTH 600 0
DWIDTH 5 0
BBX 5 5 0 0
BITMAP
2CFFA0
958100
A08F40
858100
2CFFB0
ENDCHAR
STARTCHAR oe
ENCODING 339
SWIDTH 600 0
DWIDTH 5 0
BBX 5 4 0 0
BITMAP
6E7D60
B1DFB0
B1C110
6E7E60
ENDCHAR
STARTCHAR Racute
ENCODING 340
SWIDTH 600 0
DWIDTH 5 0
BBX 5 7 0 0
BITMAP
007200
000000
3FFB10
370930
3FFA00
374700
370920
ENDCHAR
STARTCHAR racute
ENCODING 341
SWIDTH 600 0
DWIDTH 5 0
BBX 4 6 1 0
BITMAP
0180
0720
9AE3
C510
A000
A000
ENDCHAR
STARTCHAR uni0156
ENCODING 342
SWIDTH 600 0
DWIDTH 5 0
BBX 5 7 0 -2
BITMAP
3FFB10
370930
3FFA00
374700
370920
00B100
03C100
ENDCHAR
STARTCHAR uni0157
ENCODING 343
SWIDTH 600 0
DWIDTH 5 0
BBX 5 6 0 -2
BITMAP
09AE30
0C5100
0A0000
0A0000
0B1000
2D1000
ENDCHAR
STARTCHAR Rcaron
ENCODING 344
SWIDTH 600 0
DWIDTH 5 0
BBX 5 7 0 0
BITMAP
057300
000000
3FFB10
370930
3FFA00
374700
370920
ENDCHAR
STARTCHAR rcaron
ENCODING 345
SWIDTH 600 0
DWIDTH 5 0
BBX 4 6 1 0
BITMAP
2760
0000
9AE3
C510
A000
A000
ENDCHAR
STARTCHAR Sacute
ENCODING 346
SWIDTH 600 0
DWIDTH 5 0
BBX 5 7 0 0
BITMAP
006300
000000
0BE800
2A1400
05A700
341930
1AEB10
ENDCHAR
STARTCHAR sacute
ENCODING 347
SWIDTH 600 0
DWIDTH 5 0
BBX 5 6 0 0
BITMAP
004400
008000
1CE700
1A5400
244B20
1AFB10
ENDCHAR
STARTCHAR Scircumflex
ENCODING 348
SWIDTH 600 0
DWIDTH 5 0
BBX 5 7 0 0
BITMAP
047400
000000
0BE800
2A1400
05A700
341930
1AEB10
ENDCHAR
STARTCHAR scircumflex
ENCODING 349
SWIDTH 600 0
DWIDTH 5 0
BBX 5 6 0 0
BITMAP
057400
000000
1CE700
1A5400
244B20
1AFB10
ENDCHAR
STARTCHAR uni015E
ENCODING 350
SWIDTH 600 0
DWIDTH 5 0
BBX 5 9 0 -4
BITMAP
0BE800
2A1400
05A700
341930
1AEB10
006000
00C100
008200
03B000
ENDCHAR
STARTCHAR uni015F
ENCODING 351
SWIDTH 600 0
DWIDTH 5 0
BBX 5 8 0 -4
BITMAP
1CE700
1A5400
244B20
1AFB10
006000
00C100
008200
03A000
ENDCHAR
STARTCHAR Scaron
ENCODING 352
SWIDTH 600 0
DWIDTH 5 0
BBX 5 7 0 0
BITMAP
047400
000000
0BE800
2A1400
05A700
341930
1AEB10
ENDCHAR
STARTCHAR scaron
ENCODING 353
SWIDTH 600 0
DWIDTH 5 0
BBX 5 6 0 0
BITMAP
057400
000000
1CE700
1A5400
244B20
1AFB10
ENDCHAR
STARTCHAR uni0162
ENCODING 354
SWIDTH 600 0
DWIDTH 5 0
BBX 5 9 0 -4
BITMAP
AFFF70
00A000
00A000
00A000
00A000
006000
01C000
00A000
059000
ENDCHAR
STARTCHAR uni0163
ENCODING 355
SWIDTH 600 0
DWIDTH 5 0
BBX 5 9 0 -4
BITMAP
044000
6FFF30
054000
056000
02DE30
002400
005800
001900
008500
ENDCHAR
STARTCHAR Tcaron
ENCODING 356
SWIDTH 600 0
DWIDTH 5 0
BBX 5 7 0 0
BITMAP
057300
000000
AFFF70
00A000
00A000
00A000
00A000
ENDCHAR
STARTCHAR tcaron
ENCODING 357
SWIDTH 600 0
DWIDTH 5 0
BBX 5 6 0 0
BITMAP
000900
044700
6FFF30
054000
056000
02DE30
ENDCHAR
STARTCHAR Tbar
ENCODING 358
SWIDTH 600 0
DWIDTH 5 0
BBX 5 5 0 0
BITMAP
AFFF70
00A000
1FFD00
00A000
00A000
ENDCHAR
STARTCHAR tbar
ENCODING 359
SWIDTH 600 0
DWIDTH 5 0
BBX 5 6 0 0
BITMAP
011000
044000
6FFF30
6FFF10
056000
01DE30
ENDCHAR
STARTCHAR Utilde
ENCODING 360
SWIDTH 600 0
DWIDTH 5 0
BBX 5 7 0 0
BITMAP
0B7700
07A800
640730
640730
650730
581B10
1BF900
ENDCHAR
STARTCHAR utilde
ENCODING 361
SWIDTH 600 0
DWIDTH 5 0
BBX 5 7 0 0
BITMAP
010100
0B7700
079700
640910
640910
672D10
2DDB10
ENDCHAR
STARTCHAR Umacron
ENCODING 362
SWIDTH 600 0
DWIDTH 5 0
BBX 5 7 0 0
BITMAP
0AF700
000000
640730
640730
650730
581B10
1BF900
ENDCHAR
STARTCHAR umacron
ENCODING 363
SWIDTH 600 0
DWIDTH 5 0
BBX 5 6 0 0
BITMAP
0AF700
000000
640910
640910
672D10
2DDB10
ENDCHAR
STARTCHAR Ubreve
ENCODING 364
SWIDTH 600 0
DWIDTH 5 0
BBX 5 7 0 0
BITMAP
081700
05E300
640730
640730
650730
581B10
1BF900
ENDCHAR
STARTCHAR ubreve
ENCODING 365
SWIDTH 600 0
DWIDTH 5 0
BBX 5 6 0 0
BITMAP
082700
06E300
640910
640910
672D10
2DDB10
ENDCHAR
STARTCHAR Uring
ENCODING 366
SWIDTH 600 0
DWIDTH 5 0
BBX 5 8 0 0
BITMAP
02D000
056200
02D000
640730
640730
650730
581B10
1BF900
ENDCHAR
STARTCHAR uring
ENCODING 367
SWIDTH 600 0
DWIDTH 5 0
BBX 5 7 0 0
BITMAP
04D100
075300
04D100
640910
640910
672D10
2DDB10
ENDCHAR
STARTCHAR Uhungarumlaut
ENCODING 368
SWIDTH 600 0
DWIDTH 5 0
BBX 5 7 0 0
BITMAP
035600
000000
640730
640730
650730
581B10
1BF900
ENDCHAR
STARTCHAR uhungarumlaut
ENCODING 369
SWIDTH 600 0
DWIDTH 5 0
BBX 5 6 0 0
BITMAP
007700
044500
640910
640910
672D10
2DDB10
ENDCHAR
STARTCHAR Uogonek
ENCODING 370
SWIDTH 600 0
DWIDTH 5 0
BBX 5 7 0 -2
BITMAP
640730
640730
650730
581B20
1BF900
026000
02E200
ENDCHAR
STARTCHAR uogonek
ENCODING 371
SWIDTH 600 0
DWIDTH 5 0
BBX 5 6 0 -2
BITMAP
640910
640910
672D10
2DDB10
001600
002E20
ENDCHAR
STARTCHAR Wcircumflex
ENCODING 372
SWIDTH 600 0
DWIDTH 5 0
BBX 5 7 0 0
BITMAP
057300
000000
B001A0
A19370
86C650
5B5B30
3C0E10
ENDCHAR
STARTCHAR wcircumflex
ENCODING 373
SWIDTH 600 0
DWIDTH 5 0
BBX 5 6 0 0
BITMAP
057300
000000
A09090
94C360
6A6930
3C1E00
ENDCHAR
STARTCHAR Ycircumflex
ENCODING 374
SWIDTH 600 0
DWIDTH 5 0
BBX 5 7 0 0
BITMAP
057300
000000
640730
0A1900
05B200
00A000
00A000
ENDCHAR
STARTCHAR ycircumflex
ENCODING 375
SWIDTH 600 0
DWIDTH 5 0
BBX 5 8 0 -2
BITMAP
057400
000000
640630
190900
093700
03D200
01A000
6D3000
ENDCHAR
STARTCHAR Ydieresis
ENCODING 376
SWIDTH 600 0
DWIDTH 5 0
BBX 5 7 0 0
BITMAP
083600
000000
640730
0A1900
05B200
00A000
00A000
ENDCHAR
STARTCHAR Zacute
ENCODING 377
SWIDTH 600 0
DWIDTH 5 0
BBX 5 7 0 0
BITMAP
006300
000000
3FFF40
002800
018000
191000
7FFF50
ENDCHAR
STARTCHAR zacute
ENCODING 378
SWIDTH 600 0
DWIDTH 5 0
BBX 5 6 0 0
BITMAP
003600
008100
2FFF20
005500
073000
6FFF40
ENDCHAR
STARTCHAR Zdotaccent
ENCODING 379
SWIDTH 600 0
DWIDTH 5 0
BBX 5 7 0 0
BITMAP
00A000
000000
3FFF40
002800
018000
191000
7FFF50
ENDCHAR
STARTCHAR zdotaccent
ENCODING 380
SWIDTH 600 0
DWIDTH 5 0
BBX 5 6 0 0
BITMAP
00B000
000000
2FFF20
005500
073000
6FFF40
ENDCHAR
STARTCHAR Zcaron
ENCODING 381
SWIDTH 600 0
DWIDTH 5 0
BBX 5 7 0 0
BITMAP
047400
000000
3FFF40
002800
018000
191000
7FFF50
ENDCHAR
STARTCHAR zcaron
ENCODING 382
SWIDTH 600 0
DWIDTH 5 0
BBX 5 6 0 0
BITMAP
047500
000000
2FFF20
005500
073000
6FFF40
ENDCHAR
STARTCHAR longs
ENCODING 383
SWIDTH 600 0
DWIDTH 5 0
BBX 5 6 0 0
BITMAP
009E70
01B010
2F9000
019000
019000
019000
ENDCHAR
STARTCHAR uni0180
ENCODING 384
SWIDTH 600 0
DWIDTH 5 0
BBX 5 6 0 0
BITMAP
460000
CFF200
460000
4CEC10
4B1940
4CEB10
ENDCHAR
STARTCHAR uni018A
ENCODING 394
SWIDTH 600 0
DWIDTH 5 0
BBX 5 5 0 0
BITMAP
2CE900
976850
955370
475850
05FA00
ENDCHAR
STARTCHAR uni018F
ENCODING 399
SWIDTH 600 0
DWIDTH 5 0
BBX 5 5 0 0
BITMAP
08E900
041830
7FFF60
561830
0AE900
ENDCHAR
STARTCHAR uni0192
ENCODING 402
SWIDTH 600 0
DWIDTH 5 0
BBX 5 6 0 -1
BITMAP
009E30
0CFD00
009000
028000
066000
8D1000
ENDCHAR
STARTCHAR uni0193
ENCODING 403
SWIDTH 600 0
DWIDTH 5 0
BBX 5 7 0 0
BITMAP
000690
000910
09EE10
681410
836F40
681640
09EC20
ENDCHAR
STARTCHAR Ohorn
ENCODING 416
SWIDTH 600 0
DWIDTH 5 0
BBX 5 6 0 0
BITMAP
000260
1BEC30
771920
920560
771A40
1BE900
ENDCHAR
STARTCHAR ohorn
ENCODING 417
SWIDTH 600 0
DWIDTH 5 0
BBX 5 5 0 0
BITMAP
000260
1BED20
661920
660940
1BEA00
ENDCHAR
STARTCHAR Uhorn
ENCODING 431
SWIDTH 600 0
DWIDTH 5 0
BBX 5 6 0 0
BITMAP
000090
6407B0
640730
650730
581B20
1BFA00
ENDCHAR
STARTCHAR uhorn
ENCODING 432
SWIDTH 600 0
DWIDTH 5 0
BBX 5 5 0 0
BITMAP
000090
640980
640910
672D10
2DDB10
ENDCHAR
STARTCHAR uni01C2
ENCODING 450
SWIDTH 600 0
DWIDTH 5 0
BBX 5 8 0 -2
BITMAP
00A000
00A000
00A000
5FFF20
00A000
5FFF20
00A000
00A000
ENDCHAR
STARTCHAR uni01CD
ENCODING 461
SWIDTH 600 0
DWIDTH 5 0
BBX 5 7 0 0
BITMAP
057300
000000
02D000
076500
090900
3FFE10
930660
ENDCHAR
STARTCHAR uni01CE
ENCODING 462
SWIDTH 600 0
DWIDTH 5 0
BBX 5 6 0 0
BITMAP
047500
000000
09EA00
1BDF10
482A20
2DDB20
ENDCHAR
STARTCHAR uni01CF
ENCODING 463
SWIDTH 600 0
DWIDTH 5 0
BBX 5 7 0 0
BITMAP
057300
000000
4FFF10
00A000
00A000
00A000
4FFF10
ENDCHAR
STARTCHAR uni01D0
ENCODING 464
SWIDTH 600 0
DWIDTH 5 0
BBX 4 6 0 0
BITMAP
0277
0000
4FF3
0073
0073
0073
ENDCHAR
STARTCHAR uni01D1
ENCODING 465
SWIDTH 600 0
DWIDTH 5 0
BBX 5 7 0 0
BITMAP
057300
000000
1BE900
771A40
920560
771A30
1BE900
ENDCHAR
STARTCHAR uni01D2
ENCODING 466
SWIDTH 600 0
DWIDTH 5 0
BBX 5 6 0 0
BITMAP
057300
000000
1BE900
661930
660930
1BE900
ENDCHAR
STARTCHAR uni01D3
ENCODING 467
SWIDTH 600 0
DWIDTH 5 0
BBX 5 7 0 0
BITMAP
057300
000000
640730
640730
650730
581B10
1BF900
ENDCHAR
STARTCHAR uni01D4
ENCODING 468
SWIDTH 600 0
DWIDTH 5 0
BBX 5 6 0 0
BITMAP
057300
000000
640910
640910
672D10
2DDB10
ENDCHAR
STARTCHAR uni01D5
ENCODING 469
SWIDTH 600 0
DWIDTH 5 0
BBX 5 9 0 0
BITMAP
0AF700
000000
081700
000000
640730
640730
650730
581B10
1BF900
ENDCHAR
STARTCHAR uni01D6
ENCODING 470
SWIDTH 600 0
DWIDTH 5 0
BBX 5 8 0 0
BITMAP
0BF700
000000
082600
000000
640910
640910
672D10
2DDB10
ENDCHAR
STARTCHAR uni01D7
ENCODING 471
SWIDTH 600 0
DWIDTH 5 0
BBX 5 8 0 0
BITMAP
006100
081700
000000
640730
640730
650730
581B10
1BF900
ENDCHAR
STARTCHAR uni01D8
ENCODING 472
SWIDTH 600 0
DWIDTH 5 0
BBX 5 7 0 0
BITMAP
006000
082600
000000
640910
640910
672D10
2DDB10
ENDCHAR
STARTCHAR uni01D9
ENCODING 473
SWIDTH 600 0
DWIDTH 5 0
BBX 5 8 0 0
BITMAP
048300
081700
000000
640730
640730
650730
581B10
1BF900
ENDCHAR
STARTCHAR uni01DA
ENCODING 474
SWIDTH 600 0
DWIDTH 5 0
BBX 5 7 0 0
BITMAP
048200
082600
000000
640910
640910
672D10
2DDB10
ENDCHAR
STARTCHAR uni01DB
ENCODING 475
SWIDTH 600 0
DWIDTH 5 0
BBX 5 8 0 0
BITMAP
024000
081700
000000
640730
640730
650730
581B10
1BF900
ENDCHAR
STARTCHAR uni01DC
ENCODING 476
SWIDTH 600 0
DWIDTH 5 0
BBX 5 7 0 0
BITMAP
015000
082600
000000
640910
640910
672D10
2DDB10
ENDCHAR
STARTCHAR uni01E2
ENCODING 482
SWIDTH 600 0
DWIDTH 5 0
BBX 5 7 0 0
BITMAP
00BF60
000000
02EFA0
089200
097F50
6FF200
B17FB0
ENDCHAR
STARTCHAR uni01E3
ENCODING 483
SWIDTH 600 0
DWIDTH 5 0
BBX 5 6 0 0
BITMAP
08F900
000000
6E8E60
6DFFB0
A3B110
9D8E60
ENDCHAR
STARTCHAR Gcaron
ENCODING 486
SWIDTH 600 0
DWIDTH 5 0
BBX 5 7 0 0
BITMAP
037500
000000
09EA00
681400
836F40
681640
09EC20
ENDCHAR
STARTCHAR gcaron
ENCODING 487
SWIDTH 600 0
DWIDTH 5 0
BBX 5 8 0 -2
BITMAP
057400
000000
0BFF80
2A3A00
0CC600
1EFE40
450670
3DEB10
ENDCHAR
STARTCHAR uni01EA
ENCODING 490
SWIDTH 600 0
DWIDTH 5 0
BBX 5 7 0 -2
BITMAP
1BE900
771A30
920560
771940
1BF900
016000
02E200
ENDCHAR
STARTCHAR uni01EB
ENCODING 491
SWIDTH 600 0
DWIDTH 5 0
BBX 5 6 0 -2
BITMAP
1BE900
661930
660930
1BF900
016000
01E300
ENDCHAR
STARTCHAR uni01F4
ENCODING 500
SWIDTH 600 0
DWIDTH 5 0
BBX 5 7 0 0
BITMAP
005300
000000
09EA00
681400
836F40
681640
09EC20
ENDCHAR
STARTCHAR uni01F5
ENCODING 501
SWIDTH 600 0
DWIDTH 5 0
BBX 5 8 0 -2
BITMAP
004500
008000
0BFF80
2A3A00
0CC600
1EFE40
450670
3DEB10
ENDCHAR
STARTCHAR uni01F8
ENCODING 504
SWIDTH 600 0
DWIDTH 5 0
BBX 5 7 0 0
BITMAP
026000
000000
5A0820
5A3820
559720
546B20
540D20
ENDCHAR
STARTCHAR uni01F9
ENCODING 505
SWIDTH 600 0
DWIDTH 5 0
BBX 5 6 0 0
BITMAP
054000
008000
4AEC00
4A1A20
460730
460730
ENDCHAR
STARTCHAR Aringacute
ENCODING 506
SWIDTH 600 0
DWIDTH 5 0
BBX 5 7 0 0
BITMAP
012100
04E100
02E000
089500
0A1900
3FFE10
930660
ENDCHAR
STARTCHAR aringacute
ENCODING 507
SWIDTH 600 0
DWIDTH 5 0
BBX 5 6 0 0
BITMAP
012300
03E400
09EA00
025710
231B20
3EDB20
ENDCHAR
STARTCHAR AEacute
ENCODING 508
SWIDTH 600 0
DWIDTH 5 0
BBX 5 7 0 0
BITMAP
000710
000000
02EFA0
089200
097F50
6FF200
B17FB0
ENDCHAR
STARTCHAR aeacute
ENCODING 509
SWIDTH 600 0
DWIDTH 5 0
BBX 5 6 0 0
BITMAP
003600
008000
6E8E60
6DFFB0
A3B110
9D8E60
ENDCHAR
STARTCHAR Oslashacute
ENCODING 510
SWIDTH 600 0
DWIDTH 5 0
BBX 5 8 0 -1
BITMAP
007200
000000
1BEC30
773C40
938560
7B2A30
6BE900
100000
ENDCHAR
STARTCHAR oslashacute
ENCODING 511
SWIDTH 600 0
DWIDTH 5 0
BBX 5 6 0 0
BITMAP
005400
008000
1BEC10
677A30
695A30
4CE900
ENDCHAR
STARTCHAR uni0218
ENCODING 536
SWIDTH 600 0
DWIDTH 5 0
BBX 5 7 0 -2
BITMAP
0BE800
2A1400
05A700
341930
1AEB10
00B100
03C100
ENDCHAR
STARTCHAR uni0219
ENCODING 537
SWIDTH 600 0
DWIDTH 5 0
BBX 5 6 0 -2
BITMAP
1CE700
1A5400
244B20
1AFB10
00C000
04C000
ENDCHAR
STARTCHAR uni021A
ENCODING 538
SWIDTH 600 0
DWIDTH 5 0
BBX 5 7 0 -2
BITMAP
AFFF70
00A000
00A000
00A000
00A000
00C000
05B000
ENDCHAR
STARTCHAR uni021B
ENCODING 539
SWIDTH 600 0
DWIDTH 5 0
BBX 5 7 0 -2
BITMAP
044000
6FFF30
054000
056000
02DE30
005700
00A600
ENDCHAR
STARTCHAR uni0237
ENCODING 567
SWIDTH 600 0
DWIDTH 5 0
BBX 4 6 0 -2
BITMAP
4FF3
0073
0073
0073
1092
5EB0
ENDCHAR
STARTCHAR uni0243
ENCODING 579
SWIDTH 600 0
DWIDTH 5 0
BBX 5 5 0 0
BITMAP
2FFF00
280840
CFA460
280940
2FF900
ENDCHAR
STARTCHAR uni0250
ENCODING 592
SWIDTH 600 0
DWIDTH 5 0
BBX 5 4 0 0
BITMAP
4BED10
4FE910
391400
0BE700
ENDCHAR
STARTCHAR uni0251
ENCODING 593
SWIDTH 600 0
DWIDTH 5 0
BBX 5 4 0 0
BITMAP
1BEC10
661B10
761C10
1CEC10
ENDCHAR
STARTCHAR uni0252
ENCODING 594
SWIDTH 600 0
DWIDTH 5 0
BBX 5 4 0 0
BITMAP
4BEB00
491840
491930
4CE900
ENDCHAR
STARTCHAR uni0253
ENCODING 595
SWIDTH 600 0
DWIDTH 5 0
BBX 5 6 0 0
BITMAP
1CC000
380000
4BEB00
491840
491930
4BE900
ENDCHAR
STARTCHAR uni0254
ENCODING 596
SWIDTH 600 0
DWIDTH 5 0
BBX 5 4 0 0
BITMAP
1CE600
221B10
321B10
2CE700
ENDCHAR
STARTCHAR uni0255
ENCODING 597
SWIDTH 600 0
DWIDTH 5 0
BBX 5 5 0 -1
BITMAP
09EA00
491310
47AE20
0BFD20
080000
ENDCHAR
STARTCHAR uni0256
ENCODING 598
SWIDTH 600 0
DWIDTH 5 0
BBX 5 8 0 -2
BITMAP
000910
000910
1BED10
661B10
761C10
1CEC10
000920
0005B0
ENDCHAR
STARTCHAR uni0257
ENCODING 599
SWIDTH 600 0
DWIDTH 5 0
BBX 5 6 0 0
BITMAP
0006C0
000920
1BED00
661B00
761C00
1CEC00
ENDCHAR
STARTCHAR uni0258
ENCODING 600
SWIDTH 600 0
DWIDTH 5 0
BBX 5 4 0 0
BITMAP
2CE800
7FFF20
121A20
1CE700
ENDCHAR
STARTCHAR uni0259
ENCODING 601
SWIDTH 600 0
DWIDTH 5 0
BBX 5 4 0 0
BITMAP
1BE900
031A30
6FFF30
1CE900
ENDCHAR
STARTCHAR uni025A
ENCODING 602
SWIDTH 600 0
DWIDTH 5 0
BBX 5 4 0 0
BITMAP
5EB100
24BAC0
957400
5EB000
ENDCHAR
STARTCHAR uni025B
ENCODING 603
SWIDTH 600 0
DWIDTH 5 0
BBX 5 4 0 0
BITMAP
0CFA00
0BF600
390310
1BEA10
ENDCHAR
STARTCHAR uni025C
ENCODING 604
SWIDTH 600 0
DWIDTH 5 0
BBX 5 4 0 0
BITMAP
1CFA00
29F900
221B10
2CE900
ENDCHAR
STARTCHAR uni025E
ENCODING 606
SWIDTH 600 0
DWIDTH 5 0
BBX 5 4 0 0
BITMAP
1AEC00
67AC00
661840
1BEC10
ENDCHAR
STARTCHAR uni025F
ENCODING 607
SWIDTH 600 0
DWIDTH 5 0
BBX 5 6 0 -2
BITMAP
4FF300
007300
0EFF80
007300
109300
5EB000
ENDCHAR
STARTCHAR uni0260
ENCODING 608
SWIDTH 600 0
DWIDTH 5 0
BBX 5 7 0 -2
BITMAP
0005C0
1BED20
671C10
740B10
2DED10
032B00
1BE800
ENDCHAR
STARTCHAR uni0261
ENCODING 609
SWIDTH 600 0
DWIDTH 5 0
BBX 5 6 0 -2
BITMAP
1BEC10
661B10
761B10
1CEC10
021B00
1BE800
ENDCHAR
STARTCHAR uni0262
ENCODING 610
SWIDTH 600 0
DWIDTH 5 0
BBX 5 4 0 0
BITMAP
09EA00
491300
497F30
09ED20
ENDCHAR
STARTCHAR uni0263
ENCODING 611
SWIDTH 600 0
DWIDTH 5 0
BBX 5 6 0 -2
BITMAP
640730
090900
085500
02E000
068300
05E200
ENDCHAR
STARTCHAR uni0264
ENCODING 612
SWIDTH 600 0
DWIDTH 5 0
BBX 5 4 0 0
BITMAP
6D8E30
058300
0A1A00
0BF900
ENDCHAR
STARTCHAR uni0265
ENCODING 613
SWIDTH 600 0
DWIDTH 5 0
BBX 5 6 0 -2
BITMAP
640910
640910
672C10
2DDB10
000910
000910
ENDCHAR
STARTCHAR uni0266
ENCODING 614
SWIDTH 600 0
DWIDTH 5 0
BBX 5 6 0 0
BITMAP
1CC000
391000
4ADC00
4A1920
460730
460730
ENDCHAR
STARTCHAR uni0267
ENCODING 615
SWIDTH 600 0
DWIDTH 5 0
BBX 5 8 0 -2
BITMAP
1CC000
391000
4ADB00
4A1920
460730
460730
000830
007D10
ENDCHAR
STARTCHAR uni0268
ENCODING 616
SWIDTH 600 0
DWIDTH 5 0
BBX 5 6 0 0
BITMAP
009300
000000
4FF300
0DFF80
007300
007300
ENDCHAR
STARTCHAR uni026A
ENCODING 618
SWIDTH 600 0
DWIDTH 5 0
BBX 5 4 0 0
BITMAP
5FFF20
00A000
00A000
5FFF20
ENDCHAR
STARTCHAR uni026B
ENCODING 619
SWIDTH 600 0
DWIDTH 5 0
BBX 5 6 0 0
BITMAP
6F9000
029100
1EF700
25F800
00B100
00BE20
ENDCHAR
STARTCHAR uni026C
ENCODING 620
SWIDTH 600 0
DWIDTH 5 0
BBX 5 6 0 0
BITMAP
9F9000
569000
2EFB00
009000
00B100
00AE20
ENDCHAR
STARTCHAR uni026D
ENCODING 621
SWIDTH 600 0
DWIDTH 5 0
BBX 5 8 0 -2
BITMAP
6F9000
009000
009000
009000
009000
009000
00B100
00AE20
ENDCHAR
STARTCHAR uni026E
ENCODING 622
SWIDTH 600 0
DWIDTH 5 0
BBX 5 8 0 -2
BITMAP
640000
640000
6FFF30
641200
64AD20
640580
041570
04EC10
ENDCHAR
STARTCHAR uni026F
ENCODING 623
SWIDTH 600 0
DWIDTH 5 0
BBX 5 4 0 0
BITMAP
A09550
A09550
A3A750
7DCC50
ENDCHAR
STARTCHAR uni0270
ENCODING 624
SWIDTH 600 0
DWIDTH 5 0
BBX 5 6 0 -2
BITMAP
A09550
A09550
A2A650
7EDD50
000450
000450
ENDCHAR
STARTCHAR uni0271
ENCODING 625
SWIDTH 600 0
DWIDTH 5 0
BBX 5 6 0 -2
BITMAP
8CBE40
84B470
829370
829370
000470
000E40
ENDCHAR
STARTCHAR uni0272
ENCODING 626
SWIDTH 600 0
DWIDTH 5 0
BBX 5 6 0 -2
BITMAP
3ADC00
3B1920
370730
370730
460000
E30000
ENDCHAR
STARTCHAR uni0273
ENCODING 627
SWIDTH 600 0
DWIDTH 5 0
BBX 5 6 0 -2
BITMAP
4AEC00
4A1A20
460820
460820
000730
0004D0
ENDCHAR
STARTCHAR uni0274
ENCODING 628
SWIDTH 600 0
DWIDTH 5 0
BBX 4 4 0 0
BITMAP
4B09
4969
468A
461D
ENDCHAR
STARTCHAR uni0275
ENCODING 629
SWIDTH 600 0
DWIDTH 5 0
BBX 5 4 0 0
BITMAP
1BE900
6FFF30
661930
1BE900
ENDCHAR
STARTCHAR uni0276
ENCODING 630
SWIDTH 600 0
DWIDTH 5 0
BBX 5 4 0 0
BITMAP
3DFF90
A28F50
A28100
3EFFB0
ENDCHAR
STARTCHAR uni0278
ENCODING 632
SWIDTH 600 0
DWIDTH 5 0
BBX 5 8 0 -2
BITMAP
00A000
00A000
2CFB10
84A750
84A750
2CFB10
00A000
00A000
ENDCHAR
STARTCHAR uni0279
ENCODING 633
SWIDTH 600 0
DWIDTH 5 0
BBX 4 4 0 0
BITMAP
0009
0009
0179
6E78
ENDCHAR
STARTCHAR uni027A
ENCODING 634
SWIDTH 600 0
DWIDTH 5 0
BBX 4 6 0 0
BITMAP
0009
0009
0009
0009
0189
6E78
ENDCHAR
STARTCHAR uni027B
ENCODING 635
SWIDTH 600 0
DWIDTH 5 0
BBX 5 6 0 -2
BITMAP
00A000
00A000
01D000
6DB000
008200
005E10
ENDCHAR
STARTCHAR uni027D
ENCODING 637
SWIDTH 600 0
DWIDTH 5 0
BBX 4 6 1 -2
BITMAP
99E3
C600
A000
A000
B110
6EA0
ENDCHAR
STARTCHAR uni027E
ENCODING 638
SWIDTH 600 0
DWIDTH 5 0
BBX 4 4 1 0
BITMAP
4DE3
B400
A000
A000
ENDCHAR
STARTCHAR uni0280
ENCODING 640
SWIDTH 600 0
DWIDTH 5 0
BBX 5 4 0 0
BITMAP
3FFD10
3FFC10
373800
370920
ENDCHAR
STARTCHAR uni0281
ENCODING 641
SWIDTH 600 0
DWIDTH 5 0
BBX 4 4 0 0
BITMAP
291A
1CFF
580A
2DFF
ENDCHAR
STARTCHAR uni0282
ENCODING 642
SWIDTH 600 0
DWIDTH 5 0
BBX 5 6 0 -2
BITMAP
1CE700
1A5400
244B20
7DFB10
640000
2E1000
ENDCHAR
STARTCHAR uni0283
ENCODING 643
SWIDTH 600 0
DWIDTH 5 0
BBX 5 8 0 -2
BITMAP
009E30
00B100
00A000
00A000
00A000
00A000
11A000
5E6000
ENDCHAR
STARTCHAR uni0284
ENCODING 644
SWIDTH 600 0
DWIDTH 5 0
BBX 5 8 0 -2
BITMAP
009E30
00B100
00A000
4EFF20
00A000
00A000
11A000
5E6000
ENDCHAR
STARTCHAR uni0287
ENCODING 647
SWIDTH 600 0
DWIDTH 5 0
BBX 5 5 0 -1
BITMAP
6EB000
10A200
008200
6FFF30
008100
ENDCHAR
STARTCHAR uni0288
ENCODING 648
SWIDTH 600 0
DWIDTH 5 0
BBX 5 7 0 -2
BITMAP
044000
6FFF30
054000
054000
054000
057000
01DE30
ENDCHAR
STARTCHAR uni0289
ENCODING 649
SWIDTH 600 0
DWIDTH 5 0
BBX 5 4 0 0
BITMAP
370A00
EFFFA0
381B00
1DDB00
ENDCHAR
STARTCHAR uni028A
ENCODING 650
SWIDTH 600 0
DWIDTH 5 0
BBX 5 4 0 0
BITMAP
9E2F60
360810
761940
2CEA00
ENDCHAR
STARTCHAR uni028B
ENCODING 651
SWIDTH 600 0
DWIDTH 5 0
BBX 5 4 0 0
BITMAP
646D10
640840
581A20
1CE800
ENDCHAR
STARTCHAR uni028C
ENCODING 652
SWIDTH 600 0
DWIDTH 5 0
BBX 5 4 0 0
BITMAP
03D000
085500
190A00
640730
ENDCHAR
STARTCHAR uni028D
ENCODING 653
SWIDTH 600 0
DWIDTH 5 0
BBX 5 4 0 0
BITMAP
3C1E00
696A30
94B460
909190
ENDCHAR
STARTCHAR uni028E
ENCODING 654
SWIDTH 600 0
DWIDTH 5 0
BBX 5 6 0 0
BITMAP
004E30
009100
03D000
085600
180A00
630730
ENDCHAR
STARTCHAR uni028F
ENCODING 655
SWIDTH 600 0
DWIDTH 5 0
BBX 5 4 0 0
BITMAP
470920
095700
01C000
00A000
ENDCHAR
STARTCHAR uni0290
ENCODING 656
SWIDTH 600 0
DWIDTH 5 0
BBX 5 6 0 -2
BITMAP
2FFF20
006500
073000
6FFF20
000840
0004D0
ENDCHAR
STARTCHAR uni0291
ENCODING 657
SWIDTH 600 0
DWIDTH 5 0
BBX 5 5 0 -1
BITMAP
2FFF00
006F70
075780
6FFE40
007000
ENDCHAR
STARTCHAR uni0292
ENCODING 658
SWIDTH 600 0
DWIDTH 5 0
BBX 5 6 0 -2
BITMAP
3FFF10
015300
0AF900
011A20
331B10
1BE700
ENDCHAR
STARTCHAR uni0294
ENCODING 660
SWIDTH 600 0
DWIDTH 5 0
BBX 4 6 0 0
BITMAP
1BE8
341C
0009
0182
0180
0180
ENDCHAR
STARTCHAR uni0295
ENCODING 661
SWIDTH 600 0
DWIDTH 5 0
BBX 5 6 0 0
BITMAP
0AE800
391510
170000
037000
00A000
00A000
ENDCHAR
STARTCHAR uni0298
ENCODING 664
SWIDTH 600 0
DWIDTH 5 0
BBX 5 6 0 0
BITMAP
0AE700
481B20
735540
735540
581B20
0AE800
ENDCHAR
STARTCHAR uni0299
ENCODING 665
SWIDTH 600 0
DWIDTH 5 0
BBX 5 4 0 0
BITMAP
1FFD20
1FFD10
190750
1FFD20
ENDCHAR
STARTCHAR uni029C
ENCODING 668
SWIDTH 600 0
DWIDTH 5 0
BBX 5 4 0 0
BITMAP
460910
4FFF10
460910
460910
ENDCHAR
STARTCHAR uni029D
ENCODING 669
SWIDTH 600 0
DWIDTH 5 0
BBX 4 9 0 -3
BITMAP
0093
0000
4FF3
0073
0073
4ED3
83D3
3E88
0007
ENDCHAR
STARTCHAR uni029E
ENCODING 670
SWIDTH 600 0
DWIDTH 5 0
BBX 4 6 0 -2
BITMAP
460A
085D
049A
480A
000A
000A
ENDCHAR
STARTCHAR uni029F
ENCODING 671
SWIDTH 600 0
DWIDTH 5 0
BBX 4 4 1 0
BITMAP
A000
A000
A000
CFF4
ENDCHAR
STARTCHAR uni02A1
ENCODING 673
SWIDTH 600 0
DWIDTH 5 0
BBX 5 6 0 0
BITMAP
0AE900
341B00
004700
6FFF20
018000
018000
ENDCHAR
STARTCHAR uni02A2
ENCODING 674
SWIDTH 600 0
DWIDTH 5 0
BBX 5 6 0 0
BITMAP
1BE800
381510
082000
5FFF30
00A000
00A000
ENDCHAR
STARTCHAR uni02A4
ENCODING 676
SWIDTH 600 0
DWIDTH 5 0
BBX 5 8 0 -2
BITMAP
009000
009000
7DFFB0
B19530
B1AE70
8D81B0
0011B0
004E60
ENDCHAR
STARTCHAR uni02A6
ENCODING 678
SWIDTH 600 0
DWIDTH 5 0
BBX 5 6 0 0
BITMAP
010000
270000
CFFE40
377810
380570
1CFD40
ENDCHAR
STARTCHAR uni02A7
ENCODING 679
SWIDTH 600 0
DWIDTH 5 0
BBX 5 8 0 -2
BITMAP
0007B0
090A10
9FFD00
190A00
1A0A00
0CAA00
000B00
00A900
ENDCHAR
STARTCHAR h.sups
ENCODING 688
SWIDTH 600 0
DWIDTH 5 0
BBX 3 6 1 2
BITMAP
1000
7000
7C60
8280
8080
2020
ENDCHAR
STARTCHAR j.sups
ENCODING 690
SWIDTH 600 0
DWIDTH 5 0
BBX 2 5 1 2
BITMAP
08
BE
08
09
BA
ENDCHAR
STARTCHAR r.sups
ENCODING 691
SWIDTH 600 0
DWIDTH 5 0
BBX 3 4 1 2
BITMAP
1CD0
1A10
1700
0100
ENDCHAR
STARTCHAR w.sups
ENCODING 695
SWIDTH 600 0
DWIDTH 5 0
BBX 4 3 0 3
BITMAP
7397
3BA8
0C67
ENDCHAR
STARTCHAR y.sups
ENCODING 696
SWIDTH 600 0
DWIDTH 5 0
BBX 3 4 1 2
BITMAP
7170
3920
1B00
A500
ENDCHAR
STARTCHAR uni02B9
ENCODING 697
SWIDTH 600 0
DWIDTH 5 0
BBX 1 2 2 3
BITMAP
90
70
ENDCHAR
STARTCHAR uni02BB
ENCODING 699
SWIDTH 600 0
DWIDTH 5 0
BBX 2 3 1 3
BITMAP
04
36
3C
ENDCHAR
STARTCHAR uni02BC
ENCODING 700
SWIDTH 600 0
DWIDTH 5 0
BBX 3 3 1 2
BITMAP
1D10
0800
1300
ENDCHAR
STARTCHAR uni02BE
ENCODING 702
SWIDTH 600 0
DWIDTH 5 0
BBX 3 3 1 4
BITMAP
3C10
0740
3C10
ENDCHAR
STARTCHAR uni02BF
ENCODING 703
SWIDTH 600 0
DWIDTH 5 0
BBX 2 3 1 4
BITMAP
3D
74
3D
ENDCHAR
STARTCHAR uni02C1
ENCODING 705
SWIDTH 600 0
DWIDTH 5 0
BBX 3 4 1 3
BITMAP
3E40
9120
4500
0500
ENDCHAR
STARTCHAR circumflex
ENCODING 710
SWIDTH 600 0
DWIDTH 5 0
BBX 3 1 1 5
BITMAP
5730
ENDCHAR
STARTCHAR caron
ENCODING 711
SWIDTH 600 0
DWIDTH 5 0
BBX 3 1 1 5
BITMAP
5730
ENDCHAR
STARTCHAR uni02C8
ENCODING 712
SWIDTH 600 0
DWIDTH 5 0
BBX 1 3 2 3
BITMAP
B0
90
40
ENDCHAR
STARTCHAR uni02C9
ENCODING 713
SWIDTH 600 0
DWIDTH 5 0
BBX 3 1 1 5
BITMAP
AF70
ENDCHAR
STARTCHAR uni02CA
ENCODING 714
SWIDTH 600 0
DWIDTH 5 0
BBX 2 2 2 4
BITMAP
54
80
ENDCHAR
STARTCHAR uni02CB
ENCODING 715
SWIDTH 600 0
DWIDTH 5 0
BBX 2 2 1 4
BITMAP
72
18
ENDCHAR
STARTCHAR uni02CC
ENCODING 716
SWIDTH 600 0
DWIDTH 5 0
BBX 1 3 2 -2
BITMAP
80
A0
B0
ENDCHAR
STARTCHAR uni02D0
ENCODING 720
SWIDTH 600 0
DWIDTH 5 0
BBX 2 4 1 0
BITMAP
2B
00
00
1B
ENDCHAR
STARTCHAR uni02D1
ENCODING 721
SWIDTH 600 0
DWIDTH 5 0
BBX 2 1 1 3
BITMAP
2B
ENDCHAR
STARTCHAR breve
ENCODING 728
SWIDTH 600 0
DWIDTH 5 0
BBX 3 2 1 4
BITMAP
8170
6E30
ENDCHAR
STARTCHAR dotaccent
ENCODING 729
SWIDTH 600 0
DWIDTH 5 0
BBX 2 1 1 5
BITMAP
1B
ENDCHAR
STARTCHAR ring
ENCODING 730
SWIDTH 600 0
DWIDTH 5 0
BBX 3 3 1 4
BITMAP
3E10
6530
3E10
ENDCHAR
STARTCHAR ogonek
ENCODING 731
SWIDTH 600 0
DWIDTH 5 0
BBX 3 2 1 -2
BITMAP
2500
3E20
ENDCHAR
STARTCHAR tilde
ENCODING 732
SWIDTH 600 0
DWIDTH 5 0
BBX 3 3 1 4
BITMAP
1010
B870
7970
ENDCHAR
STARTCHAR hungarumlaut
ENCODING 733
SWIDTH 600 0
DWIDTH 5 0
BBX 3 2 1 4
BITMAP
0770
4460
ENDCHAR
STARTCHAR uni02DE
ENCODING 734
SWIDTH 600 0
DWIDTH 5 0
BBX 3 2 1 2
BITMAP
8500
0C10
ENDCHAR
STARTCHAR uni02E0
ENCODING 736
SWIDTH 600 0
DWIDTH 5 0
BBX 3 4 1 2
BITMAP
8160
4910
1900
2D00
ENDCHAR
STARTCHAR l.sups
ENCODING 737
SWIDTH 600 0
DWIDTH 5 0
BBX 3 4 1 3
BITMAP
7B00
0800
0800
0980
ENDCHAR
STARTCHAR s.sups
ENCODING 738
SWIDTH 600 0
DWIDTH 5 0
BBX 3 3 1 3
BITMAP
6E40
2310
5E70
ENDCHAR
STARTCHAR x.sups
ENCODING 739
SWIDTH 600 0
DWIDTH 5 0
BBX 3 3 1 3
BITMAP
5740
1B10
4140
ENDCHAR
STARTCHAR uni02E4
ENCODING 740
SWIDTH 600 0
DWIDTH 5 0
BBX 3 5 1 2
BITMAP
3E40
9120
4500
0800
0300
ENDCHAR
STARTCHAR uni0300
ENCODING 768
SWIDTH 600 0
DWIDTH 5 0
BBX 2 2 1 4
BITMAP
72
18
ENDCHAR
STARTCHAR uni0301
ENCODING 769
SWIDTH 600 0
DWIDTH 5 0
BBX 2 2 2 4
BITMAP
54
80
ENDCHAR
STARTCHAR uni0302
ENCODING 770
SWIDTH 600 0
DWIDTH 5 0
BBX 3 1 1 5
BITMAP
5730
ENDCHAR
STARTCHAR uni0303
ENCODING 771
SWIDTH 600 0
DWIDTH 5 0
BBX 3 3 1 4
BITMAP
1010
B870
7970
ENDCHAR
STARTCHAR uni0304
ENCODING 772
SWIDTH 600 0
DWIDTH 5 0
BBX 3 1 1 5
BITMAP
AF70
ENDCHAR
STARTCHAR uni0305
ENCODING 773
SWIDTH 600 0
DWIDTH 5 0
BBX 3 1 1 5
BITMAP
AF70
ENDCHAR
STARTCHAR uni0306
ENCODING 774
SWIDTH 600 0
DWIDTH 5 0
BBX 3 2 1 4
BITMAP
8170
6E30
ENDCHAR
STARTCHAR uni0307
ENCODING 775
SWIDTH 600 0
DWIDTH 5 0
BBX 2 1 1 5
BITMAP
1B
ENDCHAR
STARTCHAR uni0308
ENCODING 776
SWIDTH 600 0
DWIDTH 5 0
BBX 3 1 1 5
BITMAP
9270
ENDCHAR
STARTCHAR uni0309
ENCODING 777
SWIDTH 600 0
DWIDTH 5 0
BBX 2 3 1 4
BITMAP
2B
0A
09
ENDCHAR
STARTCHAR uni030A
ENCODING 778
SWIDTH 600 0
DWIDTH 5 0
BBX 3 3 1 4
BITMAP
3E10
6530
3E10
ENDCHAR
STARTCHAR uni030B
ENCODING 779
SWIDTH 600 0
DWIDTH 5 0
BBX 3 2 1 4
BITMAP
0770
4460
ENDCHAR
STARTCHAR uni030C
ENCODING 780
SWIDTH 600 0
DWIDTH 5 0
BBX 3 1 1 5
BITMAP
5730
ENDCHAR
STARTCHAR uni030F
ENCODING 783
SWIDTH 600 0
DWIDTH 5 0
BBX 3 2 1 4
BITMAP
7700
7510
ENDCHAR
STARTCHAR uni0310
ENCODING 784
SWIDTH 600 0
DWIDTH 5 0
BBX 3 3 1 4
BITMAP
0900
8270
6E40
ENDCHAR
STARTCHAR uni0311
ENCODING 785
SWIDTH 600 0
DWIDTH 5 0
BBX 3 2 1 4
BITMAP
6E30
8170
ENDCHAR
STARTCHAR uni0312
ENCODING 786
SWIDTH 600 0
DWIDTH 5 0
BBX 1 2 2 4
BITMAP
50
90
ENDCHAR
STARTCHAR uni0313
ENCODING 787
SWIDTH 600 0
DWIDTH 5 0
BBX 1 2 2 4
BITMAP
90
50
ENDCHAR
STARTCHAR uni0318
ENCODING 792
SWIDTH 600 0
DWIDTH 5 0
BBX 3 3 1 -3
BITMAP
0210
3F20
0210
ENDCHAR
STARTCHAR uni0319
ENCODING 793
SWIDTH 600 0
DWIDTH 5 0
BBX 2 3 1 -3
BITMAP
31
5F
31
ENDCHAR
STARTCHAR uni031A
ENCODING 794
SWIDTH 600 0
DWIDTH 5 0
BBX 3 2 1 4
BITMAP
3F10
0410
ENDCHAR
STARTCHAR uni031B
ENCODING 795
SWIDTH 600 0
DWIDTH 5 0
BBX 2 2 2 3
BITMAP
07
54
ENDCHAR
STARTCHAR uni031C
ENCODING 796
SWIDTH 600 0
DWIDTH 5 0
BBX 2 2 1 -2
BITMAP
1C
1C
ENDCHAR
STARTCHAR uni031D
ENCODING 797
SWIDTH 600 0
DWIDTH 5 0
BBX 3 1 1 -2
BITMAP
8F50
ENDCHAR
STARTCHAR uni031E
ENCODING 798
SWIDTH 600 0
DWIDTH 5 0
BBX 3 1 1 -2
BITMAP
8F50
ENDCHAR
STARTCHAR uni031F
ENCODING 799
SWIDTH 600 0
DWIDTH 5 0
BBX 3 3 1 -3
BITMAP
0400
8F50
0400
ENDCHAR
STARTCHAR uni0320
ENCODING 800
SWIDTH 600 0
DWIDTH 5 0
BBX 3 1 1 -2
BITMAP
8F50
ENDCHAR
STARTCHAR uni0323
ENCODING 803
SWIDTH 600 0
DWIDTH 5 0
BBX 2 1 1 -1
BITMAP
1B
ENDCHAR
STARTCHAR uni0324
ENCODING 804
SWIDTH 600 0
DWIDTH 5 0
BBX 3 1 1 -1
BITMAP
9270
ENDCHAR
STARTCHAR uni0325
ENCODING 805
SWIDTH 600 0
DWIDTH 5 0
BBX 3 3 1 -2
BITMAP
3E10
6530
3E10
ENDCHAR
STARTCHAR uni0326
ENCODING 806
SWIDTH 600 0
DWIDTH 5 0
BBX 2 2 1 -2
BITMAP
0C
5B
ENDCHAR
STARTCHAR uni0327
ENCODING 807
SWIDTH 600 0
DWIDTH 5 0
BBX 2 4 1 -4
BITMAP
06
1C
0A
59
ENDCHAR
STARTCHAR uni0328
ENCODING 808
SWIDTH 600 0
DWIDTH 5 0
BBX 3 2 1 -2
BITMAP
2500
3E20
ENDCHAR
STARTCHAR uni0329
ENCODING 809
SWIDTH 600 0
DWIDTH 5 0
BBX 1 2 2 -2
BITMAP
70
80
ENDCHAR
STARTCHAR uni032A
ENCODING 810
SWIDTH 600 0
DWIDTH 5 0
BBX 3 2 1 -2
BITMAP
9F60
4050
ENDCHAR
STARTCHAR uni032C
ENCODING 812
SWIDTH 600 0
DWIDTH 5 0
BBX 3 1 1 -1
BITMAP
5730
ENDCHAR
STARTCHAR uni032E
ENCODING 814
SWIDTH 600 0
DWIDTH 5 0
BBX 3 2 1 -2
BITMAP
8170
6E30
ENDCHAR
STARTCHAR uni032F
ENCODING 815
SWIDTH 600 0
DWIDTH 5 0
BBX 3 2 1 -2
BITMAP
6E30
8170
ENDCHAR
STARTCHAR uni0330
ENCODING 816
SWIDTH 600 0
DWIDTH 5 0
BBX 3 3 1 -2
BITMAP
1010
B870
7970
ENDCHAR
STARTCHAR uni0331
ENCODING 817
SWIDTH 600 0
DWIDTH 5 0
BBX 3 1 1 -1
BITMAP
AF70
ENDCHAR
STARTCHAR uni0334
ENCODING 820
SWIDTH 600 0
DWIDTH 5 0
BBX 4 3 0 1
BITMAP
0101
0D87
1589
ENDCHAR
STARTCHAR uni0339
ENCODING 825
SWIDTH 600 0
DWIDTH 5 0
BBX 2 2 1 -2
BITMAP
1C
1C
ENDCHAR
STARTCHAR uni033A
ENCODING 826
SWIDTH 600 0
DWIDTH 5 0
BBX 3 2 1 -2
BITMAP
4040
9F60
ENDCHAR
STARTCHAR uni033B
ENCODING 827
SWIDTH 600 0
DWIDTH 5 0
BBX 3 2 1 -2
BITMAP
9F60
9F60
ENDCHAR
STARTCHAR uni033C
ENCODING 828
SWIDTH 600 0
DWIDTH 5 0
BBX 3 2 1 -2
BITMAP
BA80
7870
ENDCHAR
STARTCHAR uni033D
ENCODING 829
SWIDTH 600 0
DWIDTH 5 0
BBX 2 1 1 5
BITMAP
29
ENDCHAR
STARTCHAR uni0342
ENCODING 834
SWIDTH 600 0
DWIDTH 5 0
BBX 3 3 1 4
BITMAP
1010
B870
7970
ENDCHAR
STARTCHAR uni0345
ENCODING 837
SWIDTH 600 0
DWIDTH 5 0
BBX 2 1 2 -2
BITMAP
B1
ENDCHAR
STARTCHAR uni035F
ENCODING 863
SWIDTH 600 0
DWIDTH 5 0
BBX 9 1 -2 -2
BITMAP
8FFFFFFF50
ENDCHAR
STARTCHAR uni0361
ENCODING 865
SWIDTH 600 0
DWIDTH 5 0
BBX 8 2 -2 4
BITMAP
029DFD71
1A521269
ENDCHAR
STARTCHAR uni0374
ENCODING 884
SWIDTH 600 0
DWIDTH 5 0
BBX 1 2 2 4
BITMAP
90
70
ENDCHAR
STARTCHAR uni0375
ENCODING 885
SWIDTH 600 0
DWIDTH 5 0
BBX 1 2 2 0
BITMAP
80
90
ENDCHAR
STARTCHAR uni037A
ENCODING 890
SWIDTH 600 0
DWIDTH 5 0
BBX 2 1 2 -2
BITMAP
B1
ENDCHAR
STARTCHAR uni037E
ENCODING 894
SWIDTH 600 0
DWIDTH 5 0
BBX 3 6 1 -2
BITMAP
2C00
0000
0000
1D10
0910
3400
ENDCHAR
STARTCHAR tonos
ENCODING 900
SWIDTH 600 0
DWIDTH 5 0
BBX 2 2 2 4
BITMAP
81
80
ENDCHAR
STARTCHAR dieresistonos
ENCODING 901
SWIDTH 600 0
DWIDTH 5 0
BBX 3 2 1 4
BITMAP
8880
0600
ENDCHAR
STARTCHAR Alphatonos
ENCODING 902
SWIDTH 600 0
DWIDTH 5 0
BBX 5 5 0 0
BITMAP
72D100
867500
090900
1FFF10
650660
ENDCHAR
STARTCHAR anoteleia
ENCODING 903
SWIDTH 600 0
DWIDTH 5 0
BBX 2 1 1 3
BITMAP
2C
ENDCHAR
STARTCHAR Epsilontonos
ENCODING 904
SWIDTH 600 0
DWIDTH 5 0
BBX 5 5 0 0
BITMAP
86FF20
763000
06FC00
063000
06FF40
ENDCHAR
STARTCHAR Etatonos
ENCODING 905
SWIDTH 600 0
DWIDTH 5 0
BBX 5 5 0 0
BITMAP
872630
772630
07FF30
072630
072630
ENDCHAR
STARTCHAR Iotatonos
ENCODING 906
SWIDTH 600 0
DWIDTH 5 0
BBX 5 5 0 0
BITMAP
88FF10
709100
009100
009100
08FF10
ENDCHAR
STARTCHAR Omicrontonos
ENCODING 908
SWIDTH 600 0
DWIDTH 5 0
BBX 5 5 0 0
BITMAP
84EB00
7A2840
0A0460
0A2840
03EB00
ENDCHAR
STARTCHAR Upsilontonos
ENCODING 910
SWIDTH 600 0
DWIDTH 5 0
BBX 5 5 0 0
BITMAP
765180
809630
006900
002700
002700
ENDCHAR
STARTCHAR Omegatonos
ENCODING 911
SWIDTH 600 0
DWIDTH 5 0
BBX 5 5 0 0
BITMAP
85EB00
7B2850
090450
062710
0E7D70
ENDCHAR
STARTCHAR iotadieresistonos
ENCODING 912
SWIDTH 600 0
DWIDTH 5 0
BBX 5 6 0 0
BITMAP
089600
006000
5F9000
009000
00B100
00CE10
ENDCHAR
STARTCHAR Alpha
ENCODING 913
SWIDTH 600 0
DWIDTH 5 0
BBX 5 5 0 0
BITMAP
02D000
076500
090900
3FFE10
930660
ENDCHAR
STARTCHAR Beta
ENCODING 914
SWIDTH 600 0
DWIDTH 5 0
BBX 5 5 0 0
BITMAP
3FFA00
371B00
3FFA00
370850
3FFC10
ENDCHAR
STARTCHAR Gamma
ENCODING 915
SWIDTH 600 0
DWIDTH 5 0
BBX 4 5 1 0
BITMAP
EFF4
A000
A000
A000
A000
ENDCHAR
STARTCHAR uni0394
ENCODING 916
SWIDTH 600 0
DWIDTH 5 0
BBX 5 5 0 0
BITMAP
02D000
075500
080800
440710
9FFF60
ENDCHAR
STARTCHAR Epsilon
ENCODING 917
SWIDTH 600 0
DWIDTH 5 0
BBX 5 5 0 0
BITMAP
1FFF20
190000
1FFC00
190000
1FFF40
ENDCHAR
STARTCHAR Zeta
ENCODING 918
SWIDTH 600 0
DWIDTH 5 0
BBX 5 5 0 0
BITMAP
3FFF40
002800
018000
191000
7FFF50
ENDCHAR
STARTCHAR Eta
ENCODING 919
SWIDTH 600 0
DWIDTH 5 0
BBX 5 5 0 0
BITMAP
640830
640830
6FFF30
640830
640830
ENDCHAR
STARTCHAR Theta
ENCODING 920
SWIDTH 600 0
DWIDTH 5 0
BBX 5 5 0 0
BITMAP
1BE900
771A30
98F760
671A30
1BE900
ENDCHAR
STARTCHAR Iota
ENCODING 921
SWIDTH 600 0
DWIDTH 5 0
BBX 5 5 0 0
BITMAP
4FFF10
00A000
00A000
00A000
4FFF10
ENDCHAR
STARTCHAR Kappa
ENCODING 922
SWIDTH 600 0
DWIDTH 5 0
BBX 5 5 0 0
BITMAP
370920
379300
3DB200
381A00
370650
ENDCHAR
STARTCHAR Lambda
ENCODING 923
SWIDTH 600 0
DWIDTH 5 0
BBX 5 5 0 0
BITMAP
02D000
077400
091900
270A00
730640
ENDCHAR
STARTCHAR Mu
ENCODING 924
SWIDTH 600 0
DWIDTH 5 0
BBX 5 5 0 0
BITMAP
680B30
6B2C30
67A830
637630
630630
ENDCHAR
STARTCHAR Nu
ENCODING 925
SWIDTH 600 0
DWIDTH 5 0
BBX 5 5 0 0
BITMAP
5A0820
5A3820
559720
546B20
540D20
ENDCHAR
STARTCHAR Xi
ENCODING 926
SWIDTH 600 0
DWIDTH 5 0
BBX 5 5 0 0
BITMAP
5FFF20
000000
0DFA00
000000
7FFF40
ENDCHAR
STARTCHAR Omicron
ENCODING 927
SWIDTH 600 0
DWIDTH 5 0
BBX 5 5 0 0
BITMAP
1BE900
771A40
920560
771A30
1BE900
ENDCHAR
STARTCHAR Pi
ENCODING 928
SWIDTH 600 0
DWIDTH 5 0
BBX 5 5 0 0
BITMAP
6FFF30
640830
640830
640830
640830
ENDCHAR
STARTCHAR Rho
ENCODING 929
SWIDTH 600 0
DWIDTH 5 0
BBX 5 5 0 0
BITMAP
3FFC10
370840
3FFB10
370000
370000
ENDCHAR
STARTCHAR Sigma
ENCODING 931
SWIDTH 600 0
DWIDTH 5 0
BBX 5 5 0 0
BITMAP
5FFF00
082000
00A000
082000
6FFF40
ENDCHAR
STARTCHAR Tau
ENCODING 932
SWIDTH 600 0
DWIDTH 5 0
BBX 5 5 0 0
BITMAP
AFFF70
00A000
00A000
00A000
00A000
ENDCHAR
STARTCHAR Upsilon
ENCODING 933
SWIDTH 600 0
DWIDTH 5 0
BBX 5 5 0 0
BITMAP
640730
0A1900
05B200
00A000
00A000
ENDCHAR
STARTCHAR Phi
ENCODING 934
SWIDTH 600 0
DWIDTH 5 0
BBX 5 5 0 0
BITMAP
009000
5DFC30
A39580
5DFC20
009000
ENDCHAR
STARTCHAR Chi
ENCODING 935
SWIDTH 600 0
DWIDTH 5 0
BBX 5 5 0 0
BITMAP
380910
086500
02E000
095700
460920
ENDCHAR
STARTCHAR Psi
ENCODING 936
SWIDTH 600 0
DWIDTH 5 0
BBX 5 5 0 0
BITMAP
90A370
90A370
85A850
2CFB00
00A000
ENDCHAR
STARTCHAR uni03A9
ENCODING 937
SWIDTH 600 0
DWIDTH 5 0
BBX 5 5 0 0
BITMAP
1BEA00
871A50
820550
360810
BF3F80
ENDCHAR
STARTCHAR Iotadieresis
ENCODING 938
SWIDTH 600 0
DWIDTH 5 0
BBX 5 7 0 0
BITMAP
083600
000000
4FFF10
00A000
00A000
00A000
4FFF10
ENDCHAR
STARTCHAR Upsilondieresis
ENCODING 939
SWIDTH 600 0
DWIDTH 5 0
BBX 5 7 0 0
BITMAP
083600
000000
640730
0A1900
05B200
00A000
00A000
ENDCHAR
STARTCHAR alphatonos
ENCODING 940
SWIDTH 600 0
DWIDTH 5 0
BBX 5 6 0 0
BITMAP
006300
008000
1CE930
761D00
751B00
2DDA80
ENDCHAR
STARTCHAR epsilontonos
ENCODING 941
SWIDTH 600 0
DWIDTH 5 0
BBX 5 6 0 0
BITMAP
005400
007100
0CE900
0BF600
390310
1BFB10
ENDCHAR
STARTCHAR etatonos
ENCODING 942
SWIDTH 600 0
DWIDTH 5 0
BBX 5 8 0 -2
BITMAP
006300
007000
39DC00
3B1A10
370820
370820
000820
000820
ENDCHAR
STARTCHAR iotatonos
ENCODING 943
SWIDTH 600 0
DWIDTH 5 0
BBX 5 6 0 0
BITMAP
009000
008000
5F9000
009000
00B100
00CE10
ENDCHAR
STARTCHAR upsilondieresistonos
ENCODING 944
SWIDTH 600 0
DWIDTH 5 0
BBX 5 6 0 0
BITMAP
088800
006000
550910
540730
571B20
1CE800
ENDCHAR
STARTCHAR alpha
ENCODING 945
SWIDTH 600 0
DWIDTH 5 0
BBX 5 4 0 0
BITMAP
1CE930
761D00
751B00
2DDA80
ENDCHAR
STARTCHAR beta
ENCODING 946
SWIDTH 600 0
DWIDTH 5 0
BBX 5 8 0 -2
BITMAP
0AE800
392900
46D900
460840
491840
4BEB00
460000
460000
ENDCHAR
STARTCHAR gamma
ENCODING 947
SWIDTH 600 0
DWIDTH 5 0
BBX 5 7 0 -2
BITMAP
100000
560730
0A0A00
065900
02D200
00A000
00A000
ENDCHAR
STARTCHAR delta
ENCODING 948
SWIDTH 600 0
DWIDTH 5 0
BBX 5 6 0 0
BITMAP
0CEA10
081300
068200
450710
671930
1BEA00
ENDCHAR
STARTCHAR epsilon
ENCODING 949
SWIDTH 600 0
DWIDTH 5 0
BBX 5 4 0 0
BITMAP
0CE900
0BF600
390310
1BFB10
ENDCHAR
STARTCHAR zeta
ENCODING 950
SWIDTH 600 0
DWIDTH 5 0
BBX 4 8 1 -2
BITMAP
CFF3
0560
4400
9000
C200
8EB0
0092
0070
ENDCHAR
STARTCHAR eta
ENCODING 951
SWIDTH 600 0
DWIDTH 5 0
BBX 5 6 0 -2
BITMAP
39DC00
3B1A10
370820
370820
000820
000820
ENDCHAR
STARTCHAR theta
ENCODING 952
SWIDTH 600 0
DWIDTH 5 0
BBX 5 6 0 0
BITMAP
09E700
371910
6FFF30
640730
391B10
0AE700
ENDCHAR
STARTCHAR iota
ENCODING 953
SWIDTH 600 0
DWIDTH 5 0
BBX 5 4 0 0
BITMAP
5F9000
009000
00B100
00CE10
ENDCHAR
STARTCHAR kappa
ENCODING 954
SWIDTH 600 0
DWIDTH 5 0
BBX 5 4 0 0
BITMAP
281A40
29C300
2D5600
280830
ENDCHAR
STARTCHAR lambda
ENCODING 955
SWIDTH 600 0
DWIDTH 5 0
BBX 5 6 0 0
BITMAP
6E4000
02A000
01E200
075700
0A0A00
560740
ENDCHAR
STARTCHAR uni03BC
ENCODING 956
SWIDTH 600 0
DWIDTH 5 0
BBX 5 6 0 -2
BITMAP
550A00
550900
581C00
5DDA50
540000
550000
ENDCHAR
STARTCHAR nu
ENCODING 957
SWIDTH 600 0
DWIDTH 5 0
BBX 5 5 0 0
BITMAP
100000
560630
0A0900
056700
01D100
ENDCHAR
STARTCHAR xi
ENCODING 958
SWIDTH 600 0
DWIDTH 5 0
BBX 5 8 0 -2
BITMAP
4FFF30
083000
04FA00
0B2000
1C2000
07EC10
000930
000700
ENDCHAR
STARTCHAR omicron
ENCODING 959
SWIDTH 600 0
DWIDTH 5 0
BBX 5 4 0 0
BITMAP
1BE900
671930
660930
1BE900
ENDCHAR
STARTCHAR pi
ENCODING 960
SWIDTH 600 0
DWIDTH 5 0
BBX 5 4 0 0
BITMAP
BFFF90
090900
090A00
280A60
ENDCHAR
STARTCHAR rho
ENCODING 961
SWIDTH 600 0
DWIDTH 5 0
BBX 5 6 0 -2
BITMAP
08EB00
291840
480930
4CEA00
460000
460000
ENDCHAR
STARTCHAR uni03C2
ENCODING 962
SWIDTH 600 0
DWIDTH 5 0
BBX 4 6 0 -2
BITMAP
08EB
3A13
3A10
08E9
001A
0008
ENDCHAR
STARTCHAR sigma
ENCODING 963
SWIDTH 600 0
DWIDTH 5 0
BBX 5 4 0 0
BITMAP
1BFF90
661800
661B10
1BE800
ENDCHAR
STARTCHAR tau
ENCODING 964
SWIDTH 600 0
DWIDTH 5 0
BBX 5 4 0 0
BITMAP
7FFF40
009000
00A000
00BA00
ENDCHAR
STARTCHAR upsilon
ENCODING 965
SWIDTH 600 0
DWIDTH 5 0
BBX 5 4 0 0
BITMAP
550910
540730
571B20
1CE800
ENDCHAR
STARTCHAR phi
ENCODING 966
SWIDTH 600 0
DWIDTH 5 0
BBX 5 7 0 -2
BITMAP
00A000
2CFB10
84A750
84A750
2CFB10
00A000
00A000
ENDCHAR
STARTCHAR chi
ENCODING 967
SWIDTH 600 0
DWIDTH 5 0
BBX 5 6 0 -2
BITMAP
470A10
097600
01D000
05F300
0B4A00
470830
ENDCHAR
STARTCHAR psi
ENCODING 968
SWIDTH 600 0
DWIDTH 5 0
BBX 5 7 0 -2
BITMAP
00A000
81A530
82A360
75A750
2DFB00
00A000
00A000
ENDCHAR
STARTCHAR omega
ENCODING 969
SWIDTH 600 0
DWIDTH 5 0
BBX 5 4 0 0
BITMAP
450720
909370
A2B470
5EAE30
ENDCHAR
STARTCHAR iotadieresis
ENCODING 970
SWIDTH 600 0
DWIDTH 5 0
BBX 5 6 0 0
BITMAP
094500
000000
5F9000
009000
00B100
00CE10
ENDCHAR
STARTCHAR upsilondieresis
ENCODING 971
SWIDTH 600 0
DWIDTH 5 0
BBX 5 6 0 0
BITMAP
093700
000000
550910
540730
571B20
1CE800
ENDCHAR
STARTCHAR omicrontonos
ENCODING 972
SWIDTH 600 0
DWIDTH 5 0
BBX 5 6 0 0
BITMAP
008100
008000
1BE900
671930
660930
1BE900
ENDCHAR
STARTCHAR upsilontonos
ENCODING 973
SWIDTH 600 0
DWIDTH 5 0
BBX 5 6 0 0
BITMAP
009000
008000
550910
540730
571B20
1CE800
ENDCHAR
STARTCHAR omegatonos
ENCODING 974
SWIDTH 600 0
DWIDTH 5 0
BBX 5 6 0 0
BITMAP
008100
008000
450720
909370
A2B470
5EAE30
ENDCHAR
STARTCHAR uni03D0
ENCODING 976
SWIDTH 600 0
DWIDTH 5 0
BBX 5 6 0 0
BITMAP
0AE700
391A00
499500
470720
3A1850
09EB10
ENDCHAR
STARTCHAR uni03D1
ENCODING 977
SWIDTH 600 0
DWIDTH 5 0
BBX 5 6 0 0
BITMAP
1CE600
581910
1BFF30
230730
291B10
0BE700
ENDCHAR
STARTCHAR uni03D5
ENCODING 981
SWIDTH 600 0
DWIDTH 5 0
BBX 5 7 0 -2
BITMAP
00A000
2CFB10
84A750
84A750
2CFB10
00A000
00A000
ENDCHAR
STARTCHAR uni03D7
ENCODING 983
SWIDTH 600 0
DWIDTH 5 0
BBX 5 5 0 -1
BITMAP
281A40
29C300
2D5700
280840
000820
ENDCHAR
STARTCHAR uni03D9
ENCODING 985
SWIDTH 600 0
DWIDTH 5 0
BBX 5 6 0 -2
BITMAP
1BE900
661930
660930
1CF900
009000
00A000
ENDCHAR
STARTCHAR uni03DB
ENCODING 987
SWIDTH 600 0
DWIDTH 5 0
BBX 5 6 0 -2
BITMAP
08EF20
2A1000
3A1000
08E900
001A00
000700
ENDCHAR
STARTCHAR uni03DD
ENCODING 989
SWIDTH 600 0
DWIDTH 5 0
BBX 4 6 1 -2
BITMAP
CFF3
A220
B870
9000
9000
A000
ENDCHAR
STARTCHAR uni03E1
ENCODING 993
SWIDTH 600 0
DWIDTH 5 0
BBX 5 7 0 -1
BITMAP
092000
01A100
019700
392A00
049B10
020730
000720
ENDCHAR
STARTCHAR uni0400
ENCODING 1024
SWIDTH 600 0
DWIDTH 5 0
BBX 5 7 0 0
BITMAP
017000
000000
1FFF20
190000
1FFC00
190000
1FFF40
ENDCHAR
STARTCHAR uni0401
ENCODING 1025
SWIDTH 600 0
DWIDTH 5 0
BBX 5 7 0 0
BITMAP
063900
000000
1FFF20
190000
1FFC00
190000
1FFF40
ENDCHAR
STARTCHAR uni0402
ENCODING 1026
SWIDTH 600 0
DWIDTH 5 0
BBX 5 5 0 0
BITMAP
EFFB00
09FD20
091580
091380
093E30
ENDCHAR
STARTCHAR uni0403
ENCODING 1027
SWIDTH 600 0
DWIDTH 5 0
BBX 4 7 1 0
BITMAP
0720
0000
EFF4
A000
A000
A000
A000
ENDCHAR
STARTCHAR uni0404
ENCODING 1028
SWIDTH 600 0
DWIDTH 5 0
BBX 5 5 0 0
BITMAP
08EB10
481310
6FF600
481320
09EB10
ENDCHAR
STARTCHAR uni0405
ENCODING 1029
SWIDTH 600 0
DWIDTH 5 0
BBX 5 5 0 0
BITMAP
0BE800
2A1400
05A700
341930
1AEB10
ENDCHAR
STARTCHAR uni0406
ENCODING 1030
SWIDTH 600 0
DWIDTH 5 0
BBX 5 5 0 0
BITMAP
4FFF10
00A000
00A000
00A000
4FFF10
ENDCHAR
STARTCHAR uni0407
ENCODING 1031
SWIDTH 600 0
DWIDTH 5 0
BBX 5 7 0 0
BITMAP
083600
000000
4FFF10
00A000
00A000
00A000
4FFF10
ENDCHAR
STARTCHAR uni0408
ENCODING 1032
SWIDTH 600 0
DWIDTH 5 0
BBX 4 5 0 0
BITMAP
0EFE
000A
000A
251B
0AE7
ENDCHAR
STARTCHAR uni0409
ENCODING 1033
SWIDTH 600 0
DWIDTH 5 0
BBX 5 5 0 0
BITMAP
1FD000
279000
46CE40
749380
D1CE30
ENDCHAR
STARTCHAR uni040A
ENCODING 1034
SWIDTH 600 0
DWIDTH 5 0
BBX 5 5 0 0
BITMAP
909000
909000
AFFE40
909380
90DE30
ENDCHAR
STARTCHAR uni040B
ENCODING 1035
SWIDTH 600 0
DWIDTH 5 0
BBX 5 5 0 0
BITMAP
EFFB00
09FD20
091570
091280
091280
ENDCHAR
STARTCHAR uni040C
ENCODING 1036
SWIDTH 600 0
DWIDTH 5 0
BBX 5 7 0 0
BITMAP
006300
000000
370A70
375800
3FF100
374900
370750
ENDCHAR
STARTCHAR uni040D
ENCODING 1037
SWIDTH 600 0
DWIDTH 5 0
BBX 5 7 0 0
BITMAP
036000
000000
640C30
646B30
65A730
6A3730
690730
ENDCHAR
STARTCHAR uni040E
ENCODING 1038
SWIDTH 600 0
DWIDTH 5 0
BBX 5 7 0 0
BITMAP
0A2900
06E400
650740
0A0A00
067600
01D000
0E6000
ENDCHAR
STARTCHAR uni040F
ENCODING 1039
SWIDTH 600 0
DWIDTH 5 0
BBX 5 7 0 -2
BITMAP
640730
640730
640730
640730
6FFF30
009000
009000
ENDCHAR
STARTCHAR uni0410
ENCODING 1040
SWIDTH 600 0
DWIDTH 5 0
BBX 5 5 0 0
BITMAP
02D000
076500
090900
3FFE10
930660
ENDCHAR
STARTCHAR uni0411
ENCODING 1041
SWIDTH 600 0
DWIDTH 5 0
BBX 5 5 0 0
BITMAP
3FFF00
370000
3FFC10
370750
3FFC10
ENDCHAR
STARTCHAR uni0412
ENCODING 1042
SWIDTH 600 0
DWIDTH 5 0
BBX 5 5 0 0
BITMAP
3FFA00
371B00
3FFA00
370850
3FFC10
ENDCHAR
STARTCHAR uni0413
ENCODING 1043
SWIDTH 600 0
DWIDTH 5 0
BBX 4 5 1 0
BITMAP
EFF4
A000
A000
A000
A000
ENDCHAR
STARTCHAR uni0414
ENCODING 1044
SWIDTH 600 0
DWIDTH 5 0
BBX 5 7 0 -2
BITMAP
08FF10
0A0910
0A0910
460910
CFFF90
900090
900080
ENDCHAR
STARTCHAR uni0415
ENCODING 1045
SWIDTH 600 0
DWIDTH 5 0
BBX 5 5 0 0
BITMAP
1FFF20
190000
1FFC00
190000
1FFF40
ENDCHAR
STARTCHAR uni0416
ENCODING 1046
SWIDTH 600 0
DWIDTH 5 0
BBX 5 5 0 0
BITMAP
D295B0
489A10
0EFC00
569920
A09280
ENDCHAR
STARTCHAR uni0417
ENCODING 1047
SWIDTH 600 0
DWIDTH 5 0
BBX 5 5 0 0
BITMAP
0AE900
141B00
06FA00
341940
1BFB10
ENDCHAR
STARTCHAR uni0418
ENCODING 1048
SWIDTH 600 0
DWIDTH 5 0
BBX 5 5 0 0
BITMAP
640C30
646B30
65A730
6A3730
690730
ENDCHAR
STARTCHAR uni0419
ENCODING 1049
SWIDTH 600 0
DWIDTH 5 0
BBX 5 7 0 0
BITMAP
0A2900
06E400
640C30
646B30
65A730
6A3730
690730
ENDCHAR
STARTCHAR uni041A
ENCODING 1050
SWIDTH 600 0
DWIDTH 5 0
BBX 5 5 0 0
BITMAP
370A70
375800
3FF100
374900
370750
ENDCHAR
STARTCHAR uni041B
ENCODING 1051
SWIDTH 600 0
DWIDTH 5 0
BBX 5 5 0 0
BITMAP
07FF30
0A1830
0B0830
3A0830
D40830
ENDCHAR
STARTCHAR uni041C
ENCODING 1052
SWIDTH 600 0
DWIDTH 5 0
BBX 5 5 0 0
BITMAP
680B30
6B2C30
67A830
637630
630630
ENDCHAR
STARTCHAR uni041D
ENCODING 1053
SWIDTH 600 0
DWIDTH 5 0
BBX 5 5 0 0
BITMAP
640830
640830
6FFF30
640830
640830
ENDCHAR
STARTCHAR uni041E
ENCODING 1054
SWIDTH 600 0
DWIDTH 5 0
BBX 5 5 0 0
BITMAP
1BE900
771A40
920560
771A30
1BE900
ENDCHAR
STARTCHAR uni041F
ENCODING 1055
SWIDTH 600 0
DWIDTH 5 0
BBX 5 5 0 0
BITMAP
6FFF30
640830
640830
640830
640830
ENDCHAR
STARTCHAR uni0420
ENCODING 1056
SWIDTH 600 0
DWIDTH 5 0
BBX 5 5 0 0
BITMAP
3FFC10
370840
3FFB10
370000
370000
ENDCHAR
STARTCHAR uni0421
ENCODING 1057
SWIDTH 600 0
DWIDTH 5 0
BBX 5 5 0 0
BITMAP
08EB10
4A1310
740000
4A1320
08EB10
ENDCHAR
STARTCHAR uni0422
ENCODING 1058
SWIDTH 600 0
DWIDTH 5 0
BBX 5 5 0 0
BITMAP
AFFF70
00A000
00A000
00A000
00A000
ENDCHAR
STARTCHAR uni0423
ENCODING 1059
SWIDTH 600 0
DWIDTH 5 0
BBX 5 5 0 0
BITMAP
650740
0A0A00
067600
01D000
0E6000
ENDCHAR
STARTCHAR uni0424
ENCODING 1060
SWIDTH 600 0
DWIDTH 5 0
BBX 5 5 0 0
BITMAP
009000
5DFC30
A29480
5DFC30
009000
ENDCHAR
STARTCHAR uni0425
ENCODING 1061
SWIDTH 600 0
DWIDTH 5 0
BBX 5 5 0 0
BITMAP
380910
086500
02E000
095700
460920
ENDCHAR
STARTCHAR uni0426
ENCODING 1062
SWIDTH 600 0
DWIDTH 5 0
BBX 5 7 0 -2
BITMAP
640820
640820
640820
640820
6FFFB0
000090
000080
ENDCHAR
STARTCHAR uni0427
ENCODING 1063
SWIDTH 600 0
DWIDTH 5 0
BBX 5 5 0 0
BITMAP
730820
760820
2CFF20
000820
000820
ENDCHAR
STARTCHAR uni0428
ENCODING 1064
SWIDTH 600 0
DWIDTH 5 0
BBX 5 5 0 0
BITMAP
909270
909270
909270
909270
AFFF70
ENDCHAR
STARTCHAR uni0429
ENCODING 1065
SWIDTH 600 0
DWIDTH 5 0
BBX 5 7 0 -2
BITMAP
908630
908630
908630
908630
BFFFB0
000080
000080
ENDCHAR
STARTCHAR uni042A
ENCODING 1066
SWIDTH 600 0
DWIDTH 5 0
BBX 5 5 0 0
BITMAP
DF4000
064000
06FD30
064480
06FD30
ENDCHAR
STARTCHAR uni042B
ENCODING 1067
SWIDTH 600 0
DWIDTH 5 0
BBX 5 5 0 0
BITMAP
810450
810450
8FA450
81A450
815450
ENDCHAR
STARTCHAR uni042C
ENCODING 1068
SWIDTH 600 0
DWIDTH 5 0
BBX 5 5 0 0
BITMAP
370000
370000
3FFC10
370850
3FFB10
ENDCHAR
STARTCHAR uni042D
ENCODING 1069
SWIDTH 600 0
DWIDTH 5 0
BBX 5 5 0 0
BITMAP
2CE600
221A10
09FF30
421A10
2DE600
ENDCHAR
STARTCHAR uni042E
ENCODING 1070
SWIDTH 600 0
DWIDTH 5 0
BBX 5 5 0 0
BITMAP
A1CD10
A57660
AF4370
A57660
A1CD10
ENDCHAR
STARTCHAR uni042F
ENCODING 1071
SWIDTH 600 0
DWIDTH 5 0
BBX 4 5 0 0
BITMAP
2DFF
760A
2CFF
0A2A
650A
ENDCHAR
STARTCHAR uni0430
ENCODING 1072
SWIDTH 600 0
DWIDTH 5 0
BBX 5 4 0 0
BITMAP
09EA00
1BDF10
482A20
2DDB20
ENDCHAR
STARTCHAR uni0431
ENCODING 1073
SWIDTH 600 0
DWIDTH 5 0
BBX 5 6 0 0
BITMAP
03AD00
1B5200
5CEA00
681930
471A20
0AE900
ENDCHAR
STARTCHAR uni0432
ENCODING 1074
SWIDTH 600 0
DWIDTH 5 0
BBX 5 4 0 0
BITMAP
3FFD10
3FFD00
370840
3FFC10
ENDCHAR
STARTCHAR uni0433
ENCODING 1075
SWIDTH 600 0
DWIDTH 5 0
BBX 4 4 1 0
BITMAP
CFF3
A000
A000
A000
ENDCHAR
STARTCHAR uni0434
ENCODING 1076
SWIDTH 600 0
DWIDTH 5 0
BBX 5 6 0 -2
BITMAP
0CFD00
0A0A00
270A00
AFFF70
900360
900360
ENDCHAR
STARTCHAR uni0435
ENCODING 1077
SWIDTH 600 0
DWIDTH 5 0
BBX 5 4 0 0
BITMAP
0AEB00
5FFF40
581300
0AEA00
ENDCHAR
STARTCHAR uni0436
ENCODING 1078
SWIDTH 600 0
DWIDTH 5 0
BBX 5 4 0 0
BITMAP
C4A790
1FFD00
56A920
A0A280
ENDCHAR
STARTCHAR uni0437
ENCODING 1079
SWIDTH 600 0
DWIDTH 5 0
BBX 5 4 0 0
BITMAP
1CFA00
29F900
221B10
2CE900
ENDCHAR
STARTCHAR uni0438
ENCODING 1080
SWIDTH 600 0
DWIDTH 5 0
BBX 4 4 0 0
BITMAP
371D
378A
395A
3B0A
ENDCHAR
STARTCHAR uni0439
ENCODING 1081
SWIDTH 600 0
DWIDTH 5 0
BBX 4 6 0 0
BITMAP
0919
05E5
371D
378A
395A
3B0A
ENDCHAR
STARTCHAR uni043A
ENCODING 1082
SWIDTH 600 0
DWIDTH 5 0
BBX 5 4 0 0
BITMAP
282C40
2FF500
282900
280830
ENDCHAR
STARTCHAR uni043B
ENCODING 1083
SWIDTH 600 0
DWIDTH 5 0
BBX 4 4 0 0
BITMAP
0BFF
0A0A
1A0A
A50A
ENDCHAR
STARTCHAR uni043C
ENCODING 1084
SWIDTH 600 0
DWIDTH 5 0
BBX 5 4 0 0
BITMAP
770A40
7A2B40
76B740
727540
ENDCHAR
STARTCHAR uni043D
ENCODING 1085
SWIDTH 600 0
DWIDTH 5 0
BBX 5 4 0 0
BITMAP
460910
4FFF10
460910
460910
ENDCHAR
STARTCHAR uni043E
ENCODING 1086
SWIDTH 600 0
DWIDTH 5 0
BBX 5 4 0 0
BITMAP
1BE900
661930
660930
1BE900
ENDCHAR
STARTCHAR uni043F
ENCODING 1087
SWIDTH 600 0
DWIDTH 5 0
BBX 5 4 0 0
BITMAP
4FFF10
460910
460910
460910
ENDCHAR
STARTCHAR uni0440
ENCODING 1088
SWIDTH 600 0
DWIDTH 5 0
BBX 5 6 0 -2
BITMAP
4BEB00
491840
491930
4CE900
460000
460000
ENDCHAR
STARTCHAR uni0441
ENCODING 1089
SWIDTH 600 0
DWIDTH 5 0
BBX 5 4 0 0
BITMAP
08EB00
491310
491310
09EB00
ENDCHAR
STARTCHAR uni0442
ENCODING 1090
SWIDTH 600 0
DWIDTH 5 0
BBX 5 4 0 0
BITMAP
7FFF40
00A000
00A000
00A000
ENDCHAR
STARTCHAR uni0443
ENCODING 1091
SWIDTH 600 0
DWIDTH 5 0
BBX 5 6 0 -2
BITMAP
640630
190900
093700
03D200
01A000
6D3000
ENDCHAR
STARTCHAR uni0444
ENCODING 1092
SWIDTH 600 0
DWIDTH 5 0
BBX 5 8 0 -2
BITMAP
00A000
00A000
4EEE30
A2A480
A19470
5FFE20
009000
00A000
ENDCHAR
STARTCHAR uni0445
ENCODING 1093
SWIDTH 600 0
DWIDTH 5 0
BBX 5 4 0 0
BITMAP
190900
05B200
06A300
280A10
ENDCHAR
STARTCHAR uni0446
ENCODING 1094
SWIDTH 600 0
DWIDTH 5 0
BBX 5 6 0 -2
BITMAP
460A00
460A00
460A00
4FFF80
000180
000170
ENDCHAR
STARTCHAR uni0447
ENCODING 1095
SWIDTH 600 0
DWIDTH 5 0
BBX 4 4 0 0
BITMAP
470A
1DFE
000A
000A
ENDCHAR
STARTCHAR uni0448
ENCODING 1096
SWIDTH 600 0
DWIDTH 5 0
BBX 5 4 0 0
BITMAP
829550
829550
829550
8FFF50
ENDCHAR
STARTCHAR uni0449
ENCODING 1097
SWIDTH 600 0
DWIDTH 5 0
BBX 5 6 0 -2
BITMAP
829640
829640
829640
8FFFB0
000080
000080
ENDCHAR
STARTCHAR uni044A
ENCODING 1098
SWIDTH 600 0
DWIDTH 5 0
BBX 5 4 0 0
BITMAP
BF4000
06FD20
064750
06FD20
ENDCHAR
STARTCHAR uni044B
ENCODING 1099
SWIDTH 600 0
DWIDTH 5 0
BBX 5 4 0 0
BITMAP
720540
7FB640
73A740
7FB640
ENDCHAR
STARTCHAR uni044C
ENCODING 1100
SWIDTH 600 0
DWIDTH 5 0
BBX 4 4 1 0
BITMAP
A000
FFB0
A0B1
FFB0
ENDCHAR
STARTCHAR uni044D
ENCODING 1101
SWIDTH 600 0
DWIDTH 5 0
BBX 5 4 0 0
BITMAP
1CE700
29FF10
221B10
2DE700
ENDCHAR
STARTCHAR uni044E
ENCODING 1102
SWIDTH 600 0
DWIDTH 5 0
BBX 5 4 0 0
BITMAP
A2DD20
AF6570
A46570
A1CD20
ENDCHAR
STARTCHAR uni044F
ENCODING 1103
SWIDTH 600 0
DWIDTH 5 0
BBX 4 4 0 0
BITMAP
3EFF
3DFF
0A1A
470A
ENDCHAR
STARTCHAR uni0450
ENCODING 1104
SWIDTH 600 0
DWIDTH 5 0
BBX 5 6 0 0
BITMAP
054000
008000
0AEB00
5FFF40
581300
0AEA00
ENDCHAR
STARTCHAR uni0451
ENCODING 1105
SWIDTH 600 0
DWIDTH 5 0
BBX 5 6 0 0
BITMAP
082800
000000
0AEB00
5FFF40
581300
0AEA00
ENDCHAR
STARTCHAR uni0452
ENCODING 1106
SWIDTH 600 0
DWIDTH 5 0
BBX 5 8 0 -2
BITMAP
460000
CFF200
460000
4AEB00
481930
460640
000A30
00BA00
ENDCHAR
STARTCHAR uni0453
ENCODING 1107
SWIDTH 600 0
DWIDTH 5 0
BBX 4 6 1 0
BITMAP
0180
0720
CFF3
A000
A000
A000
ENDCHAR
STARTCHAR uni0454
ENCODING 1108
SWIDTH 600 0
DWIDTH 5 0
BBX 5 4 0 0
BITMAP
09EB00
4FF910
491310
09EB10
ENDCHAR
STARTCHAR uni0455
ENCODING 1109
SWIDTH 600 0
DWIDTH 5 0
BBX 5 4 0 0
BITMAP
1CE700
1A5400
244B20
1AFB10
ENDCHAR
STARTCHAR uni0456
ENCODING 1110
SWIDTH 600 0
DWIDTH 5 0
BBX 4 6 0 0
BITMAP
0093
0000
4FF3
0073
0073
0073
ENDCHAR
STARTCHAR uni0457
ENCODING 1111
SWIDTH 600 0
DWIDTH 5 0
BBX 4 6 0 0
BITMAP
0459
0000
4FF3
0073
0073
0073
ENDCHAR
STARTCHAR uni0458
ENCODING 1112
SWIDTH 600 0
DWIDTH 5 0
BBX 4 8 0 -2
BITMAP
0093
0000
4FF3
0073
0073
0073
1092
5EB0
ENDCHAR
STARTCHAR uni0459
ENCODING 1113
SWIDTH 600 0
DWIDTH 5 0
BBX 5 4 0 0
BITMAP
2FD000
36CD20
65A560
D1CD20
ENDCHAR
STARTCHAR uni045A
ENCODING 1114
SWIDTH 600 0
DWIDTH 5 0
BBX 5 4 0 0
BITMAP
82A000
8DFD20
85A560
82DD20
ENDCHAR
STARTCHAR uni045B
ENCODING 1115
SWIDTH 600 0
DWIDTH 5 0
BBX 5 6 0 0
BITMAP
460000
CFF200
460000
4AED10
480930
460730
ENDCHAR
STARTCHAR uni045C
ENCODING 1116
SWIDTH 600 0
DWIDTH 5 0
BBX 5 6 0 0
BITMAP
003600
008000
282C40
2FF500
282900
280830
ENDCHAR
STARTCHAR uni045D
ENCODING 1117
SWIDTH 600 0
DWIDTH 5 0
BBX 4 6 0 0
BITMAP
0530
0080
371D
378A
395A
3B0A
ENDCHAR
STARTCHAR uni045E
ENCODING 1118
SWIDTH 600 0
DWIDTH 5 0
BBX 5 8 0 -2
BITMAP
091800
06E400
640630
190900
093700
03D200
01A000
6D3000
ENDCHAR
STARTCHAR uni045F
ENCODING 1119
SWIDTH 600 0
DWIDTH 5 0
BBX 4 6 0 -2
BITMAP
370A
370A
370A
3FFF
00B6
0090
ENDCHAR
STARTCHAR uni0462
ENCODING 1122
SWIDTH 600 0
DWIDTH 5 0
BBX 5 6 0 0
BITMAP
0A0000
CFFB00
0A0000
0BFC20
0A0750
0BFC10
ENDCHAR
STARTCHAR uni0463
ENCODING 1123
SWIDTH 600 0
DWIDTH 5 0
BBX 5 5 0 0
BITMAP
073000
AFFA00
07FD10
073850
07FD10
ENDCHAR
STARTCHAR uni0472
ENCODING 1138
SWIDTH 600 0
DWIDTH 5 0
BBX 5 5 0 0
BITMAP
1BE900
751840
9FFF60
751830
1BE900
ENDCHAR
STARTCHAR uni0473
ENCODING 1139
SWIDTH 600 0
DWIDTH 5 0
BBX 5 4 0 0
BITMAP
1BE900
6FFF30
661930
1BE900
ENDCHAR
STARTCHAR uni0474
ENCODING 1140
SWIDTH 600 0
DWIDTH 5 0
BBX 5 5 0 0
BITMAP
8305A0
370B10
0A1900
087500
03D000
ENDCHAR
STARTCHAR uni0475
ENCODING 1141
SWIDTH 600 0
DWIDTH 5 0
BBX 5 4 0 0
BITMAP
460960
0A1A00
086500
03D100
ENDCHAR
STARTCHAR uni0490
ENCODING 1168
SWIDTH 600 0
DWIDTH 5 0
BBX 4 6 1 0
BITMAP
0054
EFF3
A000
A000
A000
A000
ENDCHAR
STARTCHAR uni0491
ENCODING 1169
SWIDTH 600 0
DWIDTH 5 0
BBX 3 5 1 0
BITMAP
0080
BFF0
A000
A000
A000
ENDCHAR
STARTCHAR uni0492
ENCODING 1170
SWIDTH 600 0
DWIDTH 5 0
BBX 5 5 0 0
BITMAP
0DFF30
0A0000
7FF200
0A0000
0A0000
ENDCHAR
STARTCHAR uni0493
ENCODING 1171
SWIDTH 600 0
DWIDTH 5 0
BBX 5 4 0 0
BITMAP
0CFF30
0A0000
6FF300
0A0000
ENDCHAR
STARTCHAR uni0496
ENCODING 1174
SWIDTH 600 0
DWIDTH 5 0
BBX 5 7 0 -2
BITMAP
D295B0
489A10
0EFC00
569940
A092E0
000080
000070
ENDCHAR
STARTCHAR uni0497
ENCODING 1175
SWIDTH 600 0
DWIDTH 5 0
BBX 5 6 0 -2
BITMAP
C4A790
1FFD00
56A940
A0A2D0
000080
000070
ENDCHAR
STARTCHAR uni0498
ENCODING 1176
SWIDTH 600 0
DWIDTH 5 0
BBX 5 7 0 -2
BITMAP
0AE900
141B00
06FA00
341940
1BFB10
00A000
009000
ENDCHAR
STARTCHAR uni0499
ENCODING 1177
SWIDTH 600 0
DWIDTH 5 0
BBX 5 6 0 -2
BITMAP
1CFA00
29F900
221B10
2CFA00
009000
008000
ENDCHAR
STARTCHAR uni049A
ENCODING 1178
SWIDTH 600 0
DWIDTH 5 0
BBX 5 7 0 -2
BITMAP
370A70
375800
3FF200
374C10
3707B0
000080
000080
ENDCHAR
STARTCHAR uni049B
ENCODING 1179
SWIDTH 600 0
DWIDTH 5 0
BBX 5 6 0 -2
BITMAP
281C40
2DD500
2A6A00
280990
000080
000080
ENDCHAR
STARTCHAR uni04A0
ENCODING 1184
SWIDTH 600 0
DWIDTH 5 0
BBX 5 5 0 0
BITMAP
DF4690
054A00
05F700
054B10
054380
ENDCHAR
STARTCHAR uni04A1
ENCODING 1185
SWIDTH 600 0
DWIDTH 5 0
BBX 5 4 0 0
BITMAP
BF3A70
06FA00
063A00
063460
ENDCHAR
STARTCHAR uni04A2
ENCODING 1186
SWIDTH 600 0
DWIDTH 5 0
BBX 5 7 0 -2
BITMAP
640820
640820
6FFF20
640820
6408B0
000080
000080
ENDCHAR
STARTCHAR uni04A3
ENCODING 1187
SWIDTH 600 0
DWIDTH 5 0
BBX 5 6 0 -2
BITMAP
460A00
4FFF00
460A00
460A80
000180
000170
ENDCHAR
STARTCHAR uni04AA
ENCODING 1194
SWIDTH 600 0
DWIDTH 5 0
BBX 5 7 0 -2
BITMAP
08EB10
4A1310
740000
4A1320
09EB10
008200
008200
ENDCHAR
STARTCHAR uni04AB
ENCODING 1195
SWIDTH 600 0
DWIDTH 5 0
BBX 5 6 0 -2
BITMAP
08EB00
491310
491310
09FB10
009000
009000
ENDCHAR
STARTCHAR uni04AE
ENCODING 1198
SWIDTH 600 0
DWIDTH 5 0
BBX 5 5 0 0
BITMAP
640730
0A1900
05B200
00A000
00A000
ENDCHAR
STARTCHAR uni04AF
ENCODING 1199
SWIDTH 600 0
DWIDTH 5 0
BBX 5 6 0 -2
BITMAP
640730
190900
094600
03C100
00A000
00A000
ENDCHAR
STARTCHAR uni04B0
ENCODING 1200
SWIDTH 600 0
DWIDTH 5 0
BBX 5 5 0 0
BITMAP
540620
051400
2FBE00
00A000
00A000
ENDCHAR
STARTCHAR uni04B1
ENCODING 1201
SWIDTH 600 0
DWIDTH 5 0
BBX 5 6 0 -2
BITMAP
540620
070700
054300
3FDF00
00A000
00A000
ENDCHAR
STARTCHAR uni04B2
ENCODING 1202
SWIDTH 600 0
DWIDTH 5 0
BBX 5 7 0 -2
BITMAP
380910
086500
02E100
095A00
460A80
000170
000170
ENDCHAR
STARTCHAR uni04B3
ENCODING 1203
SWIDTH 600 0
DWIDTH 5 0
BBX 5 6 0 -2
BITMAP
190900
05B200
06A500
280C70
000270
000270
ENDCHAR
STARTCHAR uni04B6
ENCODING 1206
SWIDTH 600 0
DWIDTH 5 0
BBX 5 7 0 -2
BITMAP
730910
760910
2DFF10
000910
0009A0
000090
000080
ENDCHAR
STARTCHAR uni04B7
ENCODING 1207
SWIDTH 600 0
DWIDTH 5 0
BBX 5 6 0 -2
BITMAP
470A00
2DFD00
000A00
000C70
000360
000360
ENDCHAR
STARTCHAR uni04BA
ENCODING 1210
SWIDTH 600 0
DWIDTH 5 0
BBX 5 5 0 0
BITMAP
460000
4FF900
461A20
460640
460640
ENDCHAR
STARTCHAR uni04BB
ENCODING 1211
SWIDTH 600 0
DWIDTH 5 0
BBX 5 6 0 0
BITMAP
460000
460000
4AEC00
4A1A20
460730
460730
ENDCHAR
STARTCHAR uni04C0
ENCODING 1216
SWIDTH 600 0
DWIDTH 5 0
BBX 5 5 0 0
BITMAP
4FFF10
00A000
00A000
00A000
4FFF10
ENDCHAR
STARTCHAR uni04C1
ENCODING 1217
SWIDTH 600 0
DWIDTH 5 0
BBX 5 7 0 0
BITMAP
0A2800
06E300
D295B0
489A10
0EFC00
569920
A09280
ENDCHAR
STARTCHAR uni04C2
ENCODING 1218
SWIDTH 600 0
DWIDTH 5 0
BBX 5 6 0 0
BITMAP
091800
06E300
C4A790
1FFD00
56A920
A0A280
ENDCHAR
STARTCHAR uni04CF
ENCODING 1231
SWIDTH 600 0
DWIDTH 5 0
BBX 5 6 0 0
BITMAP
6F9000
009000
009000
009000
00B100
00BE20
ENDCHAR
STARTCHAR uni04D0
ENCODING 1232
SWIDTH 600 0
DWIDTH 5 0
BBX 5 7 0 0
BITMAP
0A2800
06E300
02D000
076500
090900
3FFE10
930660
ENDCHAR
STARTCHAR uni04D1
ENCODING 1233
SWIDTH 600 0
DWIDTH 5 0
BBX 5 6 0 0
BITMAP
091900
04E500
09EA00
1BDF10
482A20
2DDB20
ENDCHAR
STARTCHAR uni04D4
ENCODING 1236
SWIDTH 600 0
DWIDTH 5 0
BBX 5 5 0 0
BITMAP
02EFA0
089200
097F50
6FF200
B17FB0
ENDCHAR
STARTCHAR uni04D5
ENCODING 1237
SWIDTH 600 0
DWIDTH 5 0
BBX 5 4 0 0
BITMAP
6E8E60
6DFFB0
A3B110
9D8E60
ENDCHAR
STARTCHAR uni04D6
ENCODING 1238
SWIDTH 600 0
DWIDTH 5 0
BBX 5 7 0 0
BITMAP
083A00
03E600
1FFF20
190000
1FFC00
190000
1FFF40
ENDCHAR
STARTCHAR uni04D7
ENCODING 1239
SWIDTH 600 0
DWIDTH 5 0
BBX 5 6 0 0
BITMAP
091900
05E500
0AEB00
5FFF40
581300
0AEA00
ENDCHAR
STARTCHAR uni04D8
ENCODING 1240
SWIDTH 600 0
DWIDTH 5 0
BBX 5 5 0 0
BITMAP
08E900
041830
7FFF60
561830
0AE900
ENDCHAR
STARTCHAR uni04D9
ENCODING 1241
SWIDTH 600 0
DWIDTH 5 0
BBX 5 4 0 0
BITMAP
1BE900
031A30
6FFF30
1CE900
ENDCHAR
STARTCHAR uni04E2
ENCODING 1250
SWIDTH 600 0
DWIDTH 5 0
BBX 5 7 0 0
BITMAP
0AF800
000000
640C30
646B30
65A730
6A3730
690730
ENDCHAR
STARTCHAR uni04E3
ENCODING 1251
SWIDTH 600 0
DWIDTH 5 0
BBX 4 6 0 0
BITMAP
08F8
0000
371D
378A
395A
3B0A
ENDCHAR
STARTCHAR uni04E6
ENCODING 1254
SWIDTH 600 0
DWIDTH 5 0
BBX 5 7 0 0
BITMAP
083600
000000
1BE900
771A40
920560
771A30
1BE900
ENDCHAR
STARTCHAR uni04E7
ENCODING 1255
SWIDTH 600 0
DWIDTH 5 0
BBX 5 6 0 0
BITMAP
092700
000000
1BE900
661930
660930
1BE900
ENDCHAR
STARTCHAR uni04E8
ENCODING 1256
SWIDTH 600 0
DWIDTH 5 0
BBX 5 5 0 0
BITMAP
1BE900
751840
9FFF60
751830
1BE900
ENDCHAR
STARTCHAR uni04E9
ENCODING 1257
SWIDTH 600 0
DWIDTH 5 0
BBX 5 4 0 0
BITMAP
1BE900
6FFF30
661930
1BE900
ENDCHAR
STARTCHAR uni04EE
ENCODING 1262
SWIDTH 600 0
DWIDTH 5 0
BBX 5 7 0 0
BITMAP
0AF800
000000
650740
0A0A00
067600
01D000
0E6000
ENDCHAR
STARTCHAR uni04EF
ENCODING 1263
SWIDTH 600 0
DWIDTH 5 0
BBX 5 8 0 -2
BITMAP
09F800
000000
640630
190900
093700
03D200
01A000
6D3000
ENDCHAR
STARTCHAR uni04F2
ENCODING 1266
SWIDTH 600 0
DWIDTH 5 0
BBX 5 7 0 0
BITMAP
035600
000000
650740
0A0A00
067600
01D000
0E6000
ENDCHAR
STARTCHAR uni04F3
ENCODING 1267
SWIDTH 600 0
DWIDTH 5 0
BBX 5 8 0 -2
BITMAP
007700
034600
640630
190900
093700
03D200
01A000
6D3000
ENDCHAR
STARTCHAR a.sups
ENCODING 7491
SWIDTH 600 0
DWIDTH 5 0
BBX 3 3 1 3
BITMAP
4E50
7E80
7B30
ENDCHAR
STARTCHAR b.sups
ENCODING 7495
SWIDTH 600 0
DWIDTH 5 0
BBX 3 4 1 3
BITMAP
5000
8C70
8290
4D60
ENDCHAR
STARTCHAR d.sups
ENCODING 7496
SWIDTH 600 0
DWIDTH 5 0
BBX 3 4 1 3
BITMAP
0050
8C70
A280
9B30
ENDCHAR
STARTCHAR e.sups
ENCODING 7497
SWIDTH 600 0
DWIDTH 5 0
BBX 3 3 1 3
BITMAP
7E50
CFA0
7E50
ENDCHAR
STARTCHAR g.sups
ENCODING 7501
SWIDTH 600 0
DWIDTH 5 0
BBX 3 4 1 2
BITMAP
7FD0
8E40
9FA0
9E80
ENDCHAR
STARTCHAR k.sups
ENCODING 7503
SWIDTH 600 0
DWIDTH 5 0
BBX 3 5 1 3
BITMAP
1000
7000
7450
7940
4050
ENDCHAR
STARTCHAR m.sups
ENCODING 7504
SWIDTH 600 0
DWIDTH 5 0
BBX 5 4 0 2
BITMAP
6DBD10
739530
717440
102110
ENDCHAR
STARTCHAR o.sups
ENCODING 7506
SWIDTH 600 0
DWIDTH 5 0
BBX 3 3 1 3
BITMAP
7E40
A290
7E50
ENDCHAR
STARTCHAR p.sups
ENCODING 7510
SWIDTH 600 0
DWIDTH 5 0
BBX 3 4 1 2
BITMAP
7C70
8190
8D60
5000
ENDCHAR
STARTCHAR t.sups
ENCODING 7511
SWIDTH 600 0
DWIDTH 5 0
BBX 3 4 1 3
BITMAP
0500
AF90
1700
0D90
ENDCHAR
STARTCHAR u.sups
ENCODING 7512
SWIDTH 600 0
DWIDTH 5 0
BBX 3 3 1 3
BITMAP
8080
9180
8D70
ENDCHAR
STARTCHAR v.sups
ENCODING 7515
SWIDTH 600 0
DWIDTH 5 0
BBX 3 3 1 3
BITMAP
8170
6920
1C00
ENDCHAR
STARTCHAR c.sups
ENCODING 7580
SWIDTH 600 0
DWIDTH 5 0
BBX 3 3 1 3
BITMAP
3E60
8320
3E60
ENDCHAR
STARTCHAR f.sups
ENCODING 7584
SWIDTH 600 0
DWIDTH 5 0
BBX 3 5 1 2
BITMAP
09D0
6FC0
0800
0800
0100
ENDCHAR
STARTCHAR z.sups
ENCODING 7611
SWIDTH 600 0
DWIDTH 5 0
BBX 3 3 1 3
BITMAP
AF50
0000
8FA0
ENDCHAR
STARTCHAR uni1E06
ENCODING 7686
SWIDTH 600 0
DWIDTH 5 0
BBX 5 6 0 -1
BITMAP
3FFA00
371B00
3FFA00
370850
3FFC10
09F800
ENDCHAR
STARTCHAR uni1E07
ENCODING 7687
SWIDTH 600 0
DWIDTH 5 0
BBX 5 7 0 -1
BITMAP
460000
460000
4CEB00
491840
491930
4CE900
09F800
ENDCHAR
STARTCHAR uni1E0C
ENCODING 7692
SWIDTH 600 0
DWIDTH 5 0
BBX 5 6 0 -1
BITMAP
4FE800
451A40
450560
451A30
4FE800
01A000
ENDCHAR
STARTCHAR uni1E0D
ENCODING 7693
SWIDTH 600 0
DWIDTH 5 0
BBX 5 7 0 -1
BITMAP
000910
000910
1BED10
661B10
761C10
1CEC10
00B000
ENDCHAR
STARTCHAR uni1E0E
ENCODING 7694
SWIDTH 600 0
DWIDTH 5 0
BBX 5 6 0 -1
BITMAP
4FE800
451A40
450560
451A30
4FE800
0BF600
ENDCHAR
STARTCHAR uni1E0F
ENCODING 7695
SWIDTH 600 0
DWIDTH 5 0
BBX 5 7 0 -1
BITMAP
000910
000910
1BED10
661B10
761C10
1CEC10
09F800
ENDCHAR
STARTCHAR uni1E10
ENCODING 7696
SWIDTH 600 0
DWIDTH 5 0
BBX 5 9 0 -4
BITMAP
4FE800
451A40
450560
451A30
4FE800
006000
02B000
00A000
067000
ENDCHAR
STARTCHAR uni1E11
ENCODING 7697
SWIDTH 600 0
DWIDTH 5 0
BBX 5 10 0 -4
BITMAP
000910
000910
1BED10
661B10
761C10
1CEC10
006000
01C000
00A000
059000
ENDCHAR
STARTCHAR uni1E16
ENCODING 7702
SWIDTH 600 0
DWIDTH 5 0
BBX 5 9 0 0
BITMAP
004300
000000
06FB00
000000
1FFF20
190000
1FFC00
190000
1FFF40
ENDCHAR
STARTCHAR uni1E17
ENCODING 7703
SWIDTH 600 0
DWIDTH 5 0
BBX 5 8 0 0
BITMAP
006200
000000
08F900
000000
0AEB00
5FFF40
581300
0AEA00
ENDCHAR
STARTCHAR uni1E20
ENCODING 7712
SWIDTH 600 0
DWIDTH 5 0
BBX 5 7 0 0
BITMAP
07FB00
000000
09EA00
681400
836F40
681640
09EC20
ENDCHAR
STARTCHAR uni1E21
ENCODING 7713
SWIDTH 600 0
DWIDTH 5 0
BBX 5 8 0 -2
BITMAP
09F800
000000
0BFF80
2A3A00
0CC600
1EFE40
450670
3DEB10
ENDCHAR
STARTCHAR uni1E24
ENCODING 7716
SWIDTH 600 0
DWIDTH 5 0
BBX 5 6 0 -1
BITMAP
640830
640830
6FFF30
640830
640830
01B000
ENDCHAR
STARTCHAR uni1E25
ENCODING 7717
SWIDTH 600 0
DWIDTH 5 0
BBX 5 7 0 -1
BITMAP
460000
460000
4AEC00
4A1A20
460730
460730
00B000
ENDCHAR
STARTCHAR uni1E26
ENCODING 7718
SWIDTH 600 0
DWIDTH 5 0
BBX 5 7 0 0
BITMAP
083600
000000
640830
640830
6FFF30
640830
640830
ENDCHAR
STARTCHAR uni1E27
ENCODING 7719
SWIDTH 600 0
DWIDTH 5 0
BBX 5 7 0 0
BITMAP
871000
460000
460000
4AEC00
4A1A20
460730
460730
ENDCHAR
STARTCHAR uni1E28
ENCODING 7720
SWIDTH 600 0
DWIDTH 5 0
BBX 5 9 0 -4
BITMAP
640830
640830
6FFF30
640830
640830
420000
760000
280000
A40000
ENDCHAR
STARTCHAR uni1E29
ENCODING 7721
SWIDTH 600 0
DWIDTH 5 0
BBX 5 10 0 -4
BITMAP
460000
460000
4AEC00
4A1A20
460730
460730
330000
580000
190000
950000
ENDCHAR
STARTCHAR uni1E2A
ENCODING 7722
SWIDTH 600 0
DWIDTH 5 0
BBX 5 7 0 -2
BITMAP
640830
640830
6FFF30
640830
650830
081700
06E300
ENDCHAR
STARTCHAR uni1E2B
ENCODING 7723
SWIDTH 600 0
DWIDTH 5 0
BBX 5 8 0 -2
BITMAP
460000
460000
4AEC00
4A1A20
460730
460730
081800
04E400
ENDCHAR
STARTCHAR uni1E32
ENCODING 7730
SWIDTH 600 0
DWIDTH 5 0
BBX 5 6 0 -1
BITMAP
370920
379300
3DB200
381A00
370650
00A200
ENDCHAR
STARTCHAR uni1E33
ENCODING 7731
SWIDTH 600 0
DWIDTH 5 0
BBX 5 7 0 -1
BITMAP
280000
280000
281910
29C100
2C4800
280740
00A100
ENDCHAR
STARTCHAR uni1E34
ENCODING 7732
SWIDTH 600 0
DWIDTH 5 0
BBX 5 6 0 -1
BITMAP
370920
379300
3DB200
381A00
370650
05FC00
ENDCHAR
STARTCHAR uni1E35
ENCODING 7733
SWIDTH 600 0
DWIDTH 5 0
BBX 5 7 0 -1
BITMAP
280000
280000
281910
29C100
2C4800
280740
06FB00
ENDCHAR
STARTCHAR uni1E36
ENCODING 7734
SWIDTH 600 0
DWIDTH 5 0
BBX 4 6 1 -1
BITMAP
A000
A000
A000
A000
EFF5
0930
ENDCHAR
STARTCHAR uni1E37
ENCODING 7735
SWIDTH 600 0
DWIDTH 5 0
BBX 5 7 0 -1
BITMAP
6F9000
009000
009000
009000
00B100
00BE20
004700
ENDCHAR
STARTCHAR uni1E38
ENCODING 7736
SWIDTH 600 0
DWIDTH 5 0
BBX 5 8 0 -1
BITMAP
8F9000
000000
0A0000
0A0000
0A0000
0A0000
0EFF50
009300
ENDCHAR
STARTCHAR uni1E39
ENCODING 7737
SWIDTH 600 0
DWIDTH 5 0
BBX 5 8 0 -1
BITMAP
0CF500
6F9000
009000
009000
009000
00B100
00BE20
004700
ENDCHAR
STARTCHAR uni1E3A
ENCODING 7738
SWIDTH 600 0
DWIDTH 5 0
BBX 4 6 1 -1
BITMAP
A000
A000
A000
A000
EFF5
4FD0
ENDCHAR
STARTCHAR uni1E3B
ENCODING 7739
SWIDTH 600 0
DWIDTH 5 0
BBX 5 7 0 -1
BITMAP
6F9000
009000
009000
009000
00B100
00BE20
00FF20
ENDCHAR
STARTCHAR uni1E3E
ENCODING 7742
SWIDTH 600 0
DWIDTH 5 0
BBX 5 7 0 0
BITMAP
007200
000000
680B30
6B2C30
67A830
637630
630630
ENDCHAR
STARTCHAR uni1E3F
ENCODING 7743
SWIDTH 600 0
DWIDTH 5 0
BBX 5 6 0 0
BITMAP
003600
008000
8CBE40
84B470
829370
829370
ENDCHAR
STARTCHAR uni1E40
ENCODING 7744
SWIDTH 600 0
DWIDTH 5 0
BBX 5 7 0 0
BITMAP
00A000
000000
680B30
6B2C30
67A830
637630
630630
ENDCHAR
STARTCHAR uni1E41
ENCODING 7745
SWIDTH 600 0
DWIDTH 5 0
BBX 5 6 0 0
BITMAP
00B000
000000
8CBE40
84B470
829370
829370
ENDCHAR
STARTCHAR uni1E42
ENCODING 7746
SWIDTH 600 0
DWIDTH 5 0
BBX 5 6 0 -1
BITMAP
680B30
6B2C30
67A830
637630
630630
01B000
ENDCHAR
STARTCHAR uni1E43
ENCODING 7747
SWIDTH 600 0
DWIDTH 5 0
BBX 5 5 0 -1
BITMAP
8CBE40
84B470
829370
829370
00B000
ENDCHAR
STARTCHAR uni1E44
ENCODING 7748
SWIDTH 600 0
DWIDTH 5 0
BBX 5 7 0 0
BITMAP
00A000
000000
5A0820
5A3820
559720
546B20
540D20
ENDCHAR
STARTCHAR uni1E45
ENCODING 7749
SWIDTH 600 0
DWIDTH 5 0
BBX 5 6 0 0
BITMAP
00B000
000000
4AEC00
4A1A20
460730
460730
ENDCHAR
STARTCHAR uni1E46
ENCODING 7750
SWIDTH 600 0
DWIDTH 5 0
BBX 5 6 0 -1
BITMAP
5A0820
5A3820
559720
546B20
540D20
01B000
ENDCHAR
STARTCHAR uni1E47
ENCODING 7751
SWIDTH 600 0
DWIDTH 5 0
BBX 5 5 0 -1
BITMAP
4AEC00
4A1A20
460730
460730
00B000
ENDCHAR
STARTCHAR uni1E48
ENCODING 7752
SWIDTH 600 0
DWIDTH 5 0
BBX 5 6 0 -1
BITMAP
5A0820
5A3820
559720
546B20
540D20
0AF700
ENDCHAR
STARTCHAR uni1E49
ENCODING 7753
SWIDTH 600 0
DWIDTH 5 0
BBX 5 5 0 -1
BITMAP
4AEC00
4A1A20
460730
460730
08F900
ENDCHAR
STARTCHAR uni1E52
ENCODING 7762
SWIDTH 600 0
DWIDTH 5 0
BBX 5 9 0 0
BITMAP
006100
000000
0AF700
000000
1BE900
771A40
920560
771A30
1BE900
ENDCHAR
STARTCHAR uni1E53
ENCODING 7763
SWIDTH 600 0
DWIDTH 5 0
BBX 5 8 0 0
BITMAP
007100
000000
0AF700
000000
1BE900
661930
660930
1BE900
ENDCHAR
STARTCHAR uni1E58
ENCODING 7768
SWIDTH 600 0
DWIDTH 5 0
BBX 5 7 0 0
BITMAP
00A000
000000
3FFB10
370930
3FFA00
374700
370920
ENDCHAR
STARTCHAR uni1E59
ENCODING 7769
SWIDTH 600 0
DWIDTH 5 0
BBX 4 6 1 0
BITMAP
0920
0000
9AE3
C510
A000
A000
ENDCHAR
STARTCHAR uni1E5A
ENCODING 7770
SWIDTH 600 0
DWIDTH 5 0
BBX 5 6 0 -1
BITMAP
3FFB10
370930
3FFA00
374700
370920
00B000
ENDCHAR
STARTCHAR uni1E5B
ENCODING 7771
SWIDTH 600 0
DWIDTH 5 0
BBX 4 5 1 -1
BITMAP
9AE3
C510
A000
A000
B000
ENDCHAR
STARTCHAR uni1E5C
ENCODING 7772
SWIDTH 600 0
DWIDTH 5 0
BBX 5 8 0 -1
BITMAP
0AF800
000000
3FFB10
370930
3FFA00
374700
370920
00B000
ENDCHAR
STARTCHAR uni1E5D
ENCODING 7773
SWIDTH 600 0
DWIDTH 5 0
BBX 4 7 1 -1
BITMAP
4FD0
0000
9AE3
C510
A000
A000
B000
ENDCHAR
STARTCHAR uni1E5E
ENCODING 7774
SWIDTH 600 0
DWIDTH 5 0
BBX 5 6 0 -1
BITMAP
3FFB10
370930
3FFA00
374700
370920
08F900
ENDCHAR
STARTCHAR uni1E5F
ENCODING 7775
SWIDTH 600 0
DWIDTH 5 0
BBX 5 5 0 -1
BITMAP
09AE30
0C5100
0A0000
0A0000
7FA000
ENDCHAR
STARTCHAR uni1E60
ENCODING 7776
SWIDTH 600 0
DWIDTH 5 0
BBX 5 7 0 0
BITMAP
00A000
000000
0BE800
2A1400
05A700
341930
1AEB10
ENDCHAR
STARTCHAR uni1E61
ENCODING 7777
SWIDTH 600 0
DWIDTH 5 0
BBX 5 6 0 0
BITMAP
00B000
000000
1CE700
1A5400
244B20
1AFB10
ENDCHAR
STARTCHAR uni1E62
ENCODING 7778
SWIDTH 600 0
DWIDTH 5 0
BBX 5 6 0 -1
BITMAP
0BE800
2A1400
05A700
341930
1AEB10
00B000
ENDCHAR
STARTCHAR uni1E63
ENCODING 7779
SWIDTH 600 0
DWIDTH 5 0
BBX 5 5 0 -1
BITMAP
1CE700
1A5400
244B20
1AFB10
00B000
ENDCHAR
STARTCHAR uni1E6C
ENCODING 7788
SWIDTH 600 0
DWIDTH 5 0
BBX 5 6 0 -1
BITMAP
AFFF70
00A000
00A000
00A000
00A000
01B000
ENDCHAR
STARTCHAR uni1E6D
ENCODING 7789
SWIDTH 600 0
DWIDTH 5 0
BBX 5 6 0 -1
BITMAP
044000
6FFF30
054000
056000
02DE30
005600
ENDCHAR
STARTCHAR uni1E6E
ENCODING 7790
SWIDTH 600 0
DWIDTH 5 0
BBX 5 6 0 -1
BITMAP
AFFF70
00A000
00A000
00A000
00A000
0AF700
ENDCHAR
STARTCHAR uni1E6F
ENCODING 7791
SWIDTH 600 0
DWIDTH 5 0
BBX 5 6 0 -1
BITMAP
044000
6FFF30
054000
056000
02DE30
00FF10
ENDCHAR
STARTCHAR uni1E7E
ENCODING 7806
SWIDTH 600 0
DWIDTH 5 0
BBX 5 6 0 -1
BITMAP
730640
280A00
0B1900
079400
02E000
00B000
ENDCHAR
STARTCHAR uni1E7F
ENCODING 7807
SWIDTH 600 0
DWIDTH 5 0
BBX 5 5 0 -1
BITMAP
640630
190900
084600
02D100
01B000
ENDCHAR
STARTCHAR Wgrave
ENCODING 7808
SWIDTH 600 0
DWIDTH 5 0
BBX 5 7 0 0
BITMAP
036000
000000
B001A0
A19370
86C650
5B5B30
3C0E10
ENDCHAR
STARTCHAR wgrave
ENCODING 7809
SWIDTH 600 0
DWIDTH 5 0
BBX 5 6 0 0
BITMAP
072000
018000
A09090
94C360
6A6930
3C1E00
ENDCHAR
STARTCHAR Wacute
ENCODING 7810
SWIDTH 600 0
DWIDTH 5 0
BBX 5 7 0 0
BITMAP
007200
000000
B001A0
A19370
86C650
5B5B30
3C0E10
ENDCHAR
STARTCHAR wacute
ENCODING 7811
SWIDTH 600 0
DWIDTH 5 0
BBX 5 6 0 0
BITMAP
005400
008000
A09090
94C360
6A6930
3C1E00
ENDCHAR
STARTCHAR Wdieresis
ENCODING 7812
SWIDTH 600 0
DWIDTH 5 0
BBX 5 7 0 0
BITMAP
083600
000000
B001A0
A19370
86C650
5B5B30
3C0E10
ENDCHAR
STARTCHAR wdieresis
ENCODING 7813
SWIDTH 600 0
DWIDTH 5 0
BBX 5 6 0 0
BITMAP
092700
000000
A09090
94C360
6A6930
3C1E00
ENDCHAR
STARTCHAR uni1E8E
ENCODING 7822
SWIDTH 600 0
DWIDTH 5 0
BBX 5 7 0 0
BITMAP
00A000
000000
640730
0A1900
05B200
00A000
00A000
ENDCHAR
STARTCHAR uni1E8F
ENCODING 7823
SWIDTH 600 0
DWIDTH 5 0
BBX 5 8 0 -2
BITMAP
00B000
000000
640630
190900
093700
03D200
01A000
6D3000
ENDCHAR
STARTCHAR uni1E90
ENCODING 7824
SWIDTH 600 0
DWIDTH 5 0
BBX 5 7 0 0
BITMAP
047400
000000
3FFF40
002800
018000
191000
7FFF50
ENDCHAR
STARTCHAR uni1E91
ENCODING 7825
SWIDTH 600 0
DWIDTH 5 0
BBX 5 6 0 0
BITMAP
047500
000000
2FFF20
005500
073000
6FFF40
ENDCHAR
STARTCHAR uni1E92
ENCODING 7826
SWIDTH 600 0
DWIDTH 5 0
BBX 5 6 0 -1
BITMAP
3FFF40
002800
018000
191000
7FFF50
00B000
ENDCHAR
STARTCHAR uni1E93
ENCODING 7827
SWIDTH 600 0
DWIDTH 5 0
BBX 5 5 0 -1
BITMAP
2FFF20
005500
073000
6FFF40
00B000
ENDCHAR
STARTCHAR uni1E94
ENCODING 7828
SWIDTH 600 0
DWIDTH 5 0
BBX 5 6 0 -1
BITMAP
3FFF40
002800
018000
191000
7FFF50
09F800
ENDCHAR
STARTCHAR uni1E95
ENCODING 7829
SWIDTH 600 0
DWIDTH 5 0
BBX 5 5 0 -1
BITMAP
2FFF20
005500
073000
6FFF40
08F900
ENDCHAR
STARTCHAR uni1E96
ENCODING 7830
SWIDTH 600 0
DWIDTH 5 0
BBX 5 7 0 -1
BITMAP
460000
460000
4AEC00
4A1A20
460730
460730
08F900
ENDCHAR
STARTCHAR uni1E97
ENCODING 7831
SWIDTH 600 0
DWIDTH 5 0
BBX 5 7 0 0
BITMAP
096300
000000
044000
6FFF30
054000
056000
02DE30
ENDCHAR
STARTCHAR uni1E9E
ENCODING 7838
SWIDTH 600 0
DWIDTH 5 0
BBX 5 5 0 0
BITMAP
1BFA00
585700
645D40
653580
65BE30
ENDCHAR
STARTCHAR uni1EA0
ENCODING 7840
SWIDTH 600 0
DWIDTH 5 0
BBX 5 6 0 -1
BITMAP
02D000
076500
090900
3FFE10
930660
01B000
ENDCHAR
STARTCHAR uni1EA1
ENCODING 7841
SWIDTH 600 0
DWIDTH 5 0
BBX 5 5 0 -1
BITMAP
09EA00
1BDF10
482A20
2DDB20
01B000
ENDCHAR
STARTCHAR uni1EA2
ENCODING 7842
SWIDTH 600 0
DWIDTH 5 0
BBX 5 8 0 0
BITMAP
02B000
009000
009000
02D000
076500
090900
3FFE10
930660
ENDCHAR
STARTCHAR uni1EA3
ENCODING 7843
SWIDTH 600 0
DWIDTH 5 0
BBX 5 7 0 0
BITMAP
00C000
007300
009000
09EA00
1BDF10
482A20
2DDB20
ENDCHAR
STARTCHAR uni1EA4
ENCODING 7844
SWIDTH 600 0
DWIDTH 5 0
BBX 5 7 0 0
BITMAP
048800
000000
02D000
076500
090900
3FFE10
930660
ENDCHAR
STARTCHAR uni1EA5
ENCODING 7845
SWIDTH 600 0
DWIDTH 5 0
BBX 5 6 0 0
BITMAP
038820
000000
09EA00
1BDF10
482A20
2DDB20
ENDCHAR
STARTCHAR uni1EA6
ENCODING 7846
SWIDTH 600 0
DWIDTH 5 0
BBX 5 7 0 0
BITMAP
188200
000000
02D000
076500
090900
3FFE10
930660
ENDCHAR
STARTCHAR uni1EA7
ENCODING 7847
SWIDTH 600 0
DWIDTH 5 0
BBX 5 6 0 0
BITMAP
288400
000000
09EA00
1BDF10
482A20
2DDB20
ENDCHAR
STARTCHAR uni1EA8
ENCODING 7848
SWIDTH 600 0
DWIDTH 5 0
BBX 5 9 0 0
BITMAP
000B00
000810
048A00
000000
02D000
076500
090900
3FFE10
930660
ENDCHAR
STARTCHAR uni1EA9
ENCODING 7849
SWIDTH 600 0
DWIDTH 5 0
BBX 5 8 0 0
BITMAP
000A10
000630
038B10
000000
09EA00
1BDF10
482A20
2DDB20
ENDCHAR
STARTCHAR uni1EAA
ENCODING 7850
SWIDTH 600 0
DWIDTH 5 0
BBX 5 8 0 0
BITMAP
086600
0AF700
000000
02D000
076500
090900
3FFE10
930660
ENDCHAR
STARTCHAR uni1EAB
ENCODING 7851
SWIDTH 600 0
DWIDTH 5 0
BBX 5 7 0 0
BITMAP
048500
09FB00
000000
09EA00
1BDF10
482A20
2DDB20
ENDCHAR
STARTCHAR uni1EAC
ENCODING 7852
SWIDTH 600 0
DWIDTH 5 0
BBX 5 8 0 -1
BITMAP
057300
000000
02D000
076500
090900
3FFE10
930660
01B000
ENDCHAR
STARTCHAR uni1EAD
ENCODING 7853
SWIDTH 600 0
DWIDTH 5 0
BBX 5 7 0 -1
BITMAP
047500
000000
09EA00
1BDF10
482A20
2DDB20
01B000
ENDCHAR
STARTCHAR uni1EAE
ENCODING 7854
SWIDTH 600 0
DWIDTH 5 0
BBX 5 8 0 0
BITMAP
006100
081700
05E200
02D000
076500
090900
3FFE10
930660
ENDCHAR
STARTCHAR uni1EAF
ENCODING 7855
SWIDTH 600 0
DWIDTH 5 0
BBX 5 7 0 0
BITMAP
006100
071800
04E500
09EA00
1BDF10
482A20
2DDB20
ENDCHAR
STARTCHAR uni1EB0
ENCODING 7856
SWIDTH 600 0
DWIDTH 5 0
BBX 5 8 0 0
BITMAP
035000
081700
05E200
02D000
076500
090900
3FFE10
930660
ENDCHAR
STARTCHAR uni1EB1
ENCODING 7857
SWIDTH 600 0
DWIDTH 5 0
BBX 5 7 0 0
BITMAP
016000
071800
04E500
09EA00
1BDF10
482A20
2DDB20
ENDCHAR
STARTCHAR uni1EB2
ENCODING 7858
SWIDTH 600 0
DWIDTH 5 0
BBX 5 10 0 0
BITMAP
01A000
009000
007000
081700
05E200
02D000
076500
090900
3FFE10
930660
ENDCHAR
STARTCHAR uni1EB3
ENCODING 7859
SWIDTH 600 0
DWIDTH 5 0
BBX 5 9 0 0
BITMAP
00B000
007200
008000
071800
04E500
09EA00
1BDF10
482A20
2DDB20
ENDCHAR
STARTCHAR uni1EB4
ENCODING 7860
SWIDTH 600 0
DWIDTH 5 0
BBX 5 8 0 0
BITMAP
087600
0DBB00
05E200
02D000
076500
090900
3FFE10
930660
ENDCHAR
STARTCHAR uni1EB5
ENCODING 7861
SWIDTH 600 0
DWIDTH 5 0
BBX 5 7 0 0
BITMAP
058600
0D9E00
03E400
09EA00
1BDF10
482A20
2DDB20
ENDCHAR
STARTCHAR uni1EB6
ENCODING 7862
SWIDTH 600 0
DWIDTH 5 0
BBX 5 8 0 -1
BITMAP
081700
05E300
02D000
076500
090900
3FFE10
930660
01B000
ENDCHAR
STARTCHAR uni1EB7
ENCODING 7863
SWIDTH 600 0
DWIDTH 5 0
BBX 5 7 0 -1
BITMAP
081800
04E500
09EA00
1BDF10
482A20
2DDB20
01B000
ENDCHAR
STARTCHAR uni1EB8
ENCODING 7864
SWIDTH 600 0
DWIDTH 5 0
BBX 5 6 0 -1
BITMAP
1FFF20
190000
1FFC00
190000
1FFF40
00A100
ENDCHAR
STARTCHAR uni1EB9
ENCODING 7865
SWIDTH 600 0
DWIDTH 5 0
BBX 5 5 0 -1
BITMAP
0AEB00
5FFF40
581300
0AEA00
00B000
ENDCHAR
STARTCHAR uni1EBA
ENCODING 7866
SWIDTH 600 0
DWIDTH 5 0
BBX 5 8 0 0
BITMAP
00B100
006400
008100
1FFF20
190000
1FFC00
190000
1FFF40
ENDCHAR
STARTCHAR uni1EBB
ENCODING 7867
SWIDTH 600 0
DWIDTH 5 0
BBX 5 7 0 0
BITMAP
00C000
008200
009000
0AEB00
5FFF40
581300
0AEA00
ENDCHAR
STARTCHAR uni1EBC
ENCODING 7868
SWIDTH 600 0
DWIDTH 5 0
BBX 5 7 0 0
BITMAP
07A700
076B00
1FFF20
190000
1FFC00
190000
1FFF40
ENDCHAR
STARTCHAR uni1EBD
ENCODING 7869
SWIDTH 600 0
DWIDTH 5 0
BBX 5 7 0 0
BITMAP
010100
09A700
077900
0AEB00
5FFF40
581300
0AEA00
ENDCHAR
STARTCHAR uni1EBE
ENCODING 7870
SWIDTH 600 0
DWIDTH 5 0
BBX 5 7 0 0
BITMAP
028820
000000
1FFF20
190000
1FFC00
190000
1FFF40
ENDCHAR
STARTCHAR uni1EBF
ENCODING 7871
SWIDTH 600 0
DWIDTH 5 0
BBX 5 6 0 0
BITMAP
038820
000000
0AEB00
5FFF40
581300
0AEA00
ENDCHAR
STARTCHAR uni1EC0
ENCODING 7872
SWIDTH 600 0
DWIDTH 5 0
BBX 5 7 0 0
BITMAP
078400
000000
1FFF20
190000
1FFC00
190000
1FFF40
ENDCHAR
STARTCHAR uni1EC1
ENCODING 7873
SWIDTH 600 0
DWIDTH 5 0
BBX 5 6 0 0
BITMAP
288400
000000
0AEB00
5FFF40
581300
0AEA00
ENDCHAR
STARTCHAR uni1EC2
ENCODING 7874
SWIDTH 600 0
DWIDTH 5 0
BBX 5 9 0 0
BITMAP
000920
000440
028A10
000000
1FFF20
190000
1FFC00
190000
1FFF40
ENDCHAR
STARTCHAR uni1EC3
ENCODING 7875
SWIDTH 600 0
DWIDTH 5 0
BBX 5 8 0 0
BITMAP
000A10
000630
038B00
000000
0AEB00
5FFF40
581300
0AEA00
ENDCHAR
STARTCHAR uni1EC4
ENCODING 7876
SWIDTH 600 0
DWIDTH 5 0
BBX 5 8 0 0
BITMAP
04A600
07FD00
000000
1FFF20
190000
1FFC00
190000
1FFF40
ENDCHAR
STARTCHAR uni1EC5
ENCODING 7877
SWIDTH 600 0
DWIDTH 5 0
BBX 5 7 0 0
BITMAP
058500
09FA00
000000
0AEB00
5FFF40
581300
0AEA00
ENDCHAR
STARTCHAR uni1EC6
ENCODING 7878
SWIDTH 600 0
DWIDTH 5 0
BBX 5 8 0 -1
BITMAP
037500
000000
1FFF20
190000
1FFC00
190000
1FFF40
00A100
ENDCHAR
STARTCHAR uni1EC7
ENCODING 7879
SWIDTH 600 0
DWIDTH 5 0
BBX 5 7 0 -1
BITMAP
047400
000000
0AEB00
5FFF40
581300
0AEA00
00B000
ENDCHAR
STARTCHAR uni1EC8
ENCODING 7880
SWIDTH 600 0
DWIDTH 5 0
BBX 5 8 0 0
BITMAP
02B000
009000
009000
4FFF10
00A000
00A000
00A000
4FFF10
ENDCHAR
STARTCHAR uni1EC9
ENCODING 7881
SWIDTH 600 0
DWIDTH 5 0
BBX 4 7 0 0
BITMAP
00A3
0046
0072
4FF3
0073
0073
0073
ENDCHAR
STARTCHAR uni1ECA
ENCODING 7882
SWIDTH 600 0
DWIDTH 5 0
BBX 5 6 0 -1
BITMAP
4FFF10
00A000
00A000
00A000
4FFF10
01B000
ENDCHAR
STARTCHAR uni1ECB
ENCODING 7883
SWIDTH 600 0
DWIDTH 5 0
BBX 4 7 0 -1
BITMAP
0093
0000
4FF3
0073
0073
0073
0093
ENDCHAR
STARTCHAR uni1ECC
ENCODING 7884
SWIDTH 600 0
DWIDTH 5 0
BBX 5 6 0 -1
BITMAP
1BE900
771A40
920560
771A30
1BE900
01B000
ENDCHAR
STARTCHAR uni1ECD
ENCODING 7885
SWIDTH 600 0
DWIDTH 5 0
BBX 5 5 0 -1
BITMAP
1BE900
661930
660930
1BE900
01B000
ENDCHAR
STARTCHAR uni1ECE
ENCODING 7886
SWIDTH 600 0
DWIDTH 5 0
BBX 5 8 0 0
BITMAP
02B000
009000
009000
1BE900
771A40
920560
771A30
1BE900
ENDCHAR
STARTCHAR uni1ECF
ENCODING 7887
SWIDTH 600 0
DWIDTH 5 0
BBX 5 7 0 0
BITMAP
02B000
00A000
009000
1BE900
661930
660930
1BE900
ENDCHAR
STARTCHAR uni1ED0
ENCODING 7888
SWIDTH 600 0
DWIDTH 5 0
BBX 5 7 0 0
BITMAP
048800
000000
1BE900
771A40
920560
771A30
1BE900
ENDCHAR
STARTCHAR uni1ED1
ENCODING 7889
SWIDTH 600 0
DWIDTH 5 0
BBX 5 6 0 0
BITMAP
048810
000000
1BE900
661930
660930
1BE900
ENDCHAR
STARTCHAR uni1ED2
ENCODING 7890
SWIDTH 600 0
DWIDTH 5 0
BBX 5 7 0 0
BITMAP
188200
000000
1BE900
771A40
920560
771A30
1BE900
ENDCHAR
STARTCHAR uni1ED3
ENCODING 7891
SWIDTH 600 0
DWIDTH 5 0
BBX 5 6 0 0
BITMAP
388300
000000
1BE900
661930
660930
1BE900
ENDCHAR
STARTCHAR uni1ED4
ENCODING 7892
SWIDTH 600 0
DWIDTH 5 0
BBX 5 9 0 0
BITMAP
000B00
000810
048A00
000000
1BE900
771A40
920560
771A30
1BE900
ENDCHAR
STARTCHAR uni1ED5
ENCODING 7893
SWIDTH 600 0
DWIDTH 5 0
BBX 5 8 0 0
BITMAP
000B00
000810
048A00
000000
1BE900
661930
660930
1BE900
ENDCHAR
STARTCHAR uni1ED6
ENCODING 7894
SWIDTH 600 0
DWIDTH 5 0
BBX 5 8 0 0
BITMAP
086600
0AF700
000000
1BE900
771A40
920560
771A30
1BE900
ENDCHAR
STARTCHAR uni1ED7
ENCODING 7895
SWIDTH 600 0
DWIDTH 5 0
BBX 5 7 0 0
BITMAP
066500
0AF700
000000
1BE900
661930
660930
1BE900
ENDCHAR
STARTCHAR uni1ED8
ENCODING 7896
SWIDTH 600 0
DWIDTH 5 0
BBX 5 8 0 -1
BITMAP
057300
000000
1BE900
771A40
920560
771A30
1BE900
01B000
ENDCHAR
STARTCHAR uni1ED9
ENCODING 7897
SWIDTH 600 0
DWIDTH 5 0
BBX 5 7 0 -1
BITMAP
057300
000000
1BE900
661930
660930
1BE900
01B000
ENDCHAR
STARTCHAR uni1EDA
ENCODING 7898
SWIDTH 600 0
DWIDTH 5 0
BBX 5 7 0 0
BITMAP
007200
000260
1BEC30
771920
920560
771A40
1BE900
ENDCHAR
STARTCHAR uni1EDB
ENCODING 7899
SWIDTH 600 0
DWIDTH 5 0
BBX 5 6 0 0
BITMAP
005400
008260
1BED20
661920
660940
1BEA00
ENDCHAR
STARTCHAR uni1EDC
ENCODING 7900
SWIDTH 600 0
DWIDTH 5 0
BBX 5 7 0 0
BITMAP
036000
000260
1BEC30
771920
920560
771A40
1BE900
ENDCHAR
STARTCHAR uni1EDD
ENCODING 7901
SWIDTH 600 0
DWIDTH 5 0
BBX 5 6 0 0
BITMAP
072000
018260
1BED20
661920
660940
1BEA00
ENDCHAR
STARTCHAR uni1EDE
ENCODING 7902
SWIDTH 600 0
DWIDTH 5 0
BBX 5 8 0 0
BITMAP
02B000
009000
009260
1BEC30
771920
920560
771A40
1BE900
ENDCHAR
STARTCHAR uni1EDF
ENCODING 7903
SWIDTH 600 0
DWIDTH 5 0
BBX 5 7 0 0
BITMAP
02B000
00A000
009260
1BED20
661920
660940
1BEA00
ENDCHAR
STARTCHAR uni1EE0
ENCODING 7904
SWIDTH 600 0
DWIDTH 5 0
BBX 5 7 0 0
BITMAP
0C5700
26C760
1BEC30
771920
920560
771A40
1BE900
ENDCHAR
STARTCHAR uni1EE1
ENCODING 7905
SWIDTH 600 0
DWIDTH 5 0
BBX 5 7 0 0
BITMAP
010100
0D6700
15B760
1BED20
661920
660940
1BEA00
ENDCHAR
STARTCHAR uni1EE2
ENCODING 7906
SWIDTH 600 0
DWIDTH 5 0
BBX 5 7 0 -1
BITMAP
000260
1BEC30
771920
920560
771A40
1BE900
01B000
ENDCHAR
STARTCHAR uni1EE3
ENCODING 7907
SWIDTH 600 0
DWIDTH 5 0
BBX 5 6 0 -1
BITMAP
000260
1BED20
661920
660940
1BEA00
01B000
ENDCHAR
STARTCHAR uni1EE4
ENCODING 7908
SWIDTH 600 0
DWIDTH 5 0
BBX 5 6 0 -1
BITMAP
640730
640730
650730
581B10
1BF900
01B000
ENDCHAR
STARTCHAR uni1EE5
ENCODING 7909
SWIDTH 600 0
DWIDTH 5 0
BBX 5 5 0 -1
BITMAP
640910
640910
672D10
2DDB10
00B000
ENDCHAR
STARTCHAR uni1EE6
ENCODING 7910
SWIDTH 600 0
DWIDTH 5 0
BBX 5 8 0 0
BITMAP
02B000
009000
009000
640730
640730
650730
581B10
1BF900
ENDCHAR
STARTCHAR uni1EE7
ENCODING 7911
SWIDTH 600 0
DWIDTH 5 0
BBX 5 7 0 0
BITMAP
02A000
00A000
009000
640910
640910
672D10
2DDB10
ENDCHAR
STARTCHAR uni1EE8
ENCODING 7912
SWIDTH 600 0
DWIDTH 5 0
BBX 5 7 0 0
BITMAP
007200
000090
6407B0
640730
650730
581B20
1BFA00
ENDCHAR
STARTCHAR uni1EE9
ENCODING 7913
SWIDTH 600 0
DWIDTH 5 0
BBX 5 6 0 0
BITMAP
005400
008090
640980
640910
672D10
2DDB10
ENDCHAR
STARTCHAR uni1EEA
ENCODING 7914
SWIDTH 600 0
DWIDTH 5 0
BBX 5 7 0 0
BITMAP
036000
000090
6407B0
640730
650730
581B20
1BFA00
ENDCHAR
STARTCHAR uni1EEB
ENCODING 7915
SWIDTH 600 0
DWIDTH 5 0
BBX 5 6 0 0
BITMAP
072000
018090
640980
640910
672D10
2DDB10
ENDCHAR
STARTCHAR uni1EEC
ENCODING 7916
SWIDTH 600 0
DWIDTH 5 0
BBX 5 8 0 0
BITMAP
02B000
009000
009090
6407B0
640730
650730
581B20
1BFA00
ENDCHAR
STARTCHAR uni1EED
ENCODING 7917
SWIDTH 600 0
DWIDTH 5 0
BBX 5 7 0 0
BITMAP
02A000
00A000
009090
640980
640910
672D10
2DDB10
ENDCHAR
STARTCHAR uni1EEE
ENCODING 7918
SWIDTH 600 0
DWIDTH 5 0
BBX 5 7 0 0
BITMAP
0B7700
07A890
6407B0
640730
650730
581B20
1BFA00
ENDCHAR
STARTCHAR uni1EEF
ENCODING 7919
SWIDTH 600 0
DWIDTH 5 0
BBX 5 7 0 0
BITMAP
010100
0C7700
16A690
640980
640910
672D10
2DDB10
ENDCHAR
STARTCHAR uni1EF0
ENCODING 7920
SWIDTH 600 0
DWIDTH 5 0
BBX 5 7 0 -1
BITMAP
000090
6407B0
640730
650730
581B20
1BFA00
01B000
ENDCHAR
STARTCHAR uni1EF1
ENCODING 7921
SWIDTH 600 0
DWIDTH 5 0
BBX 5 6 0 -1
BITMAP
000090
640980
640910
672D10
2DDB10
00B000
ENDCHAR
STARTCHAR Ygrave
ENCODING 7922
SWIDTH 600 0
DWIDTH 5 0
BBX 5 7 0 0
BITMAP
036000
000000
640730
0A1900
05B200
00A000
00A000
ENDCHAR
STARTCHAR ygrave
ENCODING 7923
SWIDTH 600 0
DWIDTH 5 0
BBX 5 8 0 -2
BITMAP
063000
018000
640630
190900
093700
03D200
01A000
6D3000
ENDCHAR
STARTCHAR uni1EF4
ENCODING 7924
SWIDTH 600 0
DWIDTH 5 0
BBX 5 6 0 -1
BITMAP
640730
0A1900
05B200
00A000
00A000
01B000
ENDCHAR
STARTCHAR uni1EF5
ENCODING 7925
SWIDTH 600 0
DWIDTH 5 0
BBX 5 6 0 -2
BITMAP
640630
190900
093700
03D200
01AA10
6D3000
ENDCHAR
STARTCHAR uni1EF6
ENCODING 7926
SWIDTH 600 0
DWIDTH 5 0
BBX 5 8 0 0
BITMAP
02B000
009000
009000
640730
0A1900
05B200
00A000
00A000
ENDCHAR
STARTCHAR uni1EF7
ENCODING 7927
SWIDTH 600 0
DWIDTH 5 0
BBX 5 9 0 -2
BITMAP
01B000
009100
009000
640630
190900
093700
03D200
01A000
6D3000
ENDCHAR
STARTCHAR uni1EF8
ENCODING 7928
SWIDTH 600 0
DWIDTH 5 0
BBX 5 7 0 0
BITMAP
0B7700
07A800
640730
0A1900
05B200
00A000
00A000
ENDCHAR
STARTCHAR uni1EF9
ENCODING 7929
SWIDTH 600 0
DWIDTH 5 0
BBX 5 9 0 -2
BITMAP
010100
0A8700
078800
640630
190900
093700
03D200
01A000
6D3000
ENDCHAR
STARTCHAR uni1FBD
ENCODING 8125
SWIDTH 600 0
DWIDTH 5 0
BBX 2 3 1 4
BITMAP
2B
0A
09
ENDCHAR
STARTCHAR uni1FBE
ENCODING 8126
SWIDTH 600 0
DWIDTH 5 0
BBX 2 3 2 0
BITMAP
A0
90
D3
ENDCHAR
STARTCHAR uni1FBF
ENCODING 8127
SWIDTH 600 0
DWIDTH 5 0
BBX 2 3 1 4
BITMAP
2B
0A
09
ENDCHAR
STARTCHAR uni1FC0
ENCODING 8128
SWIDTH 600 0
DWIDTH 5 0
BBX 3 3 1 4
BITMAP
1010
B870
7970
ENDCHAR
STARTCHAR uni1FC1
ENCODING 8129
SWIDTH 600 0
DWIDTH 5 0
BBX 3 4 1 5
BITMAP
8750
6950
0000
8260
ENDCHAR
STARTCHAR uni1FCD
ENCODING 8141
SWIDTH 600 0
DWIDTH 5 0
BBX 3 3 1 4
BITMAP
A810
6830
7340
ENDCHAR
STARTCHAR uni1FCE
ENCODING 8142
SWIDTH 600 0
DWIDTH 5 0
BBX 3 3 1 4
BITMAP
A450
6830
7700
ENDCHAR
STARTCHAR uni1FCF
ENCODING 8143
SWIDTH 600 0
DWIDTH 5 0
BBX 3 3 1 4
BITMAP
8F60
6F50
0700
ENDCHAR
STARTCHAR uni1FDD
ENCODING 8157
SWIDTH 600 0
DWIDTH 5 0
BBX 3 3 1 4
BITMAP
9B00
9620
8430
ENDCHAR
STARTCHAR uni1FDE
ENCODING 8158
SWIDTH 600 0
DWIDTH 5 0
BBX 3 3 1 4
BITMAP
8840
9620
8700
ENDCHAR
STARTCHAR uni1FDF
ENCODING 8159
SWIDTH 600 0
DWIDTH 5 0
BBX 3 3 1 4
BITMAP
7F60
8F50
0700
ENDCHAR
STARTCHAR uni1FED
ENCODING 8173
SWIDTH 600 0
DWIDTH 5 0
BBX 3 2 1 4
BITMAP
8770
0600
ENDCHAR
STARTCHAR uni1FEE
ENCODING 8174
SWIDTH 600 0
DWIDTH 5 0
BBX 3 2 1 4
BITMAP
8880
0600
ENDCHAR
STARTCHAR uni1FEF
ENCODING 8175
SWIDTH 600 0
DWIDTH 5 0
BBX 2 2 1 4
BITMAP
36
07
ENDCHAR
STARTCHAR uni1FFD
ENCODING 8189
SWIDTH 600 0
DWIDTH 5 0
BBX 2 2 2 4
BITMAP
81
80
ENDCHAR
STARTCHAR uni1FFE
ENCODING 8190
SWIDTH 600 0
DWIDTH 5 0
BBX 2 3 1 4
BITMAP
1B
37
18
ENDCHAR
STARTCHAR uni2007
ENCODING 8199
SWIDTH 600 0
DWIDTH 5 0
BBX 1 1 0 0
BITMAP
00
ENDCHAR
STARTCHAR uni2010
ENCODING 8208
SWIDTH 600 0
DWIDTH 5 0
BBX 5 1 0 2
BITMAP
5FFF20
ENDCHAR
STARTCHAR figuredash
ENCODING 8210
SWIDTH 600 0
DWIDTH 5 0
BBX 5 1 0 2
BITMAP
5FFF20
ENDCHAR
STARTCHAR endash
ENCODING 8211
SWIDTH 600 0
DWIDTH 5 0
BBX 5 1 0 2
BITMAP
5FFF20
ENDCHAR
STARTCHAR emdash
ENCODING 8212
SWIDTH 600 0
DWIDTH 5 0
BBX 5 1 0 2
BITMAP
FFFFC0
ENDCHAR
STARTCHAR uni2015
ENCODING 8213
SWIDTH 600 0
DWIDTH 5 0
BBX 5 1 0 2
BITMAP
FFFFC0
ENDCHAR
STARTCHAR uni2016
ENCODING 8214
SWIDTH 600 0
DWIDTH 5 0
BBX 3 8 1 -2
BITMAP
9080
9080
9080
9080
9080
9080
9080
9080
ENDCHAR
STARTCHAR underscoredbl
ENCODING 8215
SWIDTH 600 0
DWIDTH 5 0
BBX 5 2 0 -2
BITMAP
8FFF50
8FFF50
ENDCHAR
STARTCHAR quoteleft
ENCODING 8216
SWIDTH 600 0
DWIDTH 5 0
BBX 2 3 1 3
BITMAP
04
36
3C
ENDCHAR
STARTCHAR quoteright
ENCODING 8217
SWIDTH 600 0
DWIDTH 5 0
BBX 3 3 1 2
BITMAP
1D10
0800
1300
ENDCHAR
STARTCHAR quotesinglbase
ENCODING 8218
SWIDTH 600 0
DWIDTH 5 0
BBX 3 3 1 -3
BITMAP
1D10
0800
1300
ENDCHAR
STARTCHAR quotereversed
ENCODING 8219
SWIDTH 600 0
DWIDTH 5 0
BBX 2 3 1 2
BITMAP
3C
26
04
ENDCHAR
STARTCHAR quotedblleft
ENCODING 8220
SWIDTH 600 0
DWIDTH 5 0
BBX 4 3 0 3
BITMAP
0404
1745
2D4B
ENDCHAR
STARTCHAR quotedblright
ENCODING 8221
SWIDTH 600 0
DWIDTH 5 0
BBX 4 3 0 2
BITMAP
0D4C
0819
1322
ENDCHAR
STARTCHAR quotedblbase
ENCODING 8222
SWIDTH 600 0
DWIDTH 5 0
BBX 4 3 0 -3
BITMAP
0D4C
0819
1322
ENDCHAR
STARTCHAR dagger
ENCODING 8224
SWIDTH 600 0
DWIDTH 5 0
BBX 3 7 1 -1
BITMAP
0800
FFC0
0700
0800
0800
0800
0500
ENDCHAR
STARTCHAR daggerdbl
ENCODING 8225
SWIDTH 600 0
DWIDTH 5 0
BBX 3 7 1 -1
BITMAP
0800
FFC0
0800
0800
0800
FFC0
0800
ENDCHAR
STARTCHAR bullet
ENCODING 8226
SWIDTH 600 0
DWIDTH 5 0
BBX 3 2 1 1
BITMAP
8E50
8E50
ENDCHAR
STARTCHAR ellipsis
ENCODING 8230
SWIDTH 600 0
DWIDTH 5 0
BBX 5 1 0 0
BITMAP
94B660
ENDCHAR
STARTCHAR uni202F
ENCODING 8239
SWIDTH 600 0
DWIDTH 5 0
BBX 1 1 0 0
BITMAP
00
ENDCHAR
STARTCHAR perthousand
ENCODING 8240
SWIDTH 600 0
DWIDTH 5 0
BBX 5 5 0 0
BITMAP
6E2000
6E5740
053000
6E6E40
6E6E40
ENDCHAR
STARTCHAR uni2032
ENCODING 8242
SWIDTH 600 0
DWIDTH 5 0
BBX 1 2 2 3
BITMAP
90
70
ENDCHAR
STARTCHAR uni2033
ENCODING 8243
SWIDTH 600 0
DWIDTH 5 0
BBX 3 2 1 3
BITMAP
8380
7350
ENDCHAR
STARTCHAR uni2035
ENCODING 8245
SWIDTH 600 0
DWIDTH 5 0
BBX 1 2 2 3
BITMAP
90
80
ENDCHAR
STARTCHAR guilsinglleft
ENCODING 8249
SWIDTH 600 0
DWIDTH 5 0
BBX 2 3 1 1
BITMAP
08
64
08
ENDCHAR
STARTCHAR guilsinglright
ENCODING 8250
SWIDTH 600 0
DWIDTH 5 0
BBX 3 3 1 1
BITMAP
1700
0830
1700
ENDCHAR
STARTCHAR exclamdbl
ENCODING 8252
SWIDTH 600 0
DWIDTH 5 0
BBX 4 5 0 0
BITMAP
0909
0808
0707
0000
2B1B
ENDCHAR
STARTCHAR uni203D
ENCODING 8253
SWIDTH 600 0
DWIDTH 5 0
BBX 4 5 0 0
BITMAP
09E8
1419
01A1
0000
0290
ENDCHAR
STARTCHAR uni203E
ENCODING 8254
SWIDTH 600 0
DWIDTH 5 0
BBX 5 1 0 4
BITMAP
8FFF40
ENDCHAR
STARTCHAR uni203F
ENCODING 8255
SWIDTH 600 0
DWIDTH 5 0
BBX 8 2 -2 -2
BITMAP
18420257
007DFC50
ENDCHAR
STARTCHAR fraction
ENCODING 8260
SWIDTH 600 0
DWIDTH 5 0
BBX 5 5 0 0
BITMAP
000440
000600
000000
060000
620000
ENDCHAR
STARTCHAR uni2047
ENCODING 8263
SWIDTH 600 0
DWIDTH 5 0
BBX 5 5 0 0
BITMAP
8E7E60
264350
160800
000000
491C00
ENDCHAR
STARTCHAR uni2048
ENCODING 8264
SWIDTH 600 0
DWIDTH 5 0
BBX 4 5 0 0
BITMAP
8E39
2628
1607
0000
490C
ENDCHAR
STARTCHAR uni2049
ENCODING 8265
SWIDTH 600 0
DWIDTH 5 0
BBX 5 5 0 0
BITMAP
095E60
082350
070800
000000
2A1C00
ENDCHAR
STARTCHAR zero.sups
ENCODING 8304
SWIDTH 600 0
DWIDTH 5 0
BBX 3 4 1 3
BITMAP
6E40
9290
9280
6E40
ENDCHAR
STARTCHAR i.sups
ENCODING 8305
SWIDTH 600 0
DWIDTH 5 0
BBX 3 5 1 2
BITMAP
0810
9F10
0710
0710
0100
ENDCHAR
STARTCHAR four.sups
ENCODING 8308
SWIDTH 600 0
DWIDTH 5 0
BBX 3 3 1 4
BITMAP
0600
6530
CFB0
ENDCHAR
STARTCHAR five.sups
ENCODING 8309
SWIDTH 600 0
DWIDTH 5 0
BBX 3 4 1 3
BITMAP
7F70
8E40
5280
6E40
ENDCHAR
STARTCHAR six.sups
ENCODING 8310
SWIDTH 600 0
DWIDTH 5 0
BBX 3 4 1 3
BITMAP
4E50
9820
A980
6E50
ENDCHAR
STARTCHAR seven.sups
ENCODING 8311
SWIDTH 600 0
DWIDTH 5 0
BBX 3 3 1 4
BITMAP
BF60
0400
0700
ENDCHAR
STARTCHAR eight.sups
ENCODING 8312
SWIDTH 600 0
DWIDTH 5 0
BBX 3 4 1 3
BITMAP
7E50
6F30
8370
8E40
ENDCHAR
STARTCHAR nine.sups
ENCODING 8313
SWIDTH 600 0
DWIDTH 5 0
BBX 3 4 1 3
BITMAP
8E30
A980
4870
8D20
ENDCHAR
STARTCHAR parenleft.sups
ENCODING 8317
SWIDTH 600 0
DWIDTH 5 0
BBX 2 4 1 3
BITMAP
07
17
17
07
ENDCHAR
STARTCHAR parenright.sups
ENCODING 8318
SWIDTH 600 0
DWIDTH 5 0
BBX 2 4 1 3
BITMAP
16
08
08
16
ENDCHAR
STARTCHAR n.sups
ENCODING 8319
SWIDTH 600 0
DWIDTH 5 0
BBX 3 4 1 2
BITMAP
8E60
8280
8080
2020
ENDCHAR
STARTCHAR zero.subs
ENCODING 8320
SWIDTH 600 0
DWIDTH 5 0
BBX 3 4 1 -2
BITMAP
6E40
9290
9280
6E40
ENDCHAR
STARTCHAR one.subs
ENCODING 8321
SWIDTH 600 0
DWIDTH 5 0
BBX 3 4 1 -2
BITMAP
4C00
0800
0800
9FC0
ENDCHAR
STARTCHAR two.subs
ENCODING 8322
SWIDTH 600 0
DWIDTH 5 0
BBX 3 4 1 -2
BITMAP
6E30
3440
2500
BF80
ENDCHAR
STARTCHAR three.subs
ENCODING 8323
SWIDTH 600 0
DWIDTH 5 0
BBX 3 4 1 -2
BITMAP
5E40
2F30
3370
6E40
ENDCHAR
STARTCHAR four.subs
ENCODING 8324
SWIDTH 600 0
DWIDTH 5 0
BBX 3 3 1 -1
BITMAP
0600
6530
CFB0
ENDCHAR
STARTCHAR five.subs
ENCODING 8325
SWIDTH 600 0
DWIDTH 5 0
BBX 3 4 1 -2
BITMAP
7F70
8E40
5280
6E40
ENDCHAR
STARTCHAR six.subs
ENCODING 8326
SWIDTH 600 0
DWIDTH 5 0
BBX 3 4 1 -2
BITMAP
4E50
9820
A980
6E50
ENDCHAR
STARTCHAR seven.subs
ENCODING 8327
SWIDTH 600 0
DWIDTH 5 0
BBX 3 3 1 -1
BITMAP
BF60
0400
0700
ENDCHAR
STARTCHAR eight.subs
ENCODING 8328
SWIDTH 600 0
DWIDTH 5 0
BBX 3 4 1 -2
BITMAP
7E50
6F30
8370
8E40
ENDCHAR
STARTCHAR nine.subs
ENCODING 8329
SWIDTH 600 0
DWIDTH 5 0
BBX 3 4 1 -2
BITMAP
8E30
A980
4870
8D20
ENDCHAR
STARTCHAR parenleft.subs
ENCODING 8333
SWIDTH 600 0
DWIDTH 5 0
BBX 2 4 1 -2
BITMAP
07
17
17
07
ENDCHAR
STARTCHAR parenright.subs
ENCODING 8334
SWIDTH 600 0
DWIDTH 5 0
BBX 2 4 1 -2
BITMAP
16
08
08
16
ENDCHAR
STARTCHAR uni0259.sups
ENCODING 8340
SWIDTH 600 0
DWIDTH 5 0
BBX 3 3 1 3
BITMAP
6E40
EF90
7E40
ENDCHAR
STARTCHAR colonmonetary
ENCODING 8353
SWIDTH 600 0
DWIDTH 5 0
BBX 5 7 0 -1
BITMAP
006600
07DD10
197500
376600
298400
09FA20
037200
ENDCHAR
STARTCHAR franc
ENCODING 8355
SWIDTH 600 0
DWIDTH 5 0
BBX 5 5 0 0
BITMAP
0CFF40
0A0000
0CFD00
0A0000
6FF200
ENDCHAR
STARTCHAR lira
ENCODING 8356
SWIDTH 600 0
DWIDTH 5 0
BBX 5 5 0 0
BITMAP
09EB00
5FFB10
081000
5FF800
5EFF40
ENDCHAR
STARTCHAR uni20A6
ENCODING 8358
SWIDTH 600 0
DWIDTH 5 0
BBX 5 5 0 0
BITMAP
0C1800
9FFF60
077700
9FFF60
073B00
ENDCHAR
STARTCHAR peseta
ENCODING 8359
SWIDTH 600 0
DWIDTH 5 0
BBX 5 5 0 0
BITMAP
0EE600
091B00
9FFFA0
091B00
0EE600
ENDCHAR
STARTCHAR uni20A9
ENCODING 8361
SWIDTH 600 0
DWIDTH 5 0
BBX 5 5 0 0
BITMAP
639540
46C620
BFFF80
1B8A00
0E4C00
ENDCHAR
STARTCHAR dong
ENCODING 8363
SWIDTH 600 0
DWIDTH 5 0
BBX 4 7 1 0
BITMAP
0090
1FF5
0090
CEA0
CEA0
0000
FFF0
ENDCHAR
STARTCHAR Euro
ENCODING 8364
SWIDTH 600 0
DWIDTH 5 0
BBX 5 5 0 0
BITMAP
08ED10
8FFF20
190000
8FFD30
09EC10
ENDCHAR
STARTCHAR uni20AE
ENCODING 8366
SWIDTH 600 0
DWIDTH 5 0
BBX 5 5 0 0
BITMAP
8FFF50
00A200
05C700
16C100
00A000
ENDCHAR
STARTCHAR uni20B1
ENCODING 8369
SWIDTH 600 0
DWIDTH 5 0
BBX 5 7 0 -2
BITMAP
0EE500
092B00
3B6B40
5D9D70
4C6D40
03B900
025000
ENDCHAR
STARTCHAR uni20B2
ENCODING 8370
SWIDTH 600 0
DWIDTH 5 0
BBX 5 7 0 -1
BITMAP
007000
07EA00
2B1400
465F30
2B1730
08EC10
007000
ENDCHAR
STARTCHAR uni20B4
ENCODING 8372
SWIDTH 600 0
DWIDTH 5 0
BBX 5 5 0 0
BITMAP
08F800
7FFF40
04B000
7FFF50
0CF800
ENDCHAR
STARTCHAR uni20B5
ENCODING 8373
SWIDTH 600 0
DWIDTH 5 0
BBX 5 7 0 -1
BITMAP
005100
06EC10
1B6410
375100
1B6420
07EB00
005100
ENDCHAR
STARTCHAR uni20B8
ENCODING 8376
SWIDTH 600 0
DWIDTH 5 0
BBX 5 5 0 0
BITMAP
8FFF50
000000
8FFF50
00A000
00A000
ENDCHAR
STARTCHAR uni20B9
ENCODING 8377
SWIDTH 600 0
DWIDTH 5 0
BBX 5 5 0 0
BITMAP
2FFF30
2FFF30
2FF600
028000
004600
ENDCHAR
STARTCHAR uni20BA
ENCODING 8378
SWIDTH 600 0
DWIDTH 5 0
BBX 5 5 0 0
BITMAP
0A2200
2C6300
4C5330
1A2A10
0AC300
ENDCHAR
STARTCHAR uni20BD
ENCODING 8381
SWIDTH 600 0
DWIDTH 5 0
BBX 5 5 0 0
BITMAP
0BFC20
090660
9FFD20
090000
9FFE00
ENDCHAR
STARTCHAR uni2105
ENCODING 8453
SWIDTH 600 0
DWIDTH 5 0
BBX 5 5 0 0
BITMAP
8E0440
8E1600
005E40
178280
505E40
ENDCHAR
STARTCHAR uni2113
ENCODING 8467
SWIDTH 600 0
DWIDTH 5 0
BBX 3 6 1 0
BITMAP
1D80
5690
6580
6D20
8620
9E90
ENDCHAR
STARTCHAR uni2116
ENCODING 8470
SWIDTH 600 0
DWIDTH 5 0
BBX 5 5 0 0
BITMAP
B1ACA0
969CA0
888000
978BA0
A39000
ENDCHAR
STARTCHAR uni2117
ENCODING 8471
SWIDTH 600 0
DWIDTH 5 0
BBX 5 5 0 0
BITMAP
1BE900
742550
67F660
741550
1BE900
ENDCHAR
STARTCHAR uni2120
ENCODING 8480
SWIDTH 600 0
DWIDTH 5 0
BBX 5 3 0 3
BITMAP
99A290
218B80
9B6960
ENDCHAR
STARTCHAR trademark
ENCODING 8482
SWIDTH 600 0
DWIDTH 5 0
BBX 6 3 -1 3
BITMAP
1FFA29
0438B8
043697
ENDCHAR
STARTCHAR uni2126
ENCODING 8486
SWIDTH 600 0
DWIDTH 5 0
BBX 5 5 0 0
BITMAP
1BEA00
871A50
820550
360810
BF3F80
ENDCHAR
STARTCHAR estimated
ENCODING 8494
SWIDTH 600 0
DWIDTH 5 0
BBX 5 5 0 0
BITMAP
1BE800
850840
BFFF80
851600
1BE300
ENDCHAR
STARTCHAR uni2150
ENCODING 8528
SWIDTH 600 0
DWIDTH 5 0
BBX 5 6 0 0
BITMAP
5A0000
080440
080600
006F80
060520
620800
ENDCHAR
STARTCHAR uni2151
ENCODING 8529
SWIDTH 600 0
DWIDTH 5 0
BBX 5 6 0 0
BITMAP
5A0000
080440
080600
004E40
065F70
624E30
ENDCHAR
STARTCHAR uni2152
ENCODING 8530
SWIDTH 600 0
DWIDTH 5 0
BBX 5 5 0 0
BITMAP
5C0000
083740
076E30
5C6460
083E30
ENDCHAR
STARTCHAR onethird
ENCODING 8531
SWIDTH 600 0
DWIDTH 5 0
BBX 5 6 0 0
BITMAP
5A0000
080440
080600
003E30
062C30
623E50
ENDCHAR
STARTCHAR twothirds
ENCODING 8532
SWIDTH 600 0
DWIDTH 5 0
BBX 5 6 0 0
BITMAP
6D1000
250440
AF4600
003E30
062C30
623E50
ENDCHAR
STARTCHAR uni2155
ENCODING 8533
SWIDTH 600 0
DWIDTH 5 0
BBX 5 6 0 0
BITMAP
5A0000
080440
080600
003F60
064D50
623E50
ENDCHAR
STARTCHAR uni2156
ENCODING 8534
SWIDTH 600 0
DWIDTH 5 0
BBX 5 6 0 0
BITMAP
6D1000
250440
AF4600
003F60
064D50
623E50
ENDCHAR
STARTCHAR uni2157
ENCODING 8535
SWIDTH 600 0
DWIDTH 5 0
BBX 5 6 0 0
BITMAP
6D0000
4E1440
6E2600
003F60
064D50
623E50
ENDCHAR
STARTCHAR uni2158
ENCODING 8536
SWIDTH 600 0
DWIDTH 5 0
BBX 5 6 0 0
BITMAP
150000
660440
BF6600
003F60
064D50
623E50
ENDCHAR
STARTCHAR uni2159
ENCODING 8537
SWIDTH 600 0
DWIDTH 5 0
BBX 5 6 0 0
BITMAP
5A0000
080440
080600
002E50
067F60
623E50
ENDCHAR
STARTCHAR uni215A
ENCODING 8538
SWIDTH 600 0
DWIDTH 5 0
BBX 5 6 0 0
BITMAP
7F2000
7D2440
6E2600
002E50
067F60
623E50
ENDCHAR
STARTCHAR oneeighth
ENCODING 8539
SWIDTH 600 0
DWIDTH 5 0
BBX 5 6 0 0
BITMAP
5A0000
080440
080600
004E40
063E40
625E50
ENDCHAR
STARTCHAR threeeighths
ENCODING 8540
SWIDTH 600 0
DWIDTH 5 0
BBX 5 6 0 0
BITMAP
6D0000
4E1440
6E2600
004E40
063E40
625E50
ENDCHAR
STARTCHAR fiveeighths
ENCODING 8541
SWIDTH 600 0
DWIDTH 5 0
BBX 5 6 0 0
BITMAP
7F2000
7D2440
6E2600
004E40
063E40
625E50
ENDCHAR
STARTCHAR seveneighths
ENCODING 8542
SWIDTH 600 0
DWIDTH 5 0
BBX 5 6 0 0
BITMAP
AF4000
070440
170600
004E40
063E40
625E50
ENDCHAR
STARTCHAR uni2189
ENCODING 8585
SWIDTH 600 0
DWIDTH 5 0
BBX 5 6 0 0
BITMAP
7E3000
946440
7E3600
003E30
062C30
623E50
ENDCHAR
STARTCHAR uni2190
ENCODING 8592
SWIDTH 600 0
DWIDTH 5 0
BBX 5 5 0 0
BITMAP
025000
170000
AFFF80
170000
025000
ENDCHAR
STARTCHAR arrowup
ENCODING 8593
SWIDTH 600 0
DWIDTH 5 0
BBX 5 4 0 0
BITMAP
03B100
468810
108020
008000
ENDCHAR
STARTCHAR uni2192
ENCODING 8594
SWIDTH 600 0
DWIDTH 5 0
BBX 5 5 0 0
BITMAP
006100
001700
CFFF70
001700
006100
ENDCHAR
STARTCHAR arrowdown
ENCODING 8595
SWIDTH 600 0
DWIDTH 5 0
BBX 5 4 0 0
BITMAP
008000
108020
468810
03B100
ENDCHAR
STARTCHAR arrowboth
ENCODING 8596
SWIDTH 600 0
DWIDTH 5 0
BBX 5 5 0 0
BITMAP
030300
530530
EFFFB0
530530
030300
ENDCHAR
STARTCHAR arrowupdn
ENCODING 8597
SWIDTH 600 0
DWIDTH 5 0
BBX 4 5 0 0
BITMAP
04B2
1586
0080
2586
04B2
ENDCHAR
STARTCHAR uni2196
ENCODING 8598
SWIDTH 600 0
DWIDTH 5 0
BBX 4 4 0 0
BITMAP
2876
3A40
3474
1206
ENDCHAR
STARTCHAR uni2197
ENCODING 8599
SWIDTH 600 0
DWIDTH 5 0
BBX 4 4 0 0
BITMAP
1778
007B
0757
2503
ENDCHAR
STARTCHAR uni2198
ENCODING 8600
SWIDTH 600 0
DWIDTH 5 0
BBX 4 4 0 0
BITMAP
1504
0657
006B
0778
ENDCHAR
STARTCHAR uni2199
ENCODING 8601
SWIDTH 600 0
DWIDTH 5 0
BBX 4 4 0 0
BITMAP
1306
2574
2B40
1876
ENDCHAR
STARTCHAR arrowupdnbse
ENCODING 8616
SWIDTH 600 0
DWIDTH 5 0
BBX 5 6 0 -1
BITMAP
004000
18B700
118100
118200
18B700
8FFF50
ENDCHAR
STARTCHAR uni21D0
ENCODING 8656
SWIDTH 600 0
DWIDTH 5 0
BBX 5 6 0 -1
BITMAP
001000
054000
6FFF80
6FFF80
064000
001000
ENDCHAR
STARTCHAR uni21D1
ENCODING 8657
SWIDTH 600 0
DWIDTH 5 0
BBX 5 4 0 0
BITMAP
034200
4B1B20
271520
071500
ENDCHAR
STARTCHAR uni21D2
ENCODING 8658
SWIDTH 600 0
DWIDTH 5 0
BBX 5 6 0 -1
BITMAP
001000
006300
CFFE30
CFFE30
006300
001000
ENDCHAR
STARTCHAR uni21D3
ENCODING 8659
SWIDTH 600 0
DWIDTH 5 0
BBX 5 4 0 0
BITMAP
071500
271520
4B1B20
034200
ENDCHAR
STARTCHAR uni2200
ENCODING 8704
SWIDTH 600 0
DWIDTH 5 0
BBX 5 5 0 0
BITMAP
930660
3FFE10
0A1900
076500
02D000
ENDCHAR
STARTCHAR partialdiff
ENCODING 8706
SWIDTH 600 0
DWIDTH 5 0
BBX 5 5 0 0
BITMAP
06E800
031A10
1CEC20
572B00
2DD500
ENDCHAR
STARTCHAR uni2203
ENCODING 8707
SWIDTH 600 0
DWIDTH 5 0
BBX 4 5 0 0
BITMAP
5FFD
000A
0EFD
000A
7FFD
ENDCHAR
STARTCHAR uni2206
ENCODING 8710
SWIDTH 600 0
DWIDTH 5 0
BBX 5 5 0 0
BITMAP
02D000
075500
080800
440710
9FFF60
ENDCHAR
STARTCHAR product
ENCODING 8719
SWIDTH 600 0
DWIDTH 5 0
BBX 5 6 0 -1
BITMAP
9FFF60
910460
910460
910460
910460
910460
ENDCHAR
STARTCHAR summation
ENCODING 8721
SWIDTH 600 0
DWIDTH 5 0
BBX 5 6 0 -1
BITMAP
5FFF30
091000
019000
019000
191000
6FFF60
ENDCHAR
STARTCHAR minus
ENCODING 8722
SWIDTH 600 0
DWIDTH 5 0
BBX 5 1 0 2
BITMAP
5FFF20
ENDCHAR
STARTCHAR uni2215
ENCODING 8725
SWIDTH 600 0
DWIDTH 5 0
BBX 5 5 0 0
BITMAP
000440
000600
000000
060000
620000
ENDCHAR
STARTCHAR uni2219
ENCODING 8729
SWIDTH 600 0
DWIDTH 5 0
BBX 2 1 1 2
BITMAP
2C
ENDCHAR
STARTCHAR radical
ENCODING 8730
SWIDTH 600 0
DWIDTH 5 0
BBX 5 8 0 -1
BITMAP
000040
000160
000530
010700
390700
063700
01B400
00B100
ENDCHAR
STARTCHAR infinity
ENCODING 8734
SWIDTH 600 0
DWIDTH 5 0
BBX 5 3 0 1
BITMAP
AD5E70
A5C2A0
AC6E70
ENDCHAR
STARTCHAR orthogonal
ENCODING 8735
SWIDTH 600 0
DWIDTH 5 0
BBX 5 5 0 1
BITMAP
100000
530000
530000
530000
5FFF20
ENDCHAR
STARTCHAR intersection
ENCODING 8745
SWIDTH 600 0
DWIDTH 5 0
BBX 4 5 0 0
BITMAP
07E4
1819
3407
4407
1101
ENDCHAR
STARTCHAR integral
ENCODING 8747
SWIDTH 600 0
DWIDTH 5 0
BBX 3 9 1 -2
BITMAP
0970
0A00
0900
0800
0900
0900
0900
0A00
7900
ENDCHAR
STARTCHAR uni2237
ENCODING 8759
SWIDTH 600 0
DWIDTH 5 0
BBX 5 4 0 1
BITMAP
3B0D10
000000
000000
3B0D10
ENDCHAR
STARTCHAR approxequal
ENCODING 8776
SWIDTH 600 0
DWIDTH 5 0
BBX 5 3 0 1
BITMAP
2EFD10
000000
2EFD10
ENDCHAR
STARTCHAR notequal
ENCODING 8800
SWIDTH 600 0
DWIDTH 5 0
BBX 5 5 0 0
BITMAP
000700
5FFF20
007000
5FFF20
070000
ENDCHAR
STARTCHAR equivalence
ENCODING 8801
SWIDTH 600 0
DWIDTH 5 0
BBX 5 5 0 0
BITMAP
5FFF20
000000
5FFF20
000000
5FFF20
ENDCHAR
STARTCHAR lessequal
ENCODING 8804
SWIDTH 600 0
DWIDTH 5 0
BBX 5 4 0 0
BITMAP
048C20
5E9300
048D20
5FFF20
ENDCHAR
STARTCHAR greaterequal
ENCODING 8805
SWIDTH 600 0
DWIDTH 5 0
BBX 5 4 0 0
BITMAP
4B7300
04AE20
5C7300
5FFF20
ENDCHAR
STARTCHAR house
ENCODING 8962
SWIDTH 600 0
DWIDTH 5 0
BBX 5 5 0 0
BITMAP
04E200
1B4B00
810460
800260
9FFF60
ENDCHAR
STARTCHAR revlogicalnot
ENCODING 8976
SWIDTH 600 0
DWIDTH 5 0
BBX 5 3 0 0
BITMAP
5FFF20
530000
320000
ENDCHAR
STARTCHAR uni231C
ENCODING 8988
SWIDTH 600 0
DWIDTH 5 0
BBX 3 7 1 -1
BITMAP
3FF0
3500
3500
3500
3500
3500
1100
ENDCHAR
STARTCHAR uni231D
ENCODING 8989
SWIDTH 600 0
DWIDTH 5 0
BBX 3 7 0 -1
BITMAP
3FF0
0080
0080
0080
0080
0080
0010
ENDCHAR
STARTCHAR uni231E
ENCODING 8990
SWIDTH 600 0
DWIDTH 5 0
BBX 3 7 1 -1
BITMAP
1200
3500
3500
3500
3500
3500
3FF0
ENDCHAR
STARTCHAR uni231F
ENCODING 8991
SWIDTH 600 0
DWIDTH 5 0
BBX 3 7 0 -1
BITMAP
0030
0080
0080
0080
0080
0080
3FF0
ENDCHAR
STARTCHAR integraltp
ENCODING 8992
SWIDTH 600 0
DWIDTH 5 0
BBX 2 10 2 -3
BITMAP
68
90
90
90
90
90
90
90
90
90
ENDCHAR
STARTCHAR integralbt
ENCODING 8993
SWIDTH 600 0
DWIDTH 5 0
BBX 2 10 1 -2
BITMAP
07
09
09
09
09
09
09
09
19
B4
ENDCHAR
STARTCHAR uni2500
ENCODING 9472
SWIDTH 600 0
DWIDTH 5 0
BBX 7 1 -1 2
BITMAP
5FFFFF20
ENDCHAR
STARTCHAR uni2501
ENCODING 9473
SWIDTH 600 0
DWIDTH 5 0
BBX 7 1 -1 2
BITMAP
5FFFFF20
ENDCHAR
STARTCHAR uni2502
ENCODING 9474
SWIDTH 600 0
DWIDTH 5 0
BBX 1 11 2 -3
BITMAP
90
90
90
90
90
90
90
90
90
90
90
ENDCHAR
STARTCHAR uni2503
ENCODING 9475
SWIDTH 600 0
DWIDTH 5 0
BBX 2 11 1 -3
BITMAP
3F
3F
3F
3F
3F
3F
3F
3F
3F
3F
3F
ENDCHAR
STARTCHAR uni2504
ENCODING 9476
SWIDTH 600 0
DWIDTH 5 0
BBX 5 1 0 2
BITMAP
B7E880
ENDCHAR
STARTCHAR uni2505
ENCODING 9477
SWIDTH 600 0
DWIDTH 5 0
BBX 5 1 0 2
BITMAP
B7E880
ENDCHAR
STARTCHAR uni2506
ENCODING 9478
SWIDTH 600 0
DWIDTH 5 0
BBX 1 9 2 -2
BITMAP
90
90
00
40
90
60
20
90
80
ENDCHAR
STARTCHAR uni2507
ENCODING 9479
SWIDTH 600 0
DWIDTH 5 0
BBX 2 9 1 -2
BITMAP
3F
3F
00
00
3F
3F
00
3F
3F
ENDCHAR
STARTCHAR uni2508
ENCODING 9480
SWIDTH 600 0
DWIDTH 5 0
BBX 5 1 0 2
BITMAP
DABBA0
ENDCHAR
STARTCHAR uni2509
ENCODING 9481
SWIDTH 600 0
DWIDTH 5 0
BBX 5 1 0 2
BITMAP
DABBA0
ENDCHAR
STARTCHAR uni250A
ENCODING 9482
SWIDTH 600 0
DWIDTH 5 0
BBX 1 9 2 -2
BITMAP
90
90
90
90
00
90
90
90
90
ENDCHAR
STARTCHAR uni250B
ENCODING 9483
SWIDTH 600 0
DWIDTH 5 0
BBX 2 9 1 -2
BITMAP
3F
3F
3F
3F
00
3F
3F
3F
3F
ENDCHAR
STARTCHAR uni250C
ENCODING 9484
SWIDTH 600 0
DWIDTH 5 0
BBX 4 7 2 -4
BITMAP
EFF2
9000
9000
9000
9000
9000
3000
ENDCHAR
STARTCHAR uni250D
ENCODING 9485
SWIDTH 600 0
DWIDTH 5 0
BBX 4 6 2 -3
BITMAP
EFF2
9000
9000
9000
9000
9000
ENDCHAR
STARTCHAR uni250E
ENCODING 9486
SWIDTH 600 0
DWIDTH 5 0
BBX 5 7 1 -4
BITMAP
3FFF20
3F0000
3F0000
3F0000
3F0000
3F0000
140000
ENDCHAR
STARTCHAR uni250F
ENCODING 9487
SWIDTH 600 0
DWIDTH 5 0
BBX 5 6 1 -3
BITMAP
3FFF20
3F0000
3F0000
3F0000
3F0000
3F0000
ENDCHAR
STARTCHAR uni2510
ENCODING 9488
SWIDTH 600 0
DWIDTH 5 0
BBX 4 7 -1 -4
BITMAP
5FFB
0009
0009
0009
0009
0009
0003
ENDCHAR
STARTCHAR uni2511
ENCODING 9489
SWIDTH 600 0
DWIDTH 5 0
BBX 4 6 -1 -3
BITMAP
5FFB
0009
0009
0009
0009
0009
ENDCHAR
STARTCHAR uni2512
ENCODING 9490
SWIDTH 600 0
DWIDTH 5 0
BBX 4 7 -1 -4
BITMAP
5FFF
003F
003F
003F
003F
003F
0014
ENDCHAR
STARTCHAR uni2513
ENCODING 9491
SWIDTH 600 0
DWIDTH 5 0
BBX 4 6 -1 -3
BITMAP
5FFF
003F
003F
003F
003F
003F
ENDCHAR
STARTCHAR uni2514
ENCODING 9492
SWIDTH 600 0
DWIDTH 5 0
BBX 4 7 2 2
BITMAP
3000
9000
9000
9000
9000
9000
EFF2
ENDCHAR
STARTCHAR uni2515
ENCODING 9493
SWIDTH 600 0
DWIDTH 5 0
BBX 4 6 2 2
BITMAP
9000
9000
9000
9000
9000
EFF2
ENDCHAR
STARTCHAR uni2516
ENCODING 9494
SWIDTH 600 0
DWIDTH 5 0
BBX 5 7 1 2
BITMAP
140000
3F0000
3F0000
3F0000
3F0000
3F0000
3FFF20
ENDCHAR
STARTCHAR uni2517
ENCODING 9495
SWIDTH 600 0
DWIDTH 5 0
BBX 5 6 1 2
BITMAP
3F0000
3F0000
3F0000
3F0000
3F0000
3FFF20
ENDCHAR
STARTCHAR uni2518
ENCODING 9496
SWIDTH 600 0
DWIDTH 5 0
BBX 4 7 -1 2
BITMAP
0003
0009
0009
0009
0009
0009
5FFB
ENDCHAR
STARTCHAR uni2519
ENCODING 9497
SWIDTH 600 0
DWIDTH 5 0
BBX 4 6 -1 2
BITMAP
0009
0009
0009
0009
0009
5FFB
ENDCHAR
STARTCHAR uni251A
ENCODING 9498
SWIDTH 600 0
DWIDTH 5 0
BBX 4 7 -1 2
BITMAP
0014
003F
003F
003F
003F
003F
5FFF
ENDCHAR
STARTCHAR uni251B
ENCODING 9499
SWIDTH 600 0
DWIDTH 5 0
BBX 4 6 -1 2
BITMAP
003F
003F
003F
003F
003F
5FFF
ENDCHAR
STARTCHAR uni251C
ENCODING 9500
SWIDTH 600 0
DWIDTH 5 0
BBX 4 13 2 -4
BITMAP
3000
9000
9000
9000
9000
9000
EFF2
9000
9000
9000
9000
9000
3000
ENDCHAR
STARTCHAR uni251D
ENCODING 9501
SWIDTH 600 0
DWIDTH 5 0
BBX 4 11 2 -3
BITMAP
9000
9000
9000
9000
9000
EFF2
9000
9000
9000
9000
9000
ENDCHAR
STARTCHAR uni251E
ENCODING 9502
SWIDTH 600 0
DWIDTH 5 0
BBX 5 13 1 -4
BITMAP
140000
3F0000
3F0000
3F0000
3F0000
3F0000
3FFF20
090000
090000
090000
090000
090000
030000
ENDCHAR
STARTCHAR uni251F
ENCODING 9503
SWIDTH 600 0
DWIDTH 5 0
BBX 5 13 1 -4
BITMAP
030000
090000
090000
090000
090000
090000
3FFF20
3F0000
3F0000
3F0000
3F0000
3F0000
140000
ENDCHAR
STARTCHAR uni2520
ENCODING 9504
SWIDTH 600 0
DWIDTH 5 0
BBX 5 13 1 -4
BITMAP
140000
3F0000
3F0000
3F0000
3F0000
3F0000
3FFF20
3F0000
3F0000
3F0000
3F0000
3F0000
140000
ENDCHAR
STARTCHAR uni2521
ENCODING 9505
SWIDTH 600 0
DWIDTH 5 0
BBX 5 11 1 -3
BITMAP
3F0000
3F0000
3F0000
3F0000
3F0000
3FFF20
090000
090000
090000
090000
090000
ENDCHAR
STARTCHAR uni2522
ENCODING 9506
SWIDTH 600 0
DWIDTH 5 0
BBX 5 11 1 -3
BITMAP
090000
090000
090000
090000
090000
3FFF20
3F0000
3F0000
3F0000
3F0000
3F0000
ENDCHAR
STARTCHAR uni2523
ENCODING 9507
SWIDTH 600 0
DWIDTH 5 0
BBX 5 11 1 -3
BITMAP
3F0000
3F0000
3F0000
3F0000
3F0000
3FFF20
3F0000
3F0000
3F0000
3F0000
3F0000
ENDCHAR
STARTCHAR uni2524
ENCODING 9508
SWIDTH 600 0
DWIDTH 5 0
BBX 4 13 -1 -4
BITMAP
0003
0009
0009
0009
0009
0009
5FFB
0009
0009
0009
0009
0009
0003
ENDCHAR
STARTCHAR uni2525
ENCODING 9509
SWIDTH 600 0
DWIDTH 5 0
BBX 4 11 -1 -3
BITMAP
0009
0009
0009
0009
0009
5FFB
0009
0009
0009
0009
0009
ENDCHAR
STARTCHAR uni2526
ENCODING 9510
SWIDTH 600 0
DWIDTH 5 0
BBX 4 13 -1 -4
BITMAP
0014
003F
003F
003F
003F
003F
5FFF
0009
0009
0009
0009
0009
0003
ENDCHAR
STARTCHAR uni2527
ENCODING 9511
SWIDTH 600 0
DWIDTH 5 0
BBX 4 13 -1 -4
BITMAP
0003
0009
0009
0009
0009
0009
5FFF
003F
003F
003F
003F
003F
0014
ENDCHAR
STARTCHAR uni2528
ENCODING 9512
SWIDTH 600 0
DWIDTH 5 0
BBX 4 13 -1 -4
BITMAP
0014
003F
003F
003F
003F
003F
5FFF
003F
003F
003F
003F
003F
0014
ENDCHAR
STARTCHAR uni2529
ENCODING 9513
SWIDTH 600 0
DWIDTH 5 0
BBX 4 11 -1 -3
BITMAP
003F
003F
003F
003F
003F
5FFF
0009
0009
0009
0009
0009
ENDCHAR
STARTCHAR uni252A
ENCODING 9514
SWIDTH 600 0
DWIDTH 5 0
BBX 4 11 -1 -3
BITMAP
0009
0009
0009
0009
0009
5FFF
003F
003F
003F
003F
003F
ENDCHAR
STARTCHAR uni252B
ENCODING 9515
SWIDTH 600 0
DWIDTH 5 0
BBX 4 11 -1 -3
BITMAP
003F
003F
003F
003F
003F
5FFF
003F
003F
003F
003F
003F
ENDCHAR
STARTCHAR uni252C
ENCODING 9516
SWIDTH 600 0
DWIDTH 5 0
BBX 7 7 -1 -4
BITMAP
5FFFFF20
00090000
00090000
00090000
00090000
00090000
00030000
ENDCHAR
STARTCHAR uni252D
ENCODING 9517
SWIDTH 600 0
DWIDTH 5 0
BBX 7 6 -1 -3
BITMAP
5FFFFF20
00090000
00090000
00090000
00090000
00090000
ENDCHAR
STARTCHAR uni252E
ENCODING 9518
SWIDTH 600 0
DWIDTH 5 0
BBX 7 6 -1 -3
BITMAP
5FFFFF20
00090000
00090000
00090000
00090000
00090000
ENDCHAR
STARTCHAR uni252F
ENCODING 9519
SWIDTH 600 0
DWIDTH 5 0
BBX 7 6 -1 -3
BITMAP
5FFFFF20
00090000
00090000
00090000
00090000
00090000
ENDCHAR
STARTCHAR uni2530
ENCODING 9520
SWIDTH 600 0
DWIDTH 5 0
BBX 7 7 -1 -4
BITMAP
5FFFFF20
003F0000
003F0000
003F0000
003F0000
003F0000
00140000
ENDCHAR
STARTCHAR uni2531
ENCODING 9521
SWIDTH 600 0
DWIDTH 5 0
BBX 7 6 -1 -3
BITMAP
5FFFFF20
003F0000
003F0000
003F0000
003F0000
003F0000
ENDCHAR
STARTCHAR uni2532
ENCODING 9522
SWIDTH 600 0
DWIDTH 5 0
BBX 7 6 -1 -3
BITMAP
5FFFFF20
003F0000
003F0000
003F0000
003F0000
003F0000
ENDCHAR
STARTCHAR uni2533
ENCODING 9523
SWIDTH 600 0
DWIDTH 5 0
BBX 7 6 -1 -3
BITMAP
5FFFFF20
003F0000
003F0000
003F0000
003F0000
003F0000
ENDCHAR
STARTCHAR uni2534
ENCODING 9524
SWIDTH 600 0
DWIDTH 5 0
BBX 7 7 -1 2
BITMAP
00030000
00090000
00090000
00090000
00090000
00090000
5FFFFF20
ENDCHAR
STARTCHAR uni2535
ENCODING 9525
SWIDTH 600 0
DWIDTH 5 0
BBX 7 6 -1 2
BITMAP
00090000
00090000
00090000
00090000
00090000
5FFFFF20
ENDCHAR
STARTCHAR uni2536
ENCODING 9526
SWIDTH 600 0
DWIDTH 5 0
BBX 7 6 -1 2
BITMAP
00090000
00090000
00090000
00090000
00090000
5FFFFF20
ENDCHAR
STARTCHAR uni2537
ENCODING 9527
SWIDTH 600 0
DWIDTH 5 0
BBX 7 6 -1 2
BITMAP
00090000
00090000
00090000
00090000
00090000
5FFFFF20
ENDCHAR
STARTCHAR uni2538
ENCODING 9528
SWIDTH 600 0
DWIDTH 5 0
BBX 7 7 -1 2
BITMAP
00140000
003F0000
003F0000
003F0000
003F0000
003F0000
5FFFFF20
ENDCHAR
STARTCHAR uni2539
ENCODING 9529
SWIDTH 600 0
DWIDTH 5 0
BBX 7 6 -1 2
BITMAP
003F0000
003F0000
003F0000
003F0000
003F0000
5FFFFF20
ENDCHAR
STARTCHAR uni253A
ENCODING 9530
SWIDTH 600 0
DWIDTH 5 0
BBX 7 6 -1 2
BITMAP
003F0000
003F0000
003F0000
003F0000
003F0000
5FFFFF20
ENDCHAR
STARTCHAR uni253B
ENCODING 9531
SWIDTH 600 0
DWIDTH 5 0
BBX 7 6 -1 2
BITMAP
003F0000
003F0000
003F0000
003F0000
003F0000
5FFFFF20
ENDCHAR
STARTCHAR uni253C
ENCODING 9532
SWIDTH 600 0
DWIDTH 5 0
BBX 7 13 -1 -4
BITMAP
00030000
00090000
00090000
00090000
00090000
00090000
5FFFFF20
00090000
00090000
00090000
00090000
00090000
00030000
ENDCHAR
STARTCHAR uni253D
ENCODING 9533
SWIDTH 600 0
DWIDTH 5 0
BBX 7 11 -1 -3
BITMAP
00090000
00090000
00090000
00090000
00090000
5FFFFF20
00090000
00090000
00090000
00090000
00090000
ENDCHAR
STARTCHAR uni253E
ENCODING 9534
SWIDTH 600 0
DWIDTH 5 0
BBX 7 11 -1 -3
BITMAP
00090000
00090000
00090000
00090000
00090000
5FFFFF20
00090000
00090000
00090000
00090000
00090000
ENDCHAR
STARTCHAR uni253F
ENCODING 9535
SWIDTH 600 0
DWIDTH 5 0
BBX 7 11 -1 -3
BITMAP
00090000
00090000
00090000
00090000
00090000
5FFFFF20
00090000
00090000
00090000
00090000
00090000
ENDCHAR
STARTCHAR uni2540
ENCODING 9536
SWIDTH 600 0
DWIDTH 5 0
BBX 7 13 -1 -4
BITMAP
00140000
003F0000
003F0000
003F0000
003F0000
003F0000
5FFFFF20
00090000
00090000
00090000
00090000
00090000
00030000
ENDCHAR
STARTCHAR uni2541
ENCODING 9537
SWIDTH 600 0
DWIDTH 5 0
BBX 7 13 -1 -4
BITMAP
00030000
00090000
00090000
00090000
00090000
00090000
5FFFFF20
003F0000
003F0000
003F0000
003F0000
003F0000
00140000
ENDCHAR
STARTCHAR uni2542
ENCODING 9538
SWIDTH 600 0
DWIDTH 5 0
BBX 7 13 -1 -4
BITMAP
00140000
003F0000
003F0000
003F0000
003F0000
003F0000
5FFFFF20
003F0000
003F0000
003F0000
003F0000
003F0000
00140000
ENDCHAR
STARTCHAR uni2543
ENCODING 9539
SWIDTH 600 0
DWIDTH 5 0
BBX 7 11 -1 -3
BITMAP
003F0000
003F0000
003F0000
003F0000
003F0000
5FFFFF20
00090000
00090000
00090000
00090000
00090000
ENDCHAR
STARTCHAR uni2544
ENCODING 9540
SWIDTH 600 0
DWIDTH 5 0
BBX 7 11 -1 -3
BITMAP
003F0000
003F0000
003F0000
003F0000
003F0000
5FFFFF20
00090000
00090000
00090000
00090000
00090000
ENDCHAR
STARTCHAR uni2545
ENCODING 9541
SWIDTH 600 0
DWIDTH 5 0
BBX 7 11 -1 -3
BITMAP
00090000
00090000
00090000
00090000
00090000
5FFFFF20
003F0000
003F0000
003F0000
003F0000
003F0000
ENDCHAR
STARTCHAR uni2546
ENCODING 9542
SWIDTH 600 0
DWIDTH 5 0
BBX 7 11 -1 -3
BITMAP
00090000
00090000
00090000
00090000
00090000
5FFFFF20
003F0000
003F0000
003F0000
003F0000
003F0000
ENDCHAR
STARTCHAR uni2547
ENCODING 9543
SWIDTH 600 0
DWIDTH 5 0
BBX 7 11 -1 -3
BITMAP
003F0000
003F0000
003F0000
003F0000
003F0000
5FFFFF20
00090000
00090000
00090000
00090000
00090000
ENDCHAR
STARTCHAR uni2548
ENCODING 9544
SWIDTH 600 0
DWIDTH 5 0
BBX 7 11 -1 -3
BITMAP
00090000
00090000
00090000
00090000
00090000
5FFFFF20
003F0000
003F0000
003F0000
003F0000
003F0000
ENDCHAR
STARTCHAR uni2549
ENCODING 9545
SWIDTH 600 0
DWIDTH 5 0
BBX 7 11 -1 -3
BITMAP
003F0000
003F0000
003F0000
003F0000
003F0000
5FFFFF20
003F0000
003F0000
003F0000
003F0000
003F0000
ENDCHAR
STARTCHAR uni254A
ENCODING 9546
SWIDTH 600 0
DWIDTH 5 0
BBX 7 11 -1 -3
BITMAP
003F0000
003F0000
003F0000
003F0000
003F0000
5FFFFF20
003F0000
003F0000
003F0000
003F0000
003F0000
ENDCHAR
STARTCHAR uni254B
ENCODING 9547
SWIDTH 600 0
DWIDTH 5 0
BBX 7 11 -1 -3
BITMAP
003F0000
003F0000
003F0000
003F0000
003F0000
5FFFFF20
003F0000
003F0000
003F0000
003F0000
003F0000
ENDCHAR
STARTCHAR uni254C
ENCODING 9548
SWIDTH 600 0
DWIDTH 5 0
BBX 5 1 0 2
BITMAP
6C0F30
ENDCHAR
STARTCHAR uni254D
ENCODING 9549
SWIDTH 600 0
DWIDTH 5 0
BBX 5 1 0 2
BITMAP
6C0F30
ENDCHAR
STARTCHAR uni254E
ENCODING 9550
SWIDTH 600 0
DWIDTH 5 0
BBX 1 7 2 -1
BITMAP
90
90
40
00
40
90
90
ENDCHAR
STARTCHAR uni254F
ENCODING 9551
SWIDTH 600 0
DWIDTH 5 0
BBX 2 8 1 -2
BITMAP
3F
3F
00
00
13
3F
3F
13
ENDCHAR
STARTCHAR uni2550
ENCODING 9552
SWIDTH 600 0
DWIDTH 5 0
BBX 7 3 -1 1
BITMAP
5FFFFF20
00000000
5FFFFF20
ENDCHAR
STARTCHAR uni2551
ENCODING 9553
SWIDTH 600 0
DWIDTH 5 0
BBX 3 11 1 -3
BITMAP
8650
8650
8650
8650
8650
8650
8650
8650
8650
8650
8650
ENDCHAR
STARTCHAR uni2552
ENCODING 9554
SWIDTH 600 0
DWIDTH 5 0
BBX 4 8 2 -4
BITMAP
EFF2
9000
EFF2
9000
9000
9000
9000
6000
ENDCHAR
STARTCHAR uni2553
ENCODING 9555
SWIDTH 600 0
DWIDTH 5 0
BBX 5 7 1 -4
BITMAP
8FFF20
865000
865000
865000
865000
865000
222000
ENDCHAR
STARTCHAR uni2554
ENCODING 9556
SWIDTH 600 0
DWIDTH 5 0
BBX 5 8 1 -4
BITMAP
8FFF20
810000
86FF20
865000
865000
865000
765000
033000
ENDCHAR
STARTCHAR uni2555
ENCODING 9557
SWIDTH 600 0
DWIDTH 5 0
BBX 4 8 -1 -4
BITMAP
5FFB
0009
5FFB
0009
0009
0009
0009
0006
ENDCHAR
STARTCHAR uni2556
ENCODING 9558
SWIDTH 600 0
DWIDTH 5 0
BBX 5 7 -1 -4
BITMAP
5FFF50
008650
008650
008650
008650
008650
002220
ENDCHAR
STARTCHAR uni2557
ENCODING 9559
SWIDTH 600 0
DWIDTH 5 0
BBX 5 8 -1 -4
BITMAP
5FFF50
000450
5FF650
008650
008650
008650
008550
005100
ENDCHAR
STARTCHAR uni2558
ENCODING 9560
SWIDTH 600 0
DWIDTH 5 0
BBX 4 8 2 1
BITMAP
6000
9000
9000
9000
9000
EFF2
9000
EFF2
ENDCHAR
STARTCHAR uni2559
ENCODING 9561
SWIDTH 600 0
DWIDTH 5 0
BBX 5 7 1 2
BITMAP
221000
865000
865000
865000
865000
865000
8FFF20
ENDCHAR
STARTCHAR uni255A
ENCODING 9562
SWIDTH 600 0
DWIDTH 5 0
BBX 5 8 1 1
BITMAP
033000
755000
865000
865000
865000
86FF20
810000
8FFF20
ENDCHAR
STARTCHAR uni255B
ENCODING 9563
SWIDTH 600 0
DWIDTH 5 0
BBX 4 8 -1 1
BITMAP
0006
0009
0009
0009
0009
5FFB
0009
5FFB
ENDCHAR
STARTCHAR uni255C
ENCODING 9564
SWIDTH 600 0
DWIDTH 5 0
BBX 5 7 -1 2
BITMAP
002210
008650
008650
008650
008650
008650
5FFF50
ENDCHAR
STARTCHAR uni255D
ENCODING 9565
SWIDTH 600 0
DWIDTH 5 0
BBX 5 8 -1 1
BITMAP
005100
008550
008650
008650
008650
5FF650
000450
5FFF50
ENDCHAR
STARTCHAR uni255E
ENCODING 9566
SWIDTH 600 0
DWIDTH 5 0
BBX 4 13 2 -4
BITMAP
6000
9000
9000
9000
9000
EFF2
9000
EFF2
9000
9000
9000
9000
6000
ENDCHAR
STARTCHAR uni255F
ENCODING 9567
SWIDTH 600 0
DWIDTH 5 0
BBX 5 13 1 -4
BITMAP
011000
865000
865000
865000
865000
865000
86FF20
865000
865000
865000
865000
865000
222000
ENDCHAR
STARTCHAR uni2560
ENCODING 9568
SWIDTH 600 0
DWIDTH 5 0
BBX 5 13 1 -4
BITMAP
033000
865000
865000
865000
865000
86FF20
810000
86FF20
865000
865000
865000
865000
233000
ENDCHAR
STARTCHAR uni2561
ENCODING 9569
SWIDTH 600 0
DWIDTH 5 0
BBX 4 13 -1 -4
BITMAP
0006
0009
0009
0009
0009
5FFB
0009
5FFB
0009
0009
0009
0009
0006
ENDCHAR
STARTCHAR uni2562
ENCODING 9570
SWIDTH 600 0
DWIDTH 5 0
BBX 5 13 -1 -4
BITMAP
002000
008650
008650
008650
008650
008650
5FF650
008650
008650
008650
008650
008650
002110
ENDCHAR
STARTCHAR uni2563
ENCODING 9571
SWIDTH 600 0
DWIDTH 5 0
BBX 5 13 -1 -4
BITMAP
005100
008650
008650
008650
008650
5FF650
000450
5FF650
008650
008650
008650
008650
005210
ENDCHAR
STARTCHAR uni2564
ENCODING 9572
SWIDTH 600 0
DWIDTH 5 0
BBX 7 8 -1 -4
BITMAP
5FFFFF20
00000000
5FFFFF20
00090000
00090000
00090000
00090000
00060000
ENDCHAR
STARTCHAR uni2565
ENCODING 9573
SWIDTH 600 0
DWIDTH 5 0
BBX 7 7 -1 -4
BITMAP
5FFFFF20
00865000
00865000
00865000
00865000
00865000
00222000
ENDCHAR
STARTCHAR uni2566
ENCODING 9574
SWIDTH 600 0
DWIDTH 5 0
BBX 7 8 -1 -4
BITMAP
5FFFFF20
00000000
5FF6FF20
00865000
00865000
00865000
00865000
00543000
ENDCHAR
STARTCHAR uni2567
ENCODING 9575
SWIDTH 600 0
DWIDTH 5 0
BBX 7 8 -1 1
BITMAP
00060000
00090000
00090000
00090000
00090000
5FFFFF20
00000000
5FFFFF20
ENDCHAR
STARTCHAR uni2568
ENCODING 9576
SWIDTH 600 0
DWIDTH 5 0
BBX 7 7 -1 2
BITMAP
00221000
00865000
00865000
00865000
00865000
00865000
5FFFFF20
ENDCHAR
STARTCHAR uni2569
ENCODING 9577
SWIDTH 600 0
DWIDTH 5 0
BBX 7 8 -1 1
BITMAP
00543000
00865000
00865000
00865000
00865000
5FF6FF20
00000000
5FFFFF20
ENDCHAR
STARTCHAR uni256A
ENCODING 9578
SWIDTH 600 0
DWIDTH 5 0
BBX 7 13 -1 -4
BITMAP
00060000
00090000
00090000
00090000
00090000
5FFFFF20
00090000
5FFFFF20
00090000
00090000
00090000
00090000
00060000
ENDCHAR
STARTCHAR uni256B
ENCODING 9579
SWIDTH 600 0
DWIDTH 5 0
BBX 7 13 -1 -4
BITMAP
00221000
00865000
00865000
00865000
00865000
00865000
5FFFFF20
00865000
00865000
00865000
00865000
00865000
00222000
ENDCHAR
STARTCHAR uni256C
ENCODING 9580
SWIDTH 600 0
DWIDTH 5 0
BBX 7 13 -1 -4
BITMAP
00543000
00865000
00865000
00865000
00865000
5FF6FF20
00000000
5FF6FF20
00865000
00865000
00865000
00865000
00543000
ENDCHAR
STARTCHAR uni256D
ENCODING 9581
SWIDTH 600 0
DWIDTH 5 0
BBX 4 7 2 -4
BITMAP
06E2
5810
A000
9000
9000
9000
3000
ENDCHAR
STARTCHAR uni256E
ENCODING 9582
SWIDTH 600 0
DWIDTH 5 0
BBX 4 7 -1 -4
BITMAP
5D40
02A3
0019
0009
0009
0009
0003
ENDCHAR
STARTCHAR uni256F
ENCODING 9583
SWIDTH 600 0
DWIDTH 5 0
BBX 4 7 -1 2
BITMAP
0003
0009
0009
0009
0019
02A3
5D40
ENDCHAR
STARTCHAR uni2570
ENCODING 9584
SWIDTH 600 0
DWIDTH 5 0
BBX 4 7 2 2
BITMAP
3000
9000
9000
9000
A000
6810
07E2
ENDCHAR
STARTCHAR uni2571
ENCODING 9585
SWIDTH 600 0
DWIDTH 5 0
BBX 5 10 0 -3
BITMAP
000080
000460
000A00
003700
00A100
037000
091000
280000
910000
800000
ENDCHAR
STARTCHAR uni2572
ENCODING 9586
SWIDTH 600 0
DWIDTH 5 0
BBX 5 10 0 -3
BITMAP
800000
910000
280000
091000
037000
00A100
003700
000A00
000460
000080
ENDCHAR
STARTCHAR uni2573
ENCODING 9587
SWIDTH 600 0
DWIDTH 5 0
BBX 5 10 0 -3
BITMAP
900090
920460
290B00
0A6700
03E100
03E100
0A6700
290B00
920460
900090
ENDCHAR
STARTCHAR uni2574
ENCODING 9588
SWIDTH 600 0
DWIDTH 5 0
BBX 4 1 -1 2
BITMAP
5FFB
ENDCHAR
STARTCHAR uni2575
ENCODING 9589
SWIDTH 600 0
DWIDTH 5 0
BBX 1 6 2 2
BITMAP
90
90
90
90
90
90
ENDCHAR
STARTCHAR uni2576
ENCODING 9590
SWIDTH 600 0
DWIDTH 5 0
BBX 4 1 2 2
BITMAP
EFF2
ENDCHAR
STARTCHAR uni2577
ENCODING 9591
SWIDTH 600 0
DWIDTH 5 0
BBX 1 6 2 -3
BITMAP
90
90
90
90
90
90
ENDCHAR
STARTCHAR uni2578
ENCODING 9592
SWIDTH 600 0
DWIDTH 5 0
BBX 4 1 -1 2
BITMAP
5FFB
ENDCHAR
STARTCHAR uni2579
ENCODING 9593
SWIDTH 600 0
DWIDTH 5 0
BBX 2 6 1 2
BITMAP
3F
3F
3F
3F
3F
3F
ENDCHAR
STARTCHAR uni257A
ENCODING 9594
SWIDTH 600 0
DWIDTH 5 0
BBX 4 1 2 2
BITMAP
EFF2
ENDCHAR
STARTCHAR uni257B
ENCODING 9595
SWIDTH 600 0
DWIDTH 5 0
BBX 2 6 1 -3
BITMAP
3F
3F
3F
3F
3F
3F
ENDCHAR
STARTCHAR uni257C
ENCODING 9596
SWIDTH 600 0
DWIDTH 5 0
BBX 7 3 -1 1
BITMAP
00045500
5FFFFF20
00045500
ENDCHAR
STARTCHAR uni257D
ENCODING 9597
SWIDTH 600 0
DWIDTH 5 0
BBX 2 11 1 -3
BITMAP
09
09
09
09
09
3E
3F
3F
3F
3F
3F
ENDCHAR
STARTCHAR uni257E
ENCODING 9598
SWIDTH 600 0
DWIDTH 5 0
BBX 7 3 -1 1
BITMAP
15530000
5FFFFF20
15530000
ENDCHAR
STARTCHAR uni257F
ENCODING 9599
SWIDTH 600 0
DWIDTH 5 0
BBX 2 11 1 -3
BITMAP
3F
3F
3F
3F
3F
3E
09
09
09
09
09
ENDCHAR
STARTCHAR uni2580
ENCODING 9600
SWIDTH 600 0
DWIDTH 5 0
BBX 5 6 0 2
BITMAP
FFFFC0
FFFFC0
FFFFC0
FFFFC0
FFFFC0
FFFFC0
ENDCHAR
STARTCHAR uni2581
ENCODING 9601
SWIDTH 600 0
DWIDTH 5 0
BBX 5 1 0 -3
BITMAP
FFFFC0
ENDCHAR
STARTCHAR uni2582
ENCODING 9602
SWIDTH 600 0
DWIDTH 5 0
BBX 5 3 0 -3
BITMAP
FFFFC0
FFFFC0
FFFFC0
ENDCHAR
STARTCHAR uni2583
ENCODING 9603
SWIDTH 600 0
DWIDTH 5 0
BBX 5 4 0 -3
BITMAP
FFFFC0
FFFFC0
FFFFC0
FFFFC0
ENDCHAR
STARTCHAR uni2584
ENCODING 9604
SWIDTH 600 0
DWIDTH 5 0
BBX 5 5 0 -3
BITMAP
FFFFC0
FFFFC0
FFFFC0
FFFFC0
FFFFC0
ENDCHAR
STARTCHAR uni2585
ENCODING 9605
SWIDTH 600 0
DWIDTH 5 0
BBX 5 7 0 -3
BITMAP
FFFFC0
FFFFC0
FFFFC0
FFFFC0
FFFFC0
FFFFC0
FFFFC0
ENDCHAR
STARTCHAR uni2586
ENCODING 9606
SWIDTH 600 0
DWIDTH 5 0
BBX 5 8 0 -3
BITMAP
FFFFC0
FFFFC0
FFFFC0
FFFFC0
FFFFC0
FFFFC0
FFFFC0
FFFFC0
ENDCHAR
STARTCHAR uni2587
ENCODING 9607
SWIDTH 600 0
DWIDTH 5 0
BBX 5 10 0 -3
BITMAP
FFFFC0
FFFFC0
FFFFC0
FFFFC0
FFFFC0
FFFFC0
FFFFC0
FFFFC0
FFFFC0
FFFFC0
ENDCHAR
STARTCHAR uni2588
ENCODING 9608
SWIDTH 600 0
DWIDTH 5 0
BBX 5 11 0 -3
BITMAP
FFFFC0
FFFFC0
FFFFC0
FFFFC0
FFFFC0
FFFFC0
FFFFC0
FFFFC0
FFFFC0
FFFFC0
FFFFC0
ENDCHAR
STARTCHAR uni2589
ENCODING 9609
SWIDTH 600 0
DWIDTH 5 0
BBX 5 11 0 -3
BITMAP
FFFF30
FFFF30
FFFF30
FFFF30
FFFF30
FFFF30
FFFF30
FFFF30
FFFF30
FFFF30
FFFF30
ENDCHAR
STARTCHAR uni258A
ENCODING 9610
SWIDTH 600 0
DWIDTH 5 0
BBX 4 11 0 -3
BITMAP
FFF9
FFF9
FFF9
FFF9
FFF9
FFF9
FFF9
FFF9
FFF9
FFF9
FFF9
ENDCHAR
STARTCHAR uni258B
ENCODING 9611
SWIDTH 600 0
DWIDTH 5 0
BBX 3 11 0 -3
BITMAP
FFF0
FFF0
FFF0
FFF0
FFF0
FFF0
FFF0
FFF0
FFF0
FFF0
FFF0
ENDCHAR
STARTCHAR uni258C
ENCODING 9612
SWIDTH 600 0
DWIDTH 5 0
BBX 3 11 0 -3
BITMAP
FF60
FF60
FF60
FF60
FF60
FF60
FF60
FF60
FF60
FF60
FF60
ENDCHAR
STARTCHAR uni258D
ENCODING 9613
SWIDTH 600 0
DWIDTH 5 0
BBX 2 11 0 -3
BITMAP
FC
FC
FC
FC
FC
FC
FC
FC
FC
FC
FC
ENDCHAR
STARTCHAR uni258E
ENCODING 9614
SWIDTH 600 0
DWIDTH 5 0
BBX 2 11 0 -3
BITMAP
F3
F3
F3
F3
F3
F3
F3
F3
F3
F3
F3
ENDCHAR
STARTCHAR uni258F
ENCODING 9615
SWIDTH 600 0
DWIDTH 5 0
BBX 1 11 0 -3
BITMAP
90
90
90
90
90
90
90
90
90
90
90
ENDCHAR
STARTCHAR uni2590
ENCODING 9616
SWIDTH 600 0
DWIDTH 5 0
BBX 3 11 2 -3
BITMAP
9FC0
9FC0
9FC0
9FC0
9FC0
9FC0
9FC0
9FC0
9FC0
9FC0
9FC0
ENDCHAR
STARTCHAR uni2591
ENCODING 9617
SWIDTH 600 0
DWIDTH 5 0
BBX 6 10 -1 -3
BITMAP
142432
030422
122221
122221
030422
112020
031322
031322
112020
142432
ENDCHAR
STARTCHAR uni2592
ENCODING 9618
SWIDTH 600 0
DWIDTH 5 0
BBX 6 11 -1 -3
BITMAP
062844
224030
062844
254452
254452
062844
234241
163653
163653
234241
285874
ENDCHAR
STARTCHAR uni2593
ENCODING 9619
SWIDTH 600 0
DWIDTH 5 0
BBX 6 12 -1 -4
BITMAP
0A7D87
489792
1C9E98
39A994
39A994
1C9E98
4AA9A4
2BAC96
2BAC96
4AA9A4
0B7E88
448260
ENDCHAR
STARTCHAR uni2594
ENCODING 9620
SWIDTH 600 0
DWIDTH 5 0
BBX 5 1 0 7
BITMAP
FFFFC0
ENDCHAR
STARTCHAR uni2595
ENCODING 9621
SWIDTH 600 0
DWIDTH 5 0
BBX 1 11 4 -3
BITMAP
90
90
90
90
90
90
90
90
90
90
90
ENDCHAR
STARTCHAR uni2596
ENCODING 9622
SWIDTH 600 0
DWIDTH 5 0
BBX 3 5 0 -3
BITMAP
FF60
FF60
FF60
FF60
FF60
ENDCHAR
STARTCHAR uni2597
ENCODING 9623
SWIDTH 600 0
DWIDTH 5 0
BBX 3 5 2 -3
BITMAP
9FC0
9FC0
9FC0
9FC0
9FC0
ENDCHAR
STARTCHAR uni2598
ENCODING 9624
SWIDTH 600 0
DWIDTH 5 0
BBX 3 6 0 2
BITMAP
FF60
FF60
FF60
FF60
FF60
FF60
ENDCHAR
STARTCHAR uni2599
ENCODING 9625
SWIDTH 600 0
DWIDTH 5 0
BBX 5 11 0 -3
BITMAP
FF6000
FF6000
FF6000
FF6000
FF6000
FF6000
FFFFC0
FFFFC0
FFFFC0
FFFFC0
FFFFC0
ENDCHAR
STARTCHAR uni259A
ENCODING 9626
SWIDTH 600 0
DWIDTH 5 0
BBX 5 11 0 -3
BITMAP
FF6000
FF6000
FF6000
FF6000
FF6000
FF6000
009FC0
009FC0
009FC0
009FC0
009FC0
ENDCHAR
STARTCHAR uni259B
ENCODING 9627
SWIDTH 600 0
DWIDTH 5 0
BBX 5 11 0 -3
BITMAP
FFFFC0
FFFFC0
FFFFC0
FFFFC0
FFFFC0
FFFFC0
FF6000
FF6000
FF6000
FF6000
FF6000
ENDCHAR
STARTCHAR uni259C
ENCODING 9628
SWIDTH 600 0
DWIDTH 5 0
BBX 5 11 0 -3
BITMAP
FFFFC0
FFFFC0
FFFFC0
FFFFC0
FFFFC0
FFFFC0
009FC0
009FC0
009FC0
009FC0
009FC0
ENDCHAR
STARTCHAR uni259D
ENCODING 9629
SWIDTH 600 0
DWIDTH 5 0
BBX 3 6 2 2
BITMAP
9FC0
9FC0
9FC0
9FC0
9FC0
9FC0
ENDCHAR
STARTCHAR uni259E
ENCODING 9630
SWIDTH 600 0
DWIDTH 5 0
BBX 5 11 0 -3
BITMAP
009FC0
009FC0
009FC0
009FC0
009FC0
009FC0
FF6000
FF6000
FF6000
FF6000
FF6000
ENDCHAR
STARTCHAR uni259F
ENCODING 9631
SWIDTH 600 0
DWIDTH 5 0
BBX 5 11 0 -3
BITMAP
009FC0
009FC0
009FC0
009FC0
009FC0
009FC0
FFFFC0
FFFFC0
FFFFC0
FFFFC0
FFFFC0
ENDCHAR
STARTCHAR uni25A0
ENCODING 9632
SWIDTH 600 0
DWIDTH 5 0
BBX 5 3 0 1
BITMAP
4FFF20
4FFF20
4FFF20
ENDCHAR
STARTCHAR uni25A1
ENCODING 9633
SWIDTH 600 0
DWIDTH 5 0
BBX 5 4 0 1
BITMAP
6FFF30
600330
600330
6FFF30
ENDCHAR
STARTCHAR uni25AA
ENCODING 9642
SWIDTH 600 0
DWIDTH 5 0
BBX 3 2 1 1
BITMAP
AF70
AF70
ENDCHAR
STARTCHAR uni25AB
ENCODING 9643
SWIDTH 600 0
DWIDTH 5 0
BBX 3 3 1 1
BITMAP
CF80
6060
CF80
ENDCHAR
STARTCHAR filledrect
ENCODING 9644
SWIDTH 600 0
DWIDTH 5 0
BBX 5 1 0 2
BITMAP
FFFFC0
ENDCHAR
STARTCHAR triagup
ENCODING 9650
SWIDTH 600 0
DWIDTH 5 0
BBX 5 4 0 1
BITMAP
007000
05F200
0CF900
4FFF10
ENDCHAR
STARTCHAR uni25B3
ENCODING 9651
SWIDTH 600 0
DWIDTH 5 0
BBX 5 4 0 1
BITMAP
002000
021100
020200
4FFF10
ENDCHAR
STARTCHAR uni25B4
ENCODING 9652
SWIDTH 600 0
DWIDTH 5 0
BBX 3 2 1 1
BITMAP
1900
9F60
ENDCHAR
STARTCHAR uni25B5
ENCODING 9653
SWIDTH 600 0
DWIDTH 5 0
BBX 3 2 1 1
BITMAP
1000
CF90
ENDCHAR
STARTCHAR uni25B6
ENCODING 9654
SWIDTH 600 0
DWIDTH 5 0
BBX 5 4 0 1
BITMAP
781000
8FE910
8FD600
550000
ENDCHAR
STARTCHAR uni25B7
ENCODING 9655
SWIDTH 600 0
DWIDTH 5 0
BBX 5 4 0 1
BITMAP
781000
64A910
601300
420000
ENDCHAR
STARTCHAR uni25B8
ENCODING 9656
SWIDTH 600 0
DWIDTH 5 0
BBX 3 3 1 1
BITMAP
8400
AF50
8400
ENDCHAR
STARTCHAR uni25B9
ENCODING 9657
SWIDTH 600 0
DWIDTH 5 0
BBX 3 3 1 1
BITMAP
7400
5460
7400
ENDCHAR
STARTCHAR triagrt
ENCODING 9658
SWIDTH 600 0
DWIDTH 5 0
BBX 5 4 0 1
BITMAP
A72000
CFFA40
CFD720
840000
ENDCHAR
STARTCHAR triagdn
ENCODING 9660
SWIDTH 600 0
DWIDTH 5 0
BBX 5 4 0 1
BITMAP
4FFE10
0CF900
04F200
006000
ENDCHAR
STARTCHAR uni25BD
ENCODING 9661
SWIDTH 600 0
DWIDTH 5 0
BBX 5 4 0 1
BITMAP
4FFE10
020200
011100
002000
ENDCHAR
STARTCHAR uni25BE
ENCODING 9662
SWIDTH 600 0
DWIDTH 5 0
BBX 3 2 1 1
BITMAP
9F60
1900
ENDCHAR
STARTCHAR uni25BF
ENCODING 9663
SWIDTH 600 0
DWIDTH 5 0
BBX 3 2 1 2
BITMAP
CF90
1000
ENDCHAR
STARTCHAR uni25C0
ENCODING 9664
SWIDTH 600 0
DWIDTH 5 0
BBX 5 4 0 1
BITMAP
002940
2AFF40
17EF40
000630
ENDCHAR
STARTCHAR uni25C1
ENCODING 9665
SWIDTH 600 0
DWIDTH 5 0
BBX 5 4 0 1
BITMAP
002940
2A9340
131140
000230
ENDCHAR
STARTCHAR uni25C2
ENCODING 9666
SWIDTH 600 0
DWIDTH 5 0
BBX 3 3 1 1
BITMAP
0660
8F70
0660
ENDCHAR
STARTCHAR uni25C3
ENCODING 9667
SWIDTH 600 0
DWIDTH 5 0
BBX 3 3 1 1
BITMAP
0560
8250
0560
ENDCHAR
STARTCHAR triaglf
ENCODING 9668
SWIDTH 600 0
DWIDTH 5 0
BBX 5 4 0 1
BITMAP
003880
6CFF90
39EF90
001560
ENDCHAR
STARTCHAR uni25C6
ENCODING 9670
SWIDTH 600 0
DWIDTH 5 0
BBX 5 4 0 1
BITMAP
03B200
4EFD20
4EFD20
03B200
ENDCHAR
STARTCHAR uni25C9
ENCODING 9673
SWIDTH 600 0
DWIDTH 5 0
BBX 5 5 0 0
BITMAP
0AE800
6BFC30
69F750
654730
0AE800
ENDCHAR
STARTCHAR lozenge
ENCODING 9674
SWIDTH 600 0
DWIDTH 5 0
BBX 4 5 0 0
BITMAP
03E1
0A57
2809
0A57
03E1
ENDCHAR
STARTCHAR uni25CB
ENCODING 9675
SWIDTH 600 0
DWIDTH 5 0
BBX 5 5 0 0
BITMAP
0AE700
561920
700340
561920
0AE700
ENDCHAR
STARTCHAR uni25CC
ENCODING 9676
SWIDTH 600 0
DWIDTH 5 0
BBX 5 4 0 0
BITMAP
066600
420510
A20760
066600
ENDCHAR
STARTCHAR uni25CF
ENCODING 9679
SWIDTH 600 0
DWIDTH 5 0
BBX 5 4 0 1
BITMAP
0AE800
5FFF20
5FFF20
0BE800
ENDCHAR
STARTCHAR invbullet
ENCODING 9688
SWIDTH 600 0
DWIDTH 5 0
BBX 3 4 1 0
BITMAP
CF90
5150
5150
CF90
ENDCHAR
STARTCHAR invcircle
ENCODING 9689
SWIDTH 600 0
DWIDTH 5 0
BBX 5 4 0 1
BITMAP
651740
29F620
2EFB20
6ACA40
ENDCHAR
STARTCHAR uni25E6
ENCODING 9702
SWIDTH 600 0
DWIDTH 5 0
BBX 3 3 1 1
BITMAP
8E50
9280
8E50
ENDCHAR
STARTCHAR uni2610
ENCODING 9744
SWIDTH 600 0
DWIDTH 5 0
BBX 6 6 -1 0
BITMAP
2EFFFF
320009
320009
320009
320009
3FFFFD
ENDCHAR
STARTCHAR uni2611
ENCODING 9745
SWIDTH 600 0
DWIDTH 5 0
BBX 7 7 -1 -1
BITMAP
00000350
2FFFFF00
32708C00
32777900
322E0900
32000700
06777300
ENDCHAR
STARTCHAR uni2615
ENCODING 9749
SWIDTH 600 0
DWIDTH 5 0
BBX 7 5 -1 0
BITMAP
09EE6000
3CFD9100
29EE9610
0912CC10
05ED4000
ENDCHAR
STARTCHAR smileface
ENCODING 9786
SWIDTH 600 0
DWIDTH 5 0
BBX 5 5 0 0
BITMAP
2CEA10
9C6B70
641470
99E870
2CEA10
ENDCHAR
STARTCHAR invsmileface
ENCODING 9787
SWIDTH 600 0
DWIDTH 5 0
BBX 5 5 0 0
BITMAP
1BE900
8ADB50
BBEB80
891C50
1BE900
ENDCHAR
STARTCHAR sun
ENCODING 9788
SWIDTH 600 0
DWIDTH 5 0
BBX 5 6 0 -1
BITMAP
428320
1FFC00
F81BC0
171800
31DB10
000120
ENDCHAR
STARTCHAR female
ENCODING 9792
SWIDTH 600 0
DWIDTH 5 0
BBX 5 7 0 -1
BITMAP
1BE900
651830
650830
1BF900
008000
0FFC00
008000
ENDCHAR
STARTCHAR male
ENCODING 9794
SWIDTH 600 0
DWIDTH 5 0
BBX 5 5 0 0
BITMAP
004FD0
6ED870
A13710
A12900
6ED300
ENDCHAR
STARTCHAR spade
ENCODING 9824
SWIDTH 600 0
DWIDTH 5 0
BBX 5 6 0 0
BITMAP
03B100
3EFC10
BFFF80
CEDF90
05E300
2FFE00
ENDCHAR
STARTCHAR club
ENCODING 9827
SWIDTH 600 0
DWIDTH 5 0
BBX 5 6 0 0
BITMAP
08E500
0AF700
8DFC50
CFDF90
15D400
2FFE00
ENDCHAR
STARTCHAR heart
ENCODING 9829
SWIDTH 600 0
DWIDTH 5 0
BBX 5 6 0 0
BITMAP
8D7E60
DFFFB0
CFFF90
7FFF40
0CFA00
02B100
ENDCHAR
STARTCHAR diamond
ENCODING 9830
SWIDTH 600 0
DWIDTH 5 0
BBX 5 6 0 0
BITMAP
01A000
0CF900
9FFF60
9FFF60
0CF900
01A000
ENDCHAR
STARTCHAR musicalnote
ENCODING 9834
SWIDTH 600 0
DWIDTH 5 0
BBX 5 6 0 0
BITMAP
009400
007A10
007330
007100
2DB000
4E7000
ENDCHAR
STARTCHAR musicalnotedbl
ENCODING 9835
SWIDTH 600 0
DWIDTH 5 0
BBX 5 6 0 0
BITMAP
03ACB0
04ECA0
042070
045DB0
AF6E70
CC0000
ENDCHAR
STARTCHAR uni2713
ENCODING 10003
SWIDTH 600 0
DWIDTH 5 0
BBX 5 6 0 0
BITMAP
000280
000900
006300
908000
593000
0E0000
ENDCHAR
STARTCHAR uni2752
ENCODING 10066
SWIDTH 600 0
DWIDTH 5 0
BBX 5 5 0 0
BITMAP
4FFF30
500530
500530
500530
6FFF20
ENDCHAR
STARTCHAR uni2764
ENCODING 10084
SWIDTH 600 0
DWIDTH 5 0
BBX 7 5 -1 0
BITMAP
3DD7EC10
8FFFFF50
5FFFFF20
07EFE500
002B1000
ENDCHAR
STARTCHAR uni27E6
ENCODING 10214
SWIDTH 600 0
DWIDTH 5 0
BBX 3 8 1 -2
BITMAP
7EF0
6600
6600
6600
6600
6600
7600
8FF0
ENDCHAR
STARTCHAR uni27E7
ENCODING 10215
SWIDTH 600 0
DWIDTH 5 0
BBX 4 8 0 -2
BITMAP
3FE5
0085
0085
0085
0085
0085
0085
3FF5
ENDCHAR
STARTCHAR uni2E18
ENCODING 11800
SWIDTH 600 0
DWIDTH 5 0
BBX 3 6 1 -2
BITMAP
0C00
0000
0900
7900
B140
AE70
ENDCHAR
STARTCHAR uni2E22
ENCODING 11810
SWIDTH 600 0
DWIDTH 5 0
BBX 3 4 1 2
BITMAP
3FF0
3500
3500
3500
ENDCHAR
STARTCHAR uni2E23
ENCODING 11811
SWIDTH 600 0
DWIDTH 5 0
BBX 3 4 0 2
BITMAP
3FF0
0080
0080
0080
ENDCHAR
STARTCHAR uni2E24
ENCODING 11812
SWIDTH 600 0
DWIDTH 5 0
BBX 3 4 1 -2
BITMAP
3500
3500
3500
3FF0
ENDCHAR
STARTCHAR uni2E25
ENCODING 11813
SWIDTH 600 0
DWIDTH 5 0
BBX 3 4 0 -2
BITMAP
0080
0080
0080
3FF0
ENDCHAR
STARTCHAR uniE0A0
ENCODING 57504
SWIDTH 600 0
DWIDTH 5 0
BBX 5 11 0 -2
BITMAP
370000
370610
373E70
370A00
370A00
350B00
02A400
0B2000
370000
370000
370000
ENDCHAR
STARTCHAR uniE0A1
ENCODING 57505
SWIDTH 600 0
DWIDTH 5 0
BBX 5 8 0 -1
BITMAP
540000
540000
540000
5FF100
076720
079720
075A20
072B20
ENDCHAR
STARTCHAR uniE0A2
ENCODING 57506
SWIDTH 600 0
DWIDTH 5 0
BBX 5 8 0 -1
BITMAP
08E600
0A2A00
080800
9FFF60
AD2F70
AF6F70
AF4F70
9FFF60
ENDCHAR
STARTCHAR uniE0B0
ENCODING 57520
SWIDTH 600 0
DWIDTH 5 0
BBX 5 11 0 -2
BITMAP
700000
F50000
FE3000
FFE200
FFFD10
FFFF90
FFFD10
FFE200
FE3000
F50000
700000
ENDCHAR
STARTCHAR uniE0B1
ENCODING 57521
SWIDTH 600 0
DWIDTH 5 0
BBX 5 10 0 -2
BITMAP
900000
290000
038000
004700
000560
000560
004700
038000
290000
900000
ENDCHAR
STARTCHAR uniE0B2
ENCODING 57522
SWIDTH 600 0
DWIDTH 5 0
BBX 5 11 0 -2
BITMAP
000070
0006E0
005FE0
04FFE0
3EFFE0
CFFFE0
3EFFE0
04FFE0
005FE0
0007E0
000070
ENDCHAR
STARTCHAR uniE0B3
ENCODING 57523
SWIDTH 600 0
DWIDTH 5 0
BBX 5 10 0 -2
BITMAP
000270
001910
019100
092000
820000
820000
092000
019100
001910
000270
ENDCHAR
STARTCHAR f_i
ENCODING 64257
SWIDTH 600 0
DWIDTH 5 0
BBX 5 6 0 0
BITMAP
0C9A10
1A0000
8F6A00
190A00
190A00
190A00
ENDCHAR
STARTCHAR f_l
ENCODING 64258
SWIDTH 600 0
DWIDTH 5 0
BBX 5 6 0 0
BITMAP
0BAA00
0B0A00
8F7A00
0A0A00
0A0A00
0A0A30
ENDCHAR
STARTCHAR uniFE0E
ENCODING 65038
SWIDTH 600 0
DWIDTH 5 0
BBX 5 5 0 0
BITMAP
E889C0
A70990
0A0A00
070700
098700
ENDCHAR
STARTCHAR uniFE0F
ENCODING 65039
SWIDTH 600 0
DWIDTH 5 0
BBX 5 5 0 0
BITMAP
068400
4ADA40
E537C0
8A5970
068400
ENDCHAR
STARTCHAR uniFEFF
ENCODING 65279
SWIDTH 600 0
DWIDTH 5 0
BBX 1 1 0 0
BITMAP
00
ENDCHAR
STARTCHAR u1F3B5
ENCODING 127925
SWIDTH 600 0
DWIDTH 5 0
BBX 5 6 0 0
BITMAP
009400
007A10
007330
007100
2DB000
4E7000
ENDCHAR
STARTCHAR u1F3B6
ENCODING 127926
SWIDTH 600 0
DWIDTH 5 0
BBX 5 6 0 0
BITMAP
03ACB0
04ECA0
042070
045DB0
AF6E70
CC0000
ENDCHAR
STARTCHAR u1F4A9
ENCODING 128169
SWIDTH 600 0
DWIDTH 5 0
BBX 5 6 0 0
BITMAP
004100
0CF900
6FFF30
9FFF60
F71AC0
9EFE60
ENDCHAR
STARTCHAR u1F512
ENCODING 128274
SWIDTH 600 0
DWIDTH 5 0
BBX 5 8 0 -1
BITMAP
08E600
0A2A00
080800
9FFF60
AD2F70
AF6F70
AF4F70
9FFF60
ENDCHAR
STARTCHAR u1F916
ENCODING 129302
SWIDTH 600 0
DWIDTH 5 0
BBX 6 5 -1 0
BITMAP
03CFB1
0AFFF8
29DFBB
0A3748
02CFA1
ENDCHAR
STARTCHAR .notdef
ENCODING -1
SWIDTH 600 0
DWIDTH 5 0
BBX 5 5 0 0
BITMAP
8EFE40
810440
821440
840740
8FFF40
ENDCHAR
STARTCHAR uni00470303
ENCODING -1
SWIDTH 600 0
DWIDTH 5 0
BBX 5 7 0 0
BITMAP
07A700
077B00
09EA00
681400
836F40
681640
09EC20
ENDCHAR
STARTCHAR uni004C00B7004C
ENCODING -1
SWIDTH 600 0
DWIDTH 5 0
BBX 5 5 0 0
BITMAP
723600
723600
7AA600
723600
7F6F70
ENDCHAR
STARTCHAR uni01320301
ENCODING -1
SWIDTH 600 0
DWIDTH 5 0
BBX 5 9 0 -2
BITMAP
171630
000000
280A00
280A00
280A00
280A00
280A00
000B00
00A900
ENDCHAR
STARTCHAR uni00670303
ENCODING -1
SWIDTH 600 0
DWIDTH 5 0
BBX 5 9 0 -2
BITMAP
010100
0A9700
078800
0BFF80
2A3A00
0CC600
1EFE40
450670
3DEB10
ENDCHAR
STARTCHAR uni006C00B7006C
ENCODING -1
SWIDTH 600 0
DWIDTH 5 0
BBX 6 6 -1 0
BITMAP
1F69D0
036090
036090
038C90
0370A1
01D57C
ENDCHAR
STARTCHAR uni01330301
ENCODING -1
SWIDTH 600 0
DWIDTH 5 0
BBX 5 9 0 -2
BITMAP
081270
260810
000000
280900
280900
280900
280900
000A00
008B00
ENDCHAR
STARTCHAR uni014A.a
ENCODING -1
SWIDTH 600 0
DWIDTH 5 0
BBX 5 7 0 -2
BITMAP
5A0820
5A3820
559720
546B20
540D20
000920
004D00
ENDCHAR
STARTCHAR a.a
ENCODING -1
SWIDTH 600 0
DWIDTH 5 0
BBX 5 4 0 0
BITMAP
1BEC10
661B10
761C10
1CEC10
ENDCHAR
STARTCHAR agrave.a
ENCODING -1
SWIDTH 600 0
DWIDTH 5 0
BBX 5 6 0 0
BITMAP
063000
018000
1BEC10
661B10
761C10
1CEC10
ENDCHAR
STARTCHAR aacute.a
ENCODING -1
SWIDTH 600 0
DWIDTH 5 0
BBX 5 6 0 0
BITMAP
004400
008000
1BEC10
661B10
761C10
1CEC10
ENDCHAR
STARTCHAR acircumflex.a
ENCODING -1
SWIDTH 600 0
DWIDTH 5 0
BBX 5 6 0 0
BITMAP
057400
000000
1BEC10
661B10
761C10
1CEC10
ENDCHAR
STARTCHAR atilde.a
ENCODING -1
SWIDTH 600 0
DWIDTH 5 0
BBX 5 7 0 0
BITMAP
010100
0A8700
078800
1BEC10
661B10
761C10
1CEC10
ENDCHAR
STARTCHAR adieresis.a
ENCODING -1
SWIDTH 600 0
DWIDTH 5 0
BBX 5 6 0 0
BITMAP
092700
000000
1BEC10
661B10
761C10
1CEC10
ENDCHAR
STARTCHAR amacron.a
ENCODING -1
SWIDTH 600 0
DWIDTH 5 0
BBX 5 6 0 0
BITMAP
09F800
000000
1BEC10
661B10
761C10
1CEC10
ENDCHAR
STARTCHAR abreve.a
ENCODING -1
SWIDTH 600 0
DWIDTH 5 0
BBX 5 6 0 0
BITMAP
081700
05E300
1BEC10
661B10
761C10
1CEC10
ENDCHAR
STARTCHAR aring.a
ENCODING -1
SWIDTH 600 0
DWIDTH 5 0
BBX 5 7 0 0
BITMAP
03E100
065400
03E100
1BEC10
661B10
761C10
1CEC10
ENDCHAR
STARTCHAR aringacute.a
ENCODING -1
SWIDTH 600 0
DWIDTH 5 0
BBX 5 6 0 0
BITMAP
022200
04E300
1BDA10
661A10
761B10
1CEC10
ENDCHAR
STARTCHAR uni01CE.a
ENCODING -1
SWIDTH 600 0
DWIDTH 5 0
BBX 5 6 0 0
BITMAP
057400
000000
1BEC10
661B10
761C10
1CEC10
ENDCHAR
STARTCHAR uni1EA1.a
ENCODING -1
SWIDTH 600 0
DWIDTH 5 0
BBX 5 5 0 -1
BITMAP
1BEC10
661B10
761C10
1CEC10
00B000
ENDCHAR
STARTCHAR uni1EA3.a
ENCODING -1
SWIDTH 600 0
DWIDTH 5 0
BBX 5 7 0 0
BITMAP
01B000
009100
009000
1BEC10
661B10
761C10
1CEC10
ENDCHAR
STARTCHAR uni1EA5.a
ENCODING -1
SWIDTH 600 0
DWIDTH 5 0
BBX 5 6 0 0
BITMAP
048810
000000
1BEC10
661B10
761C10
1CEC10
ENDCHAR
STARTCHAR uni1EA7.a
ENCODING -1
SWIDTH 600 0
DWIDTH 5 0
BBX 5 6 0 0
BITMAP
388300
000000
1BEC10
661B10
761C10
1CEC10
ENDCHAR
STARTCHAR uni1EA9.a
ENCODING -1
SWIDTH 600 0
DWIDTH 5 0
BBX 5 8 0 0
BITMAP
000B00
000810
048A00
000000
1BEC10
661B10
761C10
1CEC10
ENDCHAR
STARTCHAR uni1EAB.a
ENCODING -1
SWIDTH 600 0
DWIDTH 5 0
BBX 5 7 0 0
BITMAP
066500
0AF800
000000
1BEC10
661B10
761C10
1CEC10
ENDCHAR
STARTCHAR uni1EAD.a
ENCODING -1
SWIDTH 600 0
DWIDTH 5 0
BBX 5 7 0 -1
BITMAP
057400
000000
1BEC10
661B10
761C10
1CEC10
00B000
ENDCHAR
STARTCHAR uni1EAF.a
ENCODING -1
SWIDTH 600 0
DWIDTH 5 0
BBX 5 7 0 0
BITMAP
006100
081700
05E300
1BEC10
661B10
761C10
1CEC10
ENDCHAR
STARTCHAR uni1EB1.a
ENCODING -1
SWIDTH 600 0
DWIDTH 5 0
BBX 5 7 0 0
BITMAP
025000
081700
05E300
1BEC10
661B10
761C10
1CEC10
ENDCHAR
STARTCHAR uni1EB3.a
ENCODING -1
SWIDTH 600 0
DWIDTH 5 0
BBX 5 9 0 0
BITMAP
01B000
009000
008000
081700
05E300
1BEC10
661B10
761C10
1CEC10
ENDCHAR
STARTCHAR uni1EB5.a
ENCODING -1
SWIDTH 600 0
DWIDTH 5 0
BBX 5 7 0 0
BITMAP
076600
0EBC00
04E300
1BEC10
661B10
761C10
1CEC10
ENDCHAR
STARTCHAR uni1EB7.a
ENCODING -1
SWIDTH 600 0
DWIDTH 5 0
BBX 5 7 0 -1
BITMAP
081700
05E300
1BEC10
661B10
761C10
1CEC10
00B000
ENDCHAR
STARTCHAR aogonek.a
ENCODING -1
SWIDTH 600 0
DWIDTH 5 0
BBX 5 6 0 -2
BITMAP
1BEC10
661B10
761C10
1CEC10
000600
001D20
ENDCHAR
STARTCHAR g.a
ENCODING -1
SWIDTH 600 0
DWIDTH 5 0
BBX 5 6 0 -2
BITMAP
1BEC10
661B10
761B10
1CEC10
021B00
1BE800
ENDCHAR
STARTCHAR uni01F5.a
ENCODING -1
SWIDTH 600 0
DWIDTH 5 0
BBX 5 8 0 -2
BITMAP
004500
008000
1BEC10
661B10
761B10
1CEC10
021B00
1BE800
ENDCHAR
STARTCHAR gcircumflex.a
ENCODING -1
SWIDTH 600 0
DWIDTH 5 0
BBX 5 8 0 -2
BITMAP
047400
000000
1BEC10
661B10
761B10
1CEC10
021B00
1BE800
ENDCHAR
STARTCHAR gbreve.a
ENCODING -1
SWIDTH 600 0
DWIDTH 5 0
BBX 5 8 0 -2
BITMAP
081800
05E400
1BEC10
661B10
761B10
1CEC10
021B00
1BE800
ENDCHAR
STARTCHAR gdotaccent.a
ENCODING -1
SWIDTH 600 0
DWIDTH 5 0
BBX 5 8 0 -2
BITMAP
00B000
000000
1BEC10
661B10
761B10
1CEC10
021B00
1BE800
ENDCHAR
STARTCHAR uni0123.a
ENCODING -1
SWIDTH 600 0
DWIDTH 5 0
BBX 5 8 0 -2
BITMAP
01C300
01B000
1BEC10
661B10
761B10
1CEC10
021B00
1BE800
ENDCHAR
STARTCHAR gcaron.a
ENCODING -1
SWIDTH 600 0
DWIDTH 5 0
BBX 5 8 0 -2
BITMAP
047400
000000
1BEC10
661B10
761B10
1CEC10
021B00
1BE800
ENDCHAR
STARTCHAR uni1E21.a
ENCODING -1
SWIDTH 600 0
DWIDTH 5 0
BBX 5 8 0 -2
BITMAP
09F800
000000
1BEC10
661B10
761B10
1CEC10
021B00
1BE800
ENDCHAR
STARTCHAR uni00670303.a
ENCODING -1
SWIDTH 600 0
DWIDTH 5 0
BBX 5 9 0 -2
BITMAP
010100
0A9700
078800
1BEC10
661B10
761B10
1CEC10
021B00
1BE800
ENDCHAR
STARTCHAR i.a
ENCODING -1
SWIDTH 600 0
DWIDTH 5 0
BBX 5 6 0 0
BITMAP
00B100
000000
0FF000
009000
009000
3FFF80
ENDCHAR
STARTCHAR dotlessi.a
ENCODING -1
SWIDTH 600 0
DWIDTH 5 0
BBX 5 4 0 0
BITMAP
0FF000
009000
009000
3FFF80
ENDCHAR
STARTCHAR igrave.a
ENCODING -1
SWIDTH 600 0
DWIDTH 5 0
BBX 5 6 0 0
BITMAP
045000
008000
0FF000
009000
009000
3FFF80
ENDCHAR
STARTCHAR iacute.a
ENCODING -1
SWIDTH 600 0
DWIDTH 5 0
BBX 5 6 0 0
BITMAP
003600
008100
0FF000
009000
009000
3FFF80
ENDCHAR
STARTCHAR icircumflex.a
ENCODING -1
SWIDTH 600 0
DWIDTH 5 0
BBX 5 6 0 0
BITMAP
047500
000000
0FF000
009000
009000
3FFF80
ENDCHAR
STARTCHAR itilde.a
ENCODING -1
SWIDTH 600 0
DWIDTH 5 0
BBX 5 7 0 0
BITMAP
011100
08A800
076A00
0FF000
009000
009000
3FFF80
ENDCHAR
STARTCHAR idieresis.a
ENCODING -1
SWIDTH 600 0
DWIDTH 5 0
BBX 5 6 0 0
BITMAP
072900
000000
0FF000
009000
009000
3FFF80
ENDCHAR
STARTCHAR imacron.a
ENCODING -1
SWIDTH 600 0
DWIDTH 5 0
BBX 5 6 0 0
BITMAP
07FA00
000000
0FF000
009000
009000
3FFF80
ENDCHAR
STARTCHAR uni01D0.a
ENCODING -1
SWIDTH 600 0
DWIDTH 5 0
BBX 5 6 0 0
BITMAP
047500
000000
0FF000
009000
009000
3FFF80
ENDCHAR
STARTCHAR iogonek.a
ENCODING -1
SWIDTH 600 0
DWIDTH 5 0
BBX 5 8 0 -2
BITMAP
00B000
000000
0FF000
009000
009000
3FFF80
007000
00D500
ENDCHAR
STARTCHAR uni1EC9.a
ENCODING -1
SWIDTH 600 0
DWIDTH 5 0
BBX 5 7 0 0
BITMAP
00C100
007300
008100
0FF000
009000
009000
3FFF80
ENDCHAR
STARTCHAR uni1ECB.a
ENCODING -1
SWIDTH 600 0
DWIDTH 5 0
BBX 5 7 0 -1
BITMAP
00B100
000000
0FF000
009000
009000
3FFF80
00B000
ENDCHAR
STARTCHAR uni012D.a
ENCODING -1
SWIDTH 600 0
DWIDTH 5 0
BBX 5 6 0 0
BITMAP
071800
03E500
0FF000
009000
009000
3FFF80
ENDCHAR
STARTCHAR uni0268.a
ENCODING -1
SWIDTH 600 0
DWIDTH 5 0
BBX 5 6 0 0
BITMAP
00B100
000000
0FF000
1EFF60
009000
3FFF80
ENDCHAR
STARTCHAR iogonek.d
ENCODING -1
SWIDTH 600 0
DWIDTH 5 0
BBX 4 6 0 -2
BITMAP
4FF3
0073
0073
0073
0061
00C6
ENDCHAR
STARTCHAR iogonek.da
ENCODING -1
SWIDTH 600 0
DWIDTH 5 0
BBX 5 6 0 -2
BITMAP
0FF000
009000
009000
3FFF80
007000
00D500
ENDCHAR
STARTCHAR uni0268.d
ENCODING -1
SWIDTH 600 0
DWIDTH 5 0
BBX 5 4 0 0
BITMAP
4FF300
0DFF80
007300
007300
ENDCHAR
STARTCHAR uni0268.da
ENCODING -1
SWIDTH 600 0
DWIDTH 5 0
BBX 5 4 0 0
BITMAP
0FF000
1EFF60
009000
3FFF80
ENDCHAR
STARTCHAR uni029D.d
ENCODING -1
SWIDTH 600 0
DWIDTH 5 0
BBX 4 7 0 -3
BITMAP
4FF3
0073
0073
4ED3
83D3
3E88
0007
ENDCHAR
STARTCHAR l.a
ENCODING -1
SWIDTH 600 0
DWIDTH 5 0
BBX 5 6 0 0
BITMAP
0FF000
009000
009000
009000
009000
3FFF80
ENDCHAR
STARTCHAR lacute.a
ENCODING -1
SWIDTH 600 0
DWIDTH 5 0
BBX 5 7 0 0
BITMAP
005400
0FF000
009000
009000
009000
009000
3FFF80
ENDCHAR
STARTCHAR lcaron.a
ENCODING -1
SWIDTH 600 0
DWIDTH 5 0
BBX 5 6 0 0
BITMAP
0FF630
009620
009000
009000
009000
3FFF80
ENDCHAR
STARTCHAR uni013C.a
ENCODING -1
SWIDTH 600 0
DWIDTH 5 0
BBX 5 8 0 -2
BITMAP
0FF000
009000
009000
009000
009000
3FFF80
00A200
02D100
ENDCHAR
STARTCHAR uni1E37.a
ENCODING -1
SWIDTH 600 0
DWIDTH 5 0
BBX 5 7 0 -1
BITMAP
0FF000
009000
009000
009000
009000
3FFF80
00B100
ENDCHAR
STARTCHAR uni1E39.a
ENCODING -1
SWIDTH 600 0
DWIDTH 5 0
BBX 5 8 0 -1
BITMAP
06FB00
0FF000
009000
009000
009000
009000
3FFF80
00B100
ENDCHAR
STARTCHAR uni1E3B.a
ENCODING -1
SWIDTH 600 0
DWIDTH 5 0
BBX 5 7 0 -1
BITMAP
0FF000
009000
009000
009000
009000
3FFF80
07FA00
ENDCHAR
STARTCHAR lslash.a
ENCODING -1
SWIDTH 600 0
DWIDTH 5 0
BBX 5 6 0 0
BITMAP
0FF000
009220
00B710
05B000
009000
3FFF80
ENDCHAR
STARTCHAR ldot.a
ENCODING -1
SWIDTH 600 0
DWIDTH 5 0
BBX 5 6 0 0
BITMAP
7F9000
019000
0190B0
019000
019000
9FFF10
ENDCHAR
STARTCHAR uni006C00B7006C.a
ENCODING -1
SWIDTH 600 0
DWIDTH 5 0
BBX 5 6 0 0
BITMAP
F78E00
270900
270900
27A900
270900
FFCFC0
ENDCHAR
STARTCHAR uni026B.a
ENCODING -1
SWIDTH 600 0
DWIDTH 5 0
BBX 5 6 0 0
BITMAP
0FF000
01A100
09F620
06ED00
009000
3FFF80
ENDCHAR
STARTCHAR uni026C.a
ENCODING -1
SWIDTH 600 0
DWIDTH 5 0
BBX 5 6 0 0
BITMAP
0FF000
009000
0BE000
0AFF20
009000
3FFF80
ENDCHAR
STARTCHAR phi.a
ENCODING -1
SWIDTH 600 0
DWIDTH 5 0
BBX 5 6 0 -2
BITMAP
359E20
80B570
94A760
2DFB10
00A000
00A000
ENDCHAR
STARTCHAR anoteleia.cap
ENCODING -1
SWIDTH 600 0
DWIDTH 5 0
BBX 2 1 1 4
BITMAP
2C
ENDCHAR
STARTCHAR uni0430.a
ENCODING -1
SWIDTH 600 0
DWIDTH 5 0
BBX 5 4 0 0
BITMAP
1BEC10
661B10
761C10
1CEC10
ENDCHAR
STARTCHAR uni04D1.a
ENCODING -1
SWIDTH 600 0
DWIDTH 5 0
BBX 5 6 0 0
BITMAP
091800
06E400
1BEC10
661B10
761C10
1CEC10
ENDCHAR
STARTCHAR uni0431.srb
ENCODING -1
SWIDTH 600 0
DWIDTH 5 0
BBX 5 6 0 0
BITMAP
05BD10
0A5300
049200
270800
481B10
0BE800
ENDCHAR
STARTCHAR uni0456.a
ENCODING -1
SWIDTH 600 0
DWIDTH 5 0
BBX 5 6 0 0
BITMAP
00B100
000000
0FF000
009000
009000
3FFF80
ENDCHAR
STARTCHAR zero.a
ENCODING -1
SWIDTH 600 0
DWIDTH 5 0
BBX 5 5 0 0
BITMAP
0AE800
4B2B10
648630
483C10
0AE700
ENDCHAR
STARTCHAR one.a
ENCODING -1
SWIDTH 600 0
DWIDTH 5 0
BBX 5 5 0 0
BITMAP
02C000
08A000
00A000
00A000
3FFF40
ENDCHAR
STARTCHAR zero.onum
ENCODING -1
SWIDTH 600 0
DWIDTH 5 0
BBX 5 5 0 0
BITMAP
0AE800
481A10
64B630
481B10
0AE800
ENDCHAR
STARTCHAR one.onum
ENCODING -1
SWIDTH 600 0
DWIDTH 5 0
BBX 5 5 0 0
BITMAP
07C000
00A000
00A000
00A000
3FFF40
ENDCHAR
STARTCHAR two.onum
ENCODING -1
SWIDTH 600 0
DWIDTH 5 0
BBX 5 5 0 0
BITMAP
0BE700
341A00
003500
066100
6FFF30
ENDCHAR
STARTCHAR three.onum
ENCODING -1
SWIDTH 600 0
DWIDTH 5 0
BBX 5 6 0 -1
BITMAP
0AE800
242B00
06F500
002B10
331B10
1CE800
ENDCHAR
STARTCHAR four.onum
ENCODING -1
SWIDTH 600 0
DWIDTH 5 0
BBX 5 6 0 -1
BITMAP
007800
036800
151800
9FFF50
001800
001800
ENDCHAR
STARTCHAR five.onum
ENCODING -1
SWIDTH 600 0
DWIDTH 5 0
BBX 5 6 0 -1
BITMAP
0FFE00
180000
1DE900
001A20
321B10
1CE700
ENDCHAR
STARTCHAR six.onum
ENCODING -1
SWIDTH 600 0
DWIDTH 5 0
BBX 5 5 0 0
BITMAP
07EB00
3A1300
5BEC10
491830
09EB00
ENDCHAR
STARTCHAR seven.onum
ENCODING -1
SWIDTH 600 0
DWIDTH 5 0
BBX 5 6 0 -1
BITMAP
7FFF40
000900
006300
009000
019000
028000
ENDCHAR
STARTCHAR eight.onum
ENCODING -1
SWIDTH 600 0
DWIDTH 5 0
BBX 5 5 0 0
BITMAP
0BE800
082B00
2DFA00
672810
1CFC10
ENDCHAR
STARTCHAR nine.onum
ENCODING -1
SWIDTH 600 0
DWIDTH 5 0
BBX 5 6 0 -1
BITMAP
1BE600
661A00
662C20
1CDA20
122B00
1CD400
ENDCHAR
STARTCHAR zero.b
ENCODING -1
SWIDTH 600 0
DWIDTH 5 0
BBX 5 5 0 0
BITMAP
0AE800
4B2B10
648630
484C10
0AE700
ENDCHAR
STARTCHAR one.b
ENCODING -1
SWIDTH 600 0
DWIDTH 5 0
BBX 5 5 0 0
BITMAP
02C000
08A000
00A000
00A000
3FFF40
ENDCHAR
STARTCHAR zero.cap
ENCODING -1
SWIDTH 600 0
DWIDTH 5 0
BBX 5 5 0 0
BITMAP
0AE800
482A10
64A630
481A10
0AE800
ENDCHAR
STARTCHAR one.cap
ENCODING -1
SWIDTH 600 0
DWIDTH 5 0
BBX 5 5 0 0
BITMAP
07C000
00A000
00A000
00A000
3FFF40
ENDCHAR
STARTCHAR two.cap
ENCODING -1
SWIDTH 600 0
DWIDTH 5 0
BBX 5 5 0 0
BITMAP
0BE700
341A00
003400
054000
6FFF30
ENDCHAR
STARTCHAR three.cap
ENCODING -1
SWIDTH 600 0
DWIDTH 5 0
BBX 5 5 0 0
BITMAP
1BE800
242B00
06F600
331B10
1BEA00
ENDCHAR
STARTCHAR four.cap
ENCODING -1
SWIDTH 600 0
DWIDTH 5 0
BBX 5 5 0 0
BITMAP
008800
065800
361800
AFFF50
001800
ENDCHAR
STARTCHAR five.cap
ENCODING -1
SWIDTH 600 0
DWIDTH 5 0
BBX 5 5 0 0
BITMAP
0FFE00
1CA500
175C10
321A10
1CE700
ENDCHAR
STARTCHAR six.cap
ENCODING -1
SWIDTH 600 0
DWIDTH 5 0
BBX 5 5 0 0
BITMAP
08EA00
391300
5BEC10
491930
09EA00
ENDCHAR
STARTCHAR seven.cap
ENCODING -1
SWIDTH 600 0
DWIDTH 5 0
BBX 5 5 0 0
BITMAP
7FFF40
001800
008100
00A000
028000
ENDCHAR
STARTCHAR eight.cap
ENCODING -1
SWIDTH 600 0
DWIDTH 5 0
BBX 5 5 0 0
BITMAP
1CFA00
098B00
2CAA00
650830
1CEB00
ENDCHAR
STARTCHAR nine.cap
ENCODING -1
SWIDTH 600 0
DWIDTH 5 0
BBX 5 5 0 0
BITMAP
1CE700
661B10
2DEB20
121B00
1CE500
ENDCHAR
STARTCHAR zero.c
ENCODING -1
SWIDTH 600 0
DWIDTH 5 0
BBX 5 5 0 0
BITMAP
0AE800
4B2B10
648630
483C10
0AE700
ENDCHAR
STARTCHAR one.c
ENCODING -1
SWIDTH 600 0
DWIDTH 5 0
BBX 5 5 0 0
BITMAP
02C000
08A000
00A000
00A000
3FFF40
ENDCHAR
STARTCHAR at.case
ENCODING -1
SWIDTH 600 0
DWIDTH 5 0
BBX 5 5 0 0
BITMAP
09EC10
677D50
829660
67EE60
09E900
ENDCHAR
STARTCHAR asterisk.a
ENCODING -1
SWIDTH 600 0
DWIDTH 5 0
BBX 4 3 0 3
BITMAP
18A7
05E1
07C6
ENDCHAR
STARTCHAR hyphen.a
ENCODING -1
SWIDTH 600 0
DWIDTH 5 0
BBX 3 1 1 2
BITMAP
EFB0
ENDCHAR
STARTCHAR uni00AD.a
ENCODING -1
SWIDTH 600 0
DWIDTH 5 0
BBX 3 1 1 2
BITMAP
EFB0
ENDCHAR
STARTCHAR uni2010.a
ENCODING -1
SWIDTH 600 0
DWIDTH 5 0
BBX 3 1 1 2
BITMAP
EFB0
ENDCHAR
STARTCHAR dollar.a
ENCODING -1
SWIDTH 600 0
DWIDTH 5 0
BBX 5 7 0 -1
BITMAP
004300
0AF800
1C8400
06E800
147B10
0BFA00
052000
ENDCHAR
STARTCHAR period.sups
ENCODING -1
SWIDTH 600 0
DWIDTH 5 0
BBX 1 1 2 3
BITMAP
80
ENDCHAR
STARTCHAR comma.sups
ENCODING -1
SWIDTH 600 0
DWIDTH 5 0
BBX 1 3 2 1
BITMAP
A0
70
60
ENDCHAR
STARTCHAR period.subs
ENCODING -1
SWIDTH 600 0
DWIDTH 5 0
BBX 1 1 2 -2
BITMAP
80
ENDCHAR
STARTCHAR comma.subs
ENCODING -1
SWIDTH 600 0
DWIDTH 5 0
BBX 1 3 2 -4
BITMAP
A0
70
60
ENDCHAR
STARTCHAR zero.dnom
ENCODING -1
SWIDTH 600 0
DWIDTH 5 0
BBX 3 3 1 0
BITMAP
6E30
9370
6E30
ENDCHAR
STARTCHAR one.dnom
ENCODING -1
SWIDTH 600 0
DWIDTH 5 0
BBX 2 3 1 0
BITMAP
3B
08
08
ENDCHAR
STARTCHAR two.dnom
ENCODING -1
SWIDTH 600 0
DWIDTH 5 0
BBX 3 3 1 0
BITMAP
4E20
2510
8F60
ENDCHAR
STARTCHAR three.dnom
ENCODING -1
SWIDTH 600 0
DWIDTH 5 0
BBX 3 3 1 0
BITMAP
4E20
3E20
4E30
ENDCHAR
STARTCHAR four.dnom
ENCODING -1
SWIDTH 600 0
DWIDTH 5 0
BBX 3 3 1 0
BITMAP
0600
5510
9F80
ENDCHAR
STARTCHAR five.dnom
ENCODING -1
SWIDTH 600 0
DWIDTH 5 0
BBX 3 3 1 0
BITMAP
5F40
6D30
4E30
ENDCHAR
STARTCHAR six.dnom
ENCODING -1
SWIDTH 600 0
DWIDTH 5 0
BBX 3 3 1 0
BITMAP
4E30
8F40
5E40
ENDCHAR
STARTCHAR seven.dnom
ENCODING -1
SWIDTH 600 0
DWIDTH 5 0
BBX 3 3 1 0
BITMAP
8F60
0610
0800
ENDCHAR
STARTCHAR eight.dnom
ENCODING -1
SWIDTH 600 0
DWIDTH 5 0
BBX 3 3 1 0
BITMAP
5E30
5E20
6E40
ENDCHAR
STARTCHAR nine.dnom
ENCODING -1
SWIDTH 600 0
DWIDTH 5 0
BBX 3 3 1 0
BITMAP
6E20
7F60
6D20
ENDCHAR
STARTCHAR parenleft.dnom
ENCODING -1
SWIDTH 600 0
DWIDTH 5 0
BBX 1 4 2 -1
BITMAP
70
70
70
70
ENDCHAR
STARTCHAR parenright.dnom
ENCODING -1
SWIDTH 600 0
DWIDTH 5 0
BBX 2 4 1 -1
BITMAP
16
08
08
16
ENDCHAR
STARTCHAR period.dnom
ENCODING -1
SWIDTH 600 0
DWIDTH 5 0
BBX 1 1 2 0
BITMAP
80
ENDCHAR
STARTCHAR comma.dnom
ENCODING -1
SWIDTH 600 0
DWIDTH 5 0
BBX 1 3 2 -2
BITMAP
A0
70
60
ENDCHAR
STARTCHAR zero.numr
ENCODING -1
SWIDTH 600 0
DWIDTH 5 0
BBX 3 3 1 2
BITMAP
6E30
9370
6E30
ENDCHAR
STARTCHAR one.numr
ENCODING -1
SWIDTH 600 0
DWIDTH 5 0
BBX 2 3 1 2
BITMAP
3B
08
08
ENDCHAR
STARTCHAR two.numr
ENCODING -1
SWIDTH 600 0
DWIDTH 5 0
BBX 3 3 1 2
BITMAP
4E20
2510
8F60
ENDCHAR
STARTCHAR three.numr
ENCODING -1
SWIDTH 600 0
DWIDTH 5 0
BBX 3 3 1 2
BITMAP
4E20
3E20
4E30
ENDCHAR
STARTCHAR four.numr
ENCODING -1
SWIDTH 600 0
DWIDTH 5 0
BBX 3 3 1 2
BITMAP
0600
5510
9F80
ENDCHAR
STARTCHAR five.numr
ENCODING -1
SWIDTH 600 0
DWIDTH 5 0
BBX 3 3 1 2
BITMAP
5F40
6D30
4E30
ENDCHAR
STARTCHAR six.numr
ENCODING -1
SWIDTH 600 0
DWIDTH 5 0
BBX 3 3 1 2
BITMAP
4E30
8F40
5E40
ENDCHAR
STARTCHAR seven.numr
ENCODING -1
SWIDTH 600 0
DWIDTH 5 0
BBX 3 3 1 2
BITMAP
8F60
0610
0800
ENDCHAR
STARTCHAR eight.numr
ENCODING -1
SWIDTH 600 0
DWIDTH 5 0
BBX 3 3 1 2
BITMAP
5E30
5E20
6E40
ENDCHAR
STARTCHAR nine.numr
ENCODING -1
SWIDTH 600 0
DWIDTH 5 0
BBX 3 3 1 2
BITMAP
6E20
7F60
6D20
ENDCHAR
STARTCHAR parenleft.numr
ENCODING -1
SWIDTH 600 0
DWIDTH 5 0
BBX 1 4 2 1
BITMAP
70
70
70
70
ENDCHAR
STARTCHAR parenright.numr
ENCODING -1
SWIDTH 600 0
DWIDTH 5 0
BBX 2 4 1 1
BITMAP
16
08
08
16
ENDCHAR
STARTCHAR period.numr
ENCODING -1
SWIDTH 600 0
DWIDTH 5 0
BBX 1 1 2 2
BITMAP
80
ENDCHAR
STARTCHAR comma.numr
ENCODING -1
SWIDTH 600 0
DWIDTH 5 0
BBX 1 3 2 0
BITMAP
A0
70
60
ENDCHAR
STARTCHAR ordfeminine.a
ENCODING -1
SWIDTH 600 0
DWIDTH 5 0
BBX 3 3 1 3
BITMAP
8C70
A280
9B30
ENDCHAR
STARTCHAR q.sups
ENCODING -1
SWIDTH 600 0
DWIDTH 5 0
BBX 3 4 1 2
BITMAP
8C70
A280
9C70
0040
ENDCHAR
STARTCHAR egrave.sups
ENCODING -1
SWIDTH 600 0
DWIDTH 5 0
BBX 3 5 1 3
BITMAP
0100
0600
7E50
CFA0
7E50
ENDCHAR
STARTCHAR eacute.sups
ENCODING -1
SWIDTH 600 0
DWIDTH 5 0
BBX 3 5 1 3
BITMAP
0100
0600
7E50
CFA0
7E50
ENDCHAR
STARTCHAR a.supa
ENCODING -1
SWIDTH 600 0
DWIDTH 5 0
BBX 3 3 1 3
BITMAP
8C70
A280
9B30
ENDCHAR
STARTCHAR g.supa
ENCODING -1
SWIDTH 600 0
DWIDTH 5 0
BBX 3 4 1 2
BITMAP
8C70
A280
AD70
7E40
ENDCHAR
STARTCHAR i.supa
ENCODING -1
SWIDTH 600 0
DWIDTH 5 0
BBX 3 4 1 3
BITMAP
0800
7E00
0800
9FE0
ENDCHAR
STARTCHAR colon.sups
ENCODING -1
SWIDTH 600 0
DWIDTH 5 0
BBX 1 2 2 3
BITMAP
80
80
ENDCHAR
STARTCHAR hyphen.sups
ENCODING -1
SWIDTH 600 0
DWIDTH 5 0
BBX 2 1 1 4
BITMAP
3F
ENDCHAR
STARTCHAR endash.sups
ENCODING -1
SWIDTH 600 0
DWIDTH 5 0
BBX 3 1 1 4
BITMAP
AF70
ENDCHAR
STARTCHAR emdash.sups
ENCODING -1
SWIDTH 600 0
DWIDTH 5 0
BBX 5 1 0 4
BITMAP
8FFF50
ENDCHAR
STARTCHAR slash.frac
ENCODING -1
SWIDTH 600 0
DWIDTH 5 0
BBX 5 5 0 0
BITMAP
000440
000600
000000
060000
620000
ENDCHAR
STARTCHAR uni0300.cap
ENCODING -1
SWIDTH 600 0
DWIDTH 5 0
BBX 2 1 1 6
BITMAP
36
ENDCHAR
STARTCHAR uni0300.g
ENCODING -1
SWIDTH 600 0
DWIDTH 5 0
BBX 2 2 1 4
BITMAP
36
07
ENDCHAR
STARTCHAR uni0301.cap
ENCODING -1
SWIDTH 600 0
DWIDTH 5 0
BBX 2 1 2 6
BITMAP
72
ENDCHAR
STARTCHAR uni0301.g
ENCODING -1
SWIDTH 600 0
DWIDTH 5 0
BBX 2 2 2 4
BITMAP
81
80
ENDCHAR
STARTCHAR uni0302.cap
ENCODING -1
SWIDTH 600 0
DWIDTH 5 0
BBX 3 1 1 6
BITMAP
5730
ENDCHAR
STARTCHAR uni0303.cap
ENCODING -1
SWIDTH 600 0
DWIDTH 5 0
BBX 3 2 1 5
BITMAP
B770
7A80
ENDCHAR
STARTCHAR uni0304.cap
ENCODING -1
SWIDTH 600 0
DWIDTH 5 0
BBX 3 1 1 6
BITMAP
AF70
ENDCHAR
STARTCHAR uni0305.cap
ENCODING -1
SWIDTH 600 0
DWIDTH 5 0
BBX 3 1 1 6
BITMAP
AF70
ENDCHAR
STARTCHAR uni0306.c
ENCODING -1
SWIDTH 600 0
DWIDTH 5 0
BBX 3 2 1 4
BITMAP
9180
6E30
ENDCHAR
STARTCHAR uni0306.cap
ENCODING -1
SWIDTH 600 0
DWIDTH 5 0
BBX 3 2 1 5
BITMAP
8170
5E30
ENDCHAR
STARTCHAR uni0306.ccap
ENCODING -1
SWIDTH 600 0
DWIDTH 5 0
BBX 3 2 1 5
BITMAP
A280
6E30
ENDCHAR
STARTCHAR uni0307.cap
ENCODING -1
SWIDTH 600 0
DWIDTH 5 0
BBX 1 1 2 6
BITMAP
A0
ENDCHAR
STARTCHAR uni0308.cap
ENCODING -1
SWIDTH 600 0
DWIDTH 5 0
BBX 3 1 1 6
BITMAP
8360
ENDCHAR
STARTCHAR uni0309.cap
ENCODING -1
SWIDTH 600 0
DWIDTH 5 0
BBX 2 3 1 5
BITMAP
2B
09
09
ENDCHAR
STARTCHAR uni030A.cap
ENCODING -1
SWIDTH 600 0
DWIDTH 5 0
BBX 3 3 1 5
BITMAP
2D00
5620
2D00
ENDCHAR
STARTCHAR uni030B.cap
ENCODING -1
SWIDTH 600 0
DWIDTH 5 0
BBX 3 1 1 6
BITMAP
3560
ENDCHAR
STARTCHAR uni030C.cap
ENCODING -1
SWIDTH 600 0
DWIDTH 5 0
BBX 3 1 1 6
BITMAP
5730
ENDCHAR
STARTCHAR uni030C.a
ENCODING -1
SWIDTH 600 0
DWIDTH 5 0
BBX 1 2 2 4
BITMAP
90
70
ENDCHAR
STARTCHAR uni030F.cap
ENCODING -1
SWIDTH 600 0
DWIDTH 5 0
BBX 3 1 1 6
BITMAP
7610
ENDCHAR
STARTCHAR uni0311.cap
ENCODING -1
SWIDTH 600 0
DWIDTH 5 0
BBX 3 2 1 5
BITMAP
5E20
8270
ENDCHAR
STARTCHAR uni0312.g
ENCODING -1
SWIDTH 600 0
DWIDTH 5 0
BBX 2 3 1 4
BITMAP
1B
37
18
ENDCHAR
STARTCHAR uni0313.g
ENCODING -1
SWIDTH 600 0
DWIDTH 5 0
BBX 2 3 1 4
BITMAP
2B
0A
09
ENDCHAR
STARTCHAR uni0326.a
ENCODING -1
SWIDTH 600 0
DWIDTH 5 0
BBX 3 2 1 4
BITMAP
1D20
1B00
ENDCHAR
STARTCHAR uni0327.cap
ENCODING -1
SWIDTH 600 0
DWIDTH 5 0
BBX 2 4 1 -4
BITMAP
06
1C
0A
59
ENDCHAR
STARTCHAR uni0328.cap
ENCODING -1
SWIDTH 600 0
DWIDTH 5 0
BBX 3 2 1 -2
BITMAP
2500
3E20
ENDCHAR
STARTCHAR uni03080301
ENCODING -1
SWIDTH 600 0
DWIDTH 5 0
BBX 3 2 1 5
BITMAP
0600
8260
ENDCHAR
STARTCHAR uni03080301.cap
ENCODING -1
SWIDTH 600 0
DWIDTH 5 0
BBX 3 2 1 6
BITMAP
0610
8170
ENDCHAR
STARTCHAR uni03080301.g
ENCODING -1
SWIDTH 600 0
DWIDTH 5 0
BBX 3 2 1 4
BITMAP
8880
0600
ENDCHAR
STARTCHAR uni03080300
ENCODING -1
SWIDTH 600 0
DWIDTH 5 0
BBX 3 2 1 5
BITMAP
1500
8260
ENDCHAR
STARTCHAR uni03080300.cap
ENCODING -1
SWIDTH 600 0
DWIDTH 5 0
BBX 3 2 1 6
BITMAP
2400
8170
ENDCHAR
STARTCHAR uni03080300.g
ENCODING -1
SWIDTH 600 0
DWIDTH 5 0
BBX 3 2 1 4
BITMAP
8770
0600
ENDCHAR
STARTCHAR uni03080303
ENCODING -1
SWIDTH 600 0
DWIDTH 5 0
BBX 3 4 1 5
BITMAP
8750
6950
0000
8260
ENDCHAR
STARTCHAR uni03080304
ENCODING -1
SWIDTH 600 0
DWIDTH 5 0
BBX 3 3 1 5
BITMAP
AF70
0000
8260
ENDCHAR
STARTCHAR uni03080304.cap
ENCODING -1
SWIDTH 600 0
DWIDTH 5 0
BBX 3 3 1 6
BITMAP
AF70
0000
8170
ENDCHAR
STARTCHAR uni0308030C
ENCODING -1
SWIDTH 600 0
DWIDTH 5 0
BBX 3 2 1 5
BITMAP
4820
8260
ENDCHAR
STARTCHAR uni0308030C.cap
ENCODING -1
SWIDTH 600 0
DWIDTH 5 0
BBX 3 2 1 6
BITMAP
4830
8170
ENDCHAR
STARTCHAR uni03020301
ENCODING -1
SWIDTH 600 0
DWIDTH 5 0
BBX 4 1 1 5
BITMAP
4881
ENDCHAR
STARTCHAR uni03020301.cap
ENCODING -1
SWIDTH 600 0
DWIDTH 5 0
BBX 3 1 1 6
BITMAP
4880
ENDCHAR
STARTCHAR uni03020300
ENCODING -1
SWIDTH 600 0
DWIDTH 5 0
BBX 4 1 0 5
BITMAP
3883
ENDCHAR
STARTCHAR uni03020300.cap
ENCODING -1
SWIDTH 600 0
DWIDTH 5 0
BBX 4 1 0 6
BITMAP
1882
ENDCHAR
STARTCHAR uni03020309
ENCODING -1
SWIDTH 600 0
DWIDTH 5 0
BBX 4 3 1 5
BITMAP
00B0
0081
48A0
ENDCHAR
STARTCHAR uni03020309.cap
ENCODING -1
SWIDTH 600 0
DWIDTH 5 0
BBX 4 3 1 6
BITMAP
00B0
0081
48A0
ENDCHAR
STARTCHAR uni03020303
ENCODING -1
SWIDTH 600 0
DWIDTH 5 0
BBX 3 2 1 5
BITMAP
6650
AF70
ENDCHAR
STARTCHAR uni03020303.cap
ENCODING -1
SWIDTH 600 0
DWIDTH 5 0
BBX 3 2 1 6
BITMAP
8660
AF70
ENDCHAR
STARTCHAR uni03060301
ENCODING -1
SWIDTH 600 0
DWIDTH 5 0
BBX 3 3 1 4
BITMAP
0600
8170
6E30
ENDCHAR
STARTCHAR uni03060301.cap
ENCODING -1
SWIDTH 600 0
DWIDTH 5 0
BBX 3 3 1 5
BITMAP
0610
8170
5E20
ENDCHAR
STARTCHAR uni03060300
ENCODING -1
SWIDTH 600 0
DWIDTH 5 0
BBX 3 3 1 4
BITMAP
2500
8170
6E30
ENDCHAR
STARTCHAR uni03060300.cap
ENCODING -1
SWIDTH 600 0
DWIDTH 5 0
BBX 3 3 1 5
BITMAP
3500
8170
5E20
ENDCHAR
STARTCHAR uni03060309
ENCODING -1
SWIDTH 600 0
DWIDTH 5 0
BBX 3 5 1 4
BITMAP
1A00
0900
0800
8170
6E30
ENDCHAR
STARTCHAR uni03060309.cap
ENCODING -1
SWIDTH 600 0
DWIDTH 5 0
BBX 3 5 1 5
BITMAP
1A00
0900
0700
8170
5E20
ENDCHAR
STARTCHAR uni03060303
ENCODING -1
SWIDTH 600 0
DWIDTH 5 0
BBX 3 3 1 4
BITMAP
7660
ECB0
5E20
ENDCHAR
STARTCHAR uni03060303.cap
ENCODING -1
SWIDTH 600 0
DWIDTH 5 0
BBX 3 3 1 5
BITMAP
8760
DBB0
5E20
ENDCHAR
STARTCHAR uni03020306
ENCODING -1
SWIDTH 600 0
DWIDTH 5 0
BBX 3 3 1 4
BITMAP
4620
1500
3220
ENDCHAR
STARTCHAR uni03020306.cap
ENCODING -1
SWIDTH 600 0
DWIDTH 5 0
BBX 3 4 1 5
BITMAP
4530
0000
3E10
4320
ENDCHAR
STARTCHAR uni03040301
ENCODING -1
SWIDTH 600 0
DWIDTH 5 0
BBX 3 3 1 5
BITMAP
0710
0000
AF70
ENDCHAR
STARTCHAR uni03040301.cap
ENCODING -1
SWIDTH 600 0
DWIDTH 5 0
BBX 3 3 1 6
BITMAP
0610
0000
AF70
ENDCHAR
STARTCHAR uni03120301
ENCODING -1
SWIDTH 600 0
DWIDTH 5 0
BBX 3 3 1 4
BITMAP
8840
9620
8700
ENDCHAR
STARTCHAR uni03120300
ENCODING -1
SWIDTH 600 0
DWIDTH 5 0
BBX 3 3 1 4
BITMAP
9B00
9620
8430
ENDCHAR
STARTCHAR uni03120303
ENCODING -1
SWIDTH 600 0
DWIDTH 5 0
BBX 3 3 1 4
BITMAP
7F60
8F50
0700
ENDCHAR
STARTCHAR uni03130301
ENCODING -1
SWIDTH 600 0
DWIDTH 5 0
BBX 3 3 1 4
BITMAP
A450
6830
7700
ENDCHAR
STARTCHAR uni03130300
ENCODING -1
SWIDTH 600 0
DWIDTH 5 0
BBX 3 3 1 4
BITMAP
A810
6830
7340
ENDCHAR
STARTCHAR uni03130303
ENCODING -1
SWIDTH 600 0
DWIDTH 5 0
BBX 3 3 1 4
BITMAP
8F60
6F50
0700
ENDCHAR
STARTCHAR space.frac
ENCODING -1
SWIDTH 600 0
DWIDTH 5 0
BBX 1 1 0 0
BITMAP
00
ENDCHAR
STARTCHAR nbspace.frac
ENCODING -1
SWIDTH 600 0
DWIDTH 5 0
BBX 1 1 0 0
BITMAP
00
ENDCHAR
STARTCHAR u1F3B5_uniFE0F
ENCODING -1
SWIDTH 600 0
DWIDTH 5 0
BBX 5 6 0 0
BITMAP
009400
007A10
007330
007100
2DB000
4E7000
ENDCHAR
STARTCHAR u1F3B6_uniFE0F
ENCODING -1
SWIDTH 600 0
DWIDTH 5 0
BBX 5 6 0 0
BITMAP
03ACB0
04ECA0
042070
045DB0
AF6E70
CC0000
ENDCHAR
STARTCHAR uni2611_uniFE0F
ENCODING -1
SWIDTH 600 0
DWIDTH 5 0
BBX 7 7 -1 -1
BITMAP
00000350
2FFFFF00
32708C00
32777900
322E0900
32000700
06777300
ENDCHAR
STARTCHAR uni2713_uniFE0F
ENCODING -1
SWIDTH 600 0
DWIDTH 5 0
BBX 5 6 0 0
BITMAP
000280
000900
006300
908000
593000
0E0000
ENDCHAR
STARTCHAR uni2665_uniFE0F
ENCODING -1
SWIDTH 600 0
DWIDTH 5 0
BBX 5 6 0 0
BITMAP
8D7E60
DFFFB0
CFFF90
7FFF40
0CFA00
02B100
ENDCHAR
STARTCHAR uni2663_uniFE0F
ENCODING -1
SWIDTH 600 0
DWIDTH 5 0
BBX 5 6 0 0
BITMAP
08E500
0AF700
8DFC50
CFDF90
15D400
2FFE00
ENDCHAR
STARTCHAR uni2666_uniFE0F
ENCODING -1
SWIDTH 600 0
DWIDTH 5 0
BBX 5 6 0 0
BITMAP
01A000
0CF900
9FFF60
9FFF60
0CF900
01A000
ENDCHAR
STARTCHAR uni2660_uniFE0F
ENCODING -1
SWIDTH 600 0
DWIDTH 5 0
BBX 5 6 0 0
BITMAP
03B100
3EFC10
BFFF80
CEDF90
05E300
2FFE00
ENDCHAR
STARTCHAR uni263A_uniFE0F
ENCODING -1
SWIDTH 600 0
DWIDTH 5 0
BBX 5 5 0 0
BITMAP
2CEA10
9C6B70
641470
99E870
2CEA10
ENDCHAR
STARTCHAR uni263B_uniFE0F
ENCODING -1
SWIDTH 600 0
DWIDTH 5 0
BBX 5 5 0 0
BITMAP
1BE900
8ADB50
BBEB80
891C50
1BE900
ENDCHAR
STARTCHAR uni2764_uniFE0F
ENCODING -1
SWIDTH 600 0
DWIDTH 5 0
BBX 7 5 -1 0
BITMAP
3DD7EC10
8FFFFF50
5FFFFF20
07EFE500
002B1000
ENDCHAR
STARTCHAR uni2615_uniFE0F
ENCODING -1
SWIDTH 600 0
DWIDTH 5 0
BBX 7 5 -1 0
BITMAP
09EE6000
3CFD9100
29EE9610
0912CC10
05ED4000
ENDCHAR
STARTCHAR u1F4A9_uniFE0F
ENCODING -1
SWIDTH 600 0
DWIDTH 5 0
BBX 5 6 0 0
BITMAP
004100
0CF900
6FFF30
9FFF60
F71AC0
9EFE60
ENDCHAR
STARTCHAR u1F916_uniFE0F
ENCODING -1
SWIDTH 600 0
DWIDTH 5 0
BBX 6 5 -1 0
BITMAP
03CFB1
0AFFF8
29DFBB
0A3748
02CFA1
ENDCHAR
STARTCHAR u1F512_uniFE0F
ENCODING -1
SWIDTH 600 0
DWIDTH 5 0
BBX 5 8 0 -1
BITMAP
08E600
0A2A00
080800
9FFF60
AD2F70
AF6F70
AF4F70
9FFF60
ENDCHAR
ENDFONT
